<svg width="161" height="54" viewBox="0 0 161 54" fill="none" xmlns="http://www.w3.org/2000/svg">
<rect x="1.34281" y="0.665323" width="158.347" height="51.8952" rx="7.31855" fill="#E0E0E0"/>
<rect x="1.34281" y="0.665323" width="158.347" height="51.8952" rx="7.31855" stroke="#A6A6A6" stroke-width="1.33065"/>
<path d="M33.5508 27.6286C33.5669 26.4045 33.8999 25.2043 34.5189 24.1397C35.1378 23.075 36.0225 22.1805 37.0907 21.5394C36.4121 20.5932 35.5169 19.8146 34.4762 19.2653C33.4354 18.716 32.2779 18.4112 31.0954 18.3751C28.5729 18.1166 26.1275 19.8487 24.842 19.8487C23.5318 19.8487 21.5527 18.4007 19.4215 18.4435C18.043 18.487 16.6996 18.8784 15.5221 19.5795C14.3446 20.2805 13.3732 21.2675 12.7025 22.4441C9.79744 27.3547 11.9644 34.5716 14.7473 38.541C16.1396 40.4847 17.7668 42.6558 19.8961 42.5789C21.9796 42.4945 22.7578 41.2817 25.2729 41.2817C27.7646 41.2817 28.4946 42.5789 30.6671 42.5299C32.9029 42.4945 34.3115 40.5776 35.655 38.6155C36.6554 37.2305 37.4252 35.6999 37.9359 34.0802C36.637 33.5438 35.5285 32.646 34.7487 31.4988C33.9689 30.3515 33.5523 29.0055 33.5508 27.6286Z" fill="black"/>
<path d="M29.4478 15.7647C30.6669 14.336 31.2675 12.4996 31.122 10.6456C29.2596 10.8365 27.5393 11.7056 26.3038 13.0795C25.6997 13.7506 25.237 14.5315 24.9422 15.3774C24.6475 16.2232 24.5263 17.1175 24.5857 18.0091C25.5173 18.0185 26.4389 17.8213 27.281 17.4326C28.1232 17.0438 28.8641 16.4735 29.4478 15.7647Z" fill="black"/>
<path d="M49.6336 10.6676H52.3878C54.7678 10.6676 55.9256 12.0828 55.9256 14.6498C55.9256 17.2169 54.7561 18.6496 52.3878 18.6496H49.6336V10.6676ZM50.961 11.7845V17.5327H52.2416C53.8205 17.5327 54.5631 16.5795 54.5631 14.6674C54.5631 12.7435 53.8146 11.7845 52.2416 11.7845H50.961ZM60.1241 12.3634C61.7381 12.3634 62.8666 13.4102 62.8666 15.1469V15.948C62.8666 17.7432 61.7381 18.7548 60.1241 18.7548C58.4868 18.7548 57.3699 17.7549 57.3699 15.9538V15.1527C57.3699 13.4628 58.5044 12.3634 60.1241 12.3634ZM60.13 13.4102C59.2061 13.4102 58.6798 14.182 58.6798 15.217V15.9071C58.6798 16.9421 59.171 17.7081 60.13 17.7081C61.0773 17.7081 61.5626 16.9479 61.5626 15.9071V15.217C61.5626 14.182 61.0539 13.4102 60.13 13.4102ZM72.3982 12.4687L70.7726 18.6496H69.451L68.1587 14.0885H68.1236L66.8547 18.6496H65.5273L63.8315 12.4687H65.2291L66.2231 17.1818H66.2816L67.5272 12.4687H68.7493L70.0299 17.1818H70.0884L71.1 12.4687H72.3982ZM73.6846 18.6496V12.4687H74.9594V13.5797H75.0237C75.1816 13.0944 75.6319 12.3751 76.8833 12.3751C78.1288 12.3751 78.965 13.0651 78.965 14.4744V18.6496H77.6668V14.8545C77.6668 13.913 77.1756 13.4803 76.4447 13.4803C75.4857 13.4803 74.9828 14.2171 74.9828 15.217V18.6496H73.6846ZM80.9298 18.6496V10.2466H82.2279V18.6496H80.9298ZM86.6838 12.3634C88.2977 12.3634 89.4263 13.4102 89.4263 15.1469V15.948C89.4263 17.7432 88.2977 18.7548 86.6838 18.7548C85.0465 18.7548 83.9296 17.7549 83.9296 15.9538V15.1527C83.9296 13.4628 85.064 12.3634 86.6838 12.3634ZM86.6896 13.4102C85.7657 13.4102 85.2394 14.182 85.2394 15.217V15.9071C85.2394 16.9421 85.7306 17.7081 86.6896 17.7081C87.6369 17.7081 88.1223 16.9479 88.1223 15.9071V15.217C88.1223 14.182 87.6135 13.4102 86.6896 13.4102ZM92.7886 18.7431C91.5899 18.7431 90.7654 18.0063 90.7654 16.8544C90.7654 15.7609 91.5256 15.0241 92.9524 15.0241H94.5137V14.4452C94.5137 13.7376 94.0634 13.4043 93.35 13.4043C92.6483 13.4043 92.3325 13.6967 92.2331 14.106H90.9993C91.0753 13.071 91.853 12.3751 93.3909 12.3751C94.7125 12.3751 95.806 12.9248 95.806 14.4627V18.6496H94.5721V17.8485H94.5137C94.2388 18.3221 93.7008 18.7431 92.7886 18.7431ZM93.1921 17.7373C93.9289 17.7373 94.5137 17.2345 94.5137 16.562V15.8954H93.157C92.4027 15.8954 92.0694 16.2755 92.0694 16.79C92.0694 17.4333 92.6073 17.7373 93.1921 17.7373ZM99.8057 12.3868C100.677 12.3868 101.344 12.7728 101.583 13.3985H101.648V10.2466H102.946V18.6496H101.683V17.6613H101.618C101.431 18.287 100.689 18.7314 99.7882 18.7314C98.3672 18.7314 97.4433 17.7198 97.4433 16.0883V15.0299C97.4433 13.3985 98.3847 12.3868 99.8057 12.3868ZM100.168 13.4511C99.3028 13.4511 98.7648 14.0943 98.7648 15.217V15.8954C98.7648 17.0239 99.3087 17.6672 100.197 17.6672C101.075 17.6672 101.648 17.0298 101.648 15.9772V15.0416C101.648 14.0885 101.022 13.4511 100.168 13.4511ZM110.074 12.3634C111.688 12.3634 112.817 13.4102 112.817 15.1469V15.948C112.817 17.7432 111.688 18.7548 110.074 18.7548C108.437 18.7548 107.32 17.7549 107.32 15.9538V15.1527C107.32 13.4628 108.454 12.3634 110.074 12.3634ZM110.08 13.4102C109.156 13.4102 108.63 14.182 108.63 15.217V15.9071C108.63 16.9421 109.121 17.7081 110.08 17.7081C111.027 17.7081 111.513 16.9479 111.513 15.9071V15.217C111.513 14.182 111.004 13.4102 110.08 13.4102ZM114.489 18.6496V12.4687H115.764V13.5797H115.828C115.986 13.0944 116.436 12.3751 117.688 12.3751C118.933 12.3751 119.769 13.0651 119.769 14.4744V18.6496H118.471V14.8545C118.471 13.913 117.98 13.4803 117.249 13.4803C116.29 13.4803 115.787 14.2171 115.787 15.217V18.6496H114.489ZM124.792 12.5096V10.9659H126.061V12.5096H127.447V13.5271H126.061V16.8076C126.061 17.4801 126.313 17.6672 127.009 17.6672C127.184 17.6672 127.418 17.6555 127.517 17.6438V18.6379C127.412 18.6554 126.979 18.6905 126.687 18.6905C125.184 18.6905 124.775 18.1525 124.775 16.9128V13.5271H123.833V12.5096H124.792ZM129.084 18.6496V10.2466H130.377V13.5797H130.441C130.576 13.1412 131.078 12.3751 132.318 12.3751C133.523 12.3751 134.382 13.071 134.382 14.4803V18.6496H133.09V14.8603C133.09 13.9189 132.57 13.4803 131.833 13.4803C130.903 13.4803 130.377 14.2113 130.377 15.217V18.6496H129.084ZM138.739 18.7548C137.055 18.7548 136.008 17.7198 136.008 15.9772V15.141C136.008 13.3868 137.154 12.3634 138.663 12.3634C140.212 12.3634 141.306 13.4394 141.306 15.141V15.8661H137.294V16.1702C137.294 17.059 137.821 17.714 138.733 17.714C139.411 17.714 139.879 17.3923 139.967 17.0064H141.236C141.16 17.7198 140.405 18.7548 138.739 18.7548ZM137.294 15.0182H140.037V14.9364C140.037 14.0066 139.493 13.3868 138.669 13.3868C137.844 13.3868 137.294 14.0066 137.294 14.9364V15.0182Z" fill="black"/>
<path d="M51.5165 40.6254H48.815L54.3117 24.6615H57.2822L62.7672 40.6254H59.9604L58.5453 36.2046H52.9433L51.5165 40.6254ZM55.8086 27.4216H55.7034L53.5398 34.1697H57.9488L55.8086 27.4216ZM70.2232 40.8008C68.6209 40.8008 67.4046 40.0406 66.7497 38.9062H66.6562V44.7304H64.0598V28.2636H66.586V30.0764H66.6795C67.3579 28.8952 68.6209 28.0999 70.2816 28.0999C73.0534 28.0999 75.0299 30.1933 75.0299 33.889V34.9883C75.0299 38.6606 73.0768 40.8008 70.2232 40.8008ZM69.6267 38.6606C71.2757 38.6606 72.3985 37.3391 72.3985 34.848V33.9826C72.3985 31.5851 71.3459 30.2167 69.5799 30.2167C67.7672 30.2167 66.6328 31.6903 66.6328 33.9709V34.848C66.6328 37.187 67.7789 38.6606 69.6267 38.6606ZM83.4214 40.8008C81.8192 40.8008 80.6029 40.0406 79.9479 38.9062H79.8544V44.7304H77.2581V28.2636H79.7842V30.0764H79.8778C80.5561 28.8952 81.8192 28.0999 83.4799 28.0999C86.2516 28.0999 88.2281 30.1933 88.2281 33.889V34.9883C88.2281 38.6606 86.275 40.8008 83.4214 40.8008ZM82.8249 38.6606C84.474 38.6606 85.5967 37.3391 85.5967 34.848V33.9826C85.5967 31.5851 84.5441 30.2167 82.7782 30.2167C80.9654 30.2167 79.831 31.6903 79.831 33.9709V34.848C79.831 37.187 80.9771 38.6606 82.8249 38.6606ZM93.6084 36.1929H96.2047C96.3217 37.573 97.538 38.7542 99.7951 38.7542C101.865 38.7542 103.093 37.7835 103.093 36.2748C103.093 35.0585 102.275 34.4036 100.567 33.9942L97.9473 33.3393C95.889 32.8598 94.0411 31.6318 94.0411 29.0355C94.0411 25.9831 96.7076 24.3107 99.8068 24.3107C102.906 24.3107 105.491 25.9831 105.549 28.9653H103C102.883 27.6087 101.842 26.486 99.7718 26.486C97.9473 26.486 96.7076 27.3514 96.7076 28.8367C96.7076 29.8776 97.4327 30.6261 98.918 30.9652L101.526 31.6084C103.924 32.1932 105.748 33.3276 105.748 36.0409C105.748 39.1752 103.21 40.9411 99.5963 40.9411C95.1522 40.9411 93.6669 38.3448 93.6084 36.1929ZM108.912 28.2636V25.258H111.461V28.2636H113.871V30.3454H111.461V36.9414C111.461 38.2864 111.964 38.6606 113.356 38.6606C113.578 38.6606 113.789 38.6606 113.941 38.6372V40.6254C113.73 40.6605 113.239 40.7072 112.713 40.7072C109.707 40.7072 108.877 39.6313 108.877 37.1519V30.3454H107.169V28.2636H108.912ZM120.882 28.0531C124.437 28.0531 126.367 30.5559 126.367 33.9241V34.9182C126.367 38.4033 124.449 40.8359 120.882 40.8359C117.315 40.8359 115.374 38.4033 115.374 34.9182V33.9241C115.374 30.5676 117.327 28.0531 120.882 28.0531ZM120.882 30.1349C118.952 30.1349 117.993 31.7137 117.993 33.9592V34.9065C117.993 37.1168 118.941 38.7425 120.882 38.7425C122.823 38.7425 123.759 37.1285 123.759 34.9065V33.9592C123.759 31.702 122.812 30.1349 120.882 30.1349ZM128.56 40.6254V28.2636H131.156V29.8893H131.25C131.566 29.1174 132.49 28.0882 134.209 28.0882C134.548 28.0882 134.84 28.1116 135.086 28.1584V30.4506C134.864 30.3921 134.408 30.3571 133.975 30.3571C131.893 30.3571 131.192 31.6435 131.192 33.3042V40.6254H128.56ZM141.384 40.8359C138.074 40.8359 135.969 38.6489 135.969 34.9883V33.737C135.969 30.2869 138.028 28.0531 141.279 28.0531C144.577 28.0531 146.565 30.3688 146.565 33.8539V35.0351H138.531V35.3275C138.531 37.4092 139.653 38.7892 141.419 38.7892C142.741 38.7892 143.641 38.1343 143.957 37.0701H146.425C146.051 39.0699 144.437 40.8359 141.384 40.8359ZM138.531 33.2224H144.027V33.199C144.027 31.4447 142.94 30.0647 141.291 30.0647C139.618 30.0647 138.531 31.4447 138.531 33.199V33.2224Z" fill="black"/>
</svg>
