<svg width="88" height="88" viewBox="0 0 88 88" fill="none" xmlns="http://www.w3.org/2000/svg">
<g clip-path="url(#clip0_581_705)">
<g clip-path="url(#clip1_581_705)">
<g clip-path="url(#clip2_581_705)">
<path d="M65.9997 0.499512H21.9999C10.1258 0.499512 0.5 10.1253 0.5 21.9994V65.9992C0.5 77.8733 10.1258 87.4991 21.9999 87.4991H65.9997C77.8738 87.4991 87.4996 77.8733 87.4996 65.9992V21.9994C87.4996 10.1253 77.8738 0.499512 65.9997 0.499512Z" stroke="#F0F1F3" stroke-opacity="0.2"/>
<ellipse cx="50.6654" cy="34.134" rx="6.31704" ry="4.33419" fill="white"/>
<path d="M37.9179 36.6179C37.9197 33.8679 39.0704 31.231 41.1173 29.2865C43.1641 27.3419 45.9398 26.2487 48.8346 26.2471C54.8279 26.2471 59.7512 30.7105 59.7512 36.4596C59.7494 39.2096 58.5987 41.8465 56.5518 43.791C54.505 45.7355 51.7293 46.8287 48.8346 46.8304C47.9496 46.8304 47.0762 46.7101 46.2479 46.5074C46.2281 47.019 46.0003 47.5035 45.6124 47.8589C45.2246 48.2144 44.7068 48.4133 44.1679 48.4137H41.2512V51.1846C41.2512 52.2771 40.3179 53.1637 39.1679 53.1637H36.2512V55.1429C36.2512 55.8778 35.9439 56.5825 35.3969 57.1022C34.85 57.6218 34.1081 57.9137 33.3346 57.9137H29.1679C28.3943 57.9137 27.6525 57.6218 27.1055 57.1022C26.5585 56.5825 26.2512 55.8778 26.2512 55.1429V51.7039C26.2512 50.5481 26.7346 49.4413 27.5946 48.6259L37.9846 38.7522C38.0352 38.7015 38.0723 38.6399 38.0926 38.5726C38.1129 38.5054 38.1159 38.4345 38.1012 38.3659C37.9868 37.7894 37.9255 37.2045 37.9179 36.6179ZM53.4179 34.0846C53.4179 33.5597 53.1984 33.0563 52.8077 32.6851C52.417 32.3139 51.8871 32.1054 51.3346 32.1054C50.782 32.1054 50.2521 32.3139 49.8614 32.6851C49.4707 33.0563 49.2512 33.5597 49.2512 34.0846C49.2512 34.6095 49.4707 35.1129 49.8614 35.4841C50.2521 35.8552 50.782 36.0637 51.3346 36.0637C51.8871 36.0637 52.417 35.8552 52.8077 35.4841C53.1984 35.1129 53.4179 34.6095 53.4179 34.0846Z" fill="#717173"/>
<ellipse cx="52.9738" cy="38.134" rx="6.15912" ry="4.33419" fill="#202022"/>
<path d="M51.1885 30.7471C56.6054 30.7471 61.047 34.748 61.3193 39.9521L61.332 40.46C61.3302 43.0729 60.2646 45.5809 58.3643 47.4326C56.4632 49.2849 53.8824 50.3284 51.1885 50.3301L50.8828 50.3252C50.1699 50.3007 49.4645 50.1922 48.7881 50.0225L48.1904 49.8721L48.167 50.4883C48.1527 50.8664 47.9887 51.2273 47.7051 51.4941C47.4209 51.7613 47.0386 51.9136 46.6387 51.9141H43.2949V55.1846C43.2949 55.9888 42.6211 56.6641 41.7637 56.6641H38.4199V59.1426C38.4199 59.7406 38.1764 60.3172 37.7383 60.7441C37.2997 61.1715 36.7019 61.4141 36.0762 61.4141H32.0137C31.3879 61.4141 30.7902 61.1715 30.3516 60.7441C29.9134 60.3172 29.6699 59.7406 29.6699 59.1426V55.7041C29.6699 54.6853 30.0851 53.707 30.8281 52.9844H30.8291L40.959 43.1104L40.9678 43.1006C41.0733 42.9922 41.1523 42.86 41.1953 42.7139C41.2377 42.5698 41.2435 42.4178 41.2139 42.2705H41.2148C41.1094 41.7255 41.0523 41.1727 41.0449 40.6182C41.0466 38.0049 42.113 35.4964 44.0137 33.6445C45.796 31.9081 48.1753 30.8825 50.6855 30.7598L51.1885 30.7471ZM53.626 35.6055C52.9588 35.6055 52.3164 35.8637 51.8408 36.3271C51.3648 36.791 51.0947 37.4233 51.0947 38.085C51.0948 38.7465 51.365 39.378 51.8408 39.8418C52.3164 40.3052 52.9588 40.5634 53.626 40.5635C54.2932 40.5635 54.9355 40.3052 55.4111 39.8418C55.8871 39.378 56.1571 38.7466 56.1572 38.085C56.1572 37.4232 55.8872 36.791 55.4111 36.3271C54.9355 35.8637 54.2931 35.6055 53.626 35.6055Z" fill="#717173" stroke="#202022"/>
</g>
</g>
</g>
<defs>
<clipPath id="clip0_581_705">
<rect width="88" height="88" fill="white"/>
</clipPath>
<clipPath id="clip1_581_705">
<rect width="88" height="88" fill="white"/>
</clipPath>
<clipPath id="clip2_581_705">
<rect width="88" height="88" fill="white"/>
</clipPath>
</defs>
</svg>
