<svg width="32" height="32" viewBox="0 0 32 32" fill="none" xmlns="http://www.w3.org/2000/svg">
<g clip-path="url(#clip0_589_6506)">
<g clip-path="url(#clip1_589_6506)">
<g clip-path="url(#clip2_589_6506)">
<path d="M32 16C32 7.16344 24.8366 0 16 0C7.16344 0 0 7.16344 0 16C0 24.8366 7.16344 32 16 32C24.8366 32 32 24.8366 32 16Z" fill="white" fill-opacity="0.16"/>
<g clip-path="url(#clip3_589_6506)">
<path d="M19.8748 22.3886C21.1704 21.9917 22.2773 21.3717 23.139 20.2741C18.4157 22.9653 13.7489 22.8785 9.09474 20.3299C9.15764 20.516 9.38406 20.7888 9.89979 21.1857C10.2331 21.4399 10.5916 21.6693 10.9627 21.8615C11.3275 22.0538 11.7174 22.1902 12.1137 22.3638C12.0822 22.4135 12.0508 22.4692 12.0067 22.525C11.6986 22.9033 11.3904 23.2877 11.0696 23.6598C11.0004 23.7343 10.8746 23.8086 10.7803 23.8025C9.78029 23.7466 8.80544 23.5544 7.89347 23.1265C7.01924 22.7235 6.2708 22.1654 5.65444 21.4275C5.48463 21.2229 5.40287 21.0058 5.41544 20.7268C5.50979 18.172 5.99407 15.6916 6.89974 13.2857C7.20792 12.4672 7.58529 11.6797 7.93749 10.8797C7.98781 10.7681 8.08215 10.6503 8.18278 10.5821C9.37777 9.73876 10.6923 9.15588 12.1451 8.90785C12.3967 8.86444 12.6608 8.85204 12.9124 8.81483C13.0759 8.79003 13.1829 8.85204 13.252 9.01946C11.5728 9.52794 9.97527 10.1914 8.57273 11.3138C13.3967 9.03807 18.1955 8.93885 23.0006 11.2518C21.7176 10.2348 20.2333 9.59615 18.6798 9.09387C18.793 8.84584 18.9691 8.81483 19.2207 8.83964C20.9063 8.99466 22.4031 9.60855 23.7805 10.5573C23.9063 10.6441 24.0195 10.7681 24.0824 10.8983C25.1453 13.0252 25.8686 15.2576 26.2711 17.5953C26.4598 18.6867 26.5604 19.7904 26.5793 20.8942C26.5793 21.0369 26.529 21.2042 26.4409 21.3159C25.5478 22.4754 24.3466 23.1886 22.9314 23.5482C22.3843 23.6908 21.8057 23.7343 21.2396 23.8086C21.1579 23.821 21.0258 23.7838 20.9755 23.7218C20.6107 23.294 20.2584 22.8537 19.8748 22.3886ZM12.6294 19.4556C13.0319 19.4556 13.4093 19.3192 13.7112 19.0711C14.2394 18.6433 14.4156 18.079 14.491 17.4279C14.6545 16.0513 13.0697 15.0591 11.8684 15.6234C11.013 16.0265 10.5602 17.0496 10.8306 18.017C11.0759 18.8851 11.7929 19.4618 12.6294 19.4556ZM19.2396 19.4804C19.4534 19.4308 19.6735 19.4122 19.8748 19.3316C21.1641 18.8293 21.5226 17.062 20.5477 16.0265C19.8496 15.2824 18.6861 15.27 17.9691 16.0017C17.4722 16.504 17.3276 17.1178 17.4094 17.7999C17.5037 18.7053 18.3276 19.4494 19.2396 19.4804Z" fill="white"/>
</g>
</g>
</g>
</g>
<defs>
<clipPath id="clip0_589_6506">
<rect width="32" height="32" fill="white"/>
</clipPath>
<clipPath id="clip1_589_6506">
<rect width="32" height="32" fill="white"/>
</clipPath>
<clipPath id="clip2_589_6506">
<rect width="32" height="32" fill="white"/>
</clipPath>
<clipPath id="clip3_589_6506">
<rect width="22" height="15" fill="white" transform="translate(5 8.80957)"/>
</clipPath>
</defs>
</svg>
