<svg width="32" height="32" viewBox="0 0 32 32" fill="none" xmlns="http://www.w3.org/2000/svg">
<g clip-path="url(#clip0_589_6519)">
<g clip-path="url(#clip1_589_6519)">
<g clip-path="url(#clip2_589_6519)">
<path d="M32 16C32 7.16344 24.8366 0 16 0C7.16344 0 0 7.16344 0 16C0 24.8366 7.16344 32 16 32C24.8366 32 32 24.8366 32 16Z" fill="white" fill-opacity="0.16"/>
<path fill-rule="evenodd" clip-rule="evenodd" d="M23.7927 11.4044C22.9879 9.99086 21.8963 8.87178 20.5175 8.04688C19.1384 7.22193 17.6329 6.80957 15.9999 6.80957C14.3671 6.80957 12.8611 7.22206 11.4824 8.04688C10.1035 8.87174 9.01185 9.99086 8.20704 11.4044C7.40236 12.8178 7 14.3614 7 16.0349C7 18.0452 7.57217 19.8529 8.71678 21.4585C9.86127 23.0641 11.3398 24.1753 13.1522 24.7918C13.3632 24.832 13.5193 24.8038 13.6209 24.7079C13.7225 24.6118 13.7732 24.4916 13.7732 24.3477C13.7732 24.3236 13.7712 24.1074 13.7673 23.699C13.7633 23.2906 13.7614 22.9342 13.7614 22.63L13.4918 22.6778C13.32 22.7101 13.1032 22.7238 12.8415 22.7199C12.5798 22.7162 12.3082 22.6881 12.027 22.6358C11.7457 22.584 11.4841 22.4639 11.2419 22.2757C10.9998 22.0875 10.8279 21.8412 10.7263 21.537L10.6091 21.2606C10.531 21.0767 10.4081 20.8721 10.2401 20.6481C10.0721 20.4237 9.90219 20.2718 9.73033 20.1917L9.64829 20.1314C9.59362 20.0915 9.54289 20.0431 9.49597 19.9872C9.44909 19.9312 9.41401 19.8751 9.39057 19.8191C9.36709 19.7628 9.38654 19.7168 9.44914 19.6807C9.51173 19.6444 9.62485 19.6269 9.78898 19.6269L10.0233 19.6629C10.1795 19.6949 10.3728 19.7909 10.6034 19.9511C10.8338 20.1113 11.0232 20.3194 11.1717 20.5756C11.3514 20.904 11.568 21.1543 11.8221 21.3264C12.0759 21.4987 12.3318 21.5846 12.5896 21.5846C12.8473 21.5846 13.0699 21.5646 13.2575 21.5248C13.4449 21.4847 13.6207 21.4245 13.7848 21.3445C13.8551 20.8077 14.0466 20.3953 14.359 20.107C13.9137 20.0591 13.5134 19.9868 13.1578 19.8908C12.8025 19.7946 12.4352 19.6385 12.0564 19.4221C11.6773 19.206 11.3629 18.9376 11.113 18.6174C10.863 18.297 10.6579 17.8765 10.4978 17.3561C10.3377 16.8354 10.2576 16.2349 10.2576 15.5542C10.2576 14.585 10.5663 13.7603 11.1835 13.0795C10.8944 12.3509 10.9217 11.5341 11.2654 10.6292C11.492 10.557 11.828 10.6111 12.2733 10.7913C12.7186 10.9715 13.0447 11.1258 13.2518 11.2538C13.4589 11.3818 13.6248 11.4902 13.7498 11.5781C14.4765 11.37 15.2265 11.2659 15.9998 11.2659C16.7732 11.2659 17.5233 11.37 18.25 11.5781L18.6954 11.29C18.9998 11.0977 19.3594 10.9215 19.7732 10.7613C20.1873 10.6012 20.5039 10.5571 20.7228 10.6293C21.0742 11.5343 21.1056 12.351 20.8163 13.0797C21.4334 13.7604 21.7423 14.5854 21.7423 15.5543C21.7423 16.235 21.6619 16.8375 21.502 17.3621C21.3419 17.8868 21.135 18.3069 20.8812 18.6234C20.6272 18.9399 20.3106 19.2061 19.9318 19.4222C19.5528 19.6385 19.1855 19.7946 18.8301 19.8908C18.4746 19.987 18.0743 20.0592 17.6291 20.1073C18.0352 20.4675 18.2382 21.0361 18.2382 21.8129V24.3473C18.2382 24.4913 18.2871 24.6115 18.3849 24.7075C18.4825 24.8034 18.6367 24.8316 18.8477 24.7914C20.6603 24.175 22.1389 23.0639 23.2833 21.4581C24.4276 19.8525 25 18.0448 25 16.0346C24.9996 14.3612 24.5971 12.8178 23.7927 11.4044Z" fill="white" fill-opacity="0.88"/>
</g>
</g>
</g>
<defs>
<clipPath id="clip0_589_6519">
<rect width="32" height="32" fill="white"/>
</clipPath>
<clipPath id="clip1_589_6519">
<rect width="32" height="32" fill="white"/>
</clipPath>
<clipPath id="clip2_589_6519">
<rect width="32" height="32" fill="white"/>
</clipPath>
</defs>
</svg>
