<svg width="160" height="54" viewBox="0 0 160 54" fill="none" xmlns="http://www.w3.org/2000/svg">
<rect x="0.665323" y="0.665323" width="158.347" height="51.8952" rx="7.31855" fill="#E0E0E0"/>
<rect x="0.665323" y="0.665323" width="158.347" height="51.8952" rx="7.31855" stroke="#A6A6A6" stroke-width="1.33065"/>
<path d="M23.6919 25.897L10.7644 39.9276C10.7656 39.9301 10.7656 39.9339 10.7668 39.9363C11.1639 41.4598 12.5238 42.5811 14.1386 42.5811C14.7846 42.5811 15.3905 42.4023 15.9102 42.0894L15.9514 42.0645L30.5023 33.4785L23.6919 25.897Z" fill="#EA4335"/>
<path d="M36.7696 23.5078L36.7575 23.4991L30.4752 19.7754L23.3977 26.2159L30.5007 33.4771L36.749 29.7906C37.8442 29.1847 38.5885 28.0039 38.5885 26.643C38.5885 25.2896 37.8551 24.115 36.7696 23.5078Z" fill="#FBBC04"/>
<path d="M10.764 13.2979C10.6863 13.5909 10.645 13.8988 10.645 14.2167V39.01C10.645 39.3278 10.6863 39.6358 10.7652 39.9276L24.1359 26.2557L10.764 13.2979Z" fill="#4285F4"/>
<path d="M23.7866 26.6133L30.4768 19.7731L15.9429 11.156C15.4148 10.8319 14.7979 10.6457 14.1386 10.6457C12.5238 10.6457 11.1614 11.7694 10.7644 13.2941C10.7644 13.2954 10.7632 13.2966 10.7632 13.2979L23.7866 26.6133Z" fill="#34A853"/>
<path d="M58.0295 15.2758C58.0295 16.6064 57.6348 17.6665 56.8453 18.456C55.9582 19.3964 54.7916 19.8665 53.3457 19.8665C51.9618 19.8665 50.7908 19.3875 49.8328 18.4294C48.8747 17.4714 48.3957 16.2915 48.3957 14.8899C48.3957 13.4883 48.8747 12.3084 49.8328 11.3504C50.7908 10.3923 51.9618 9.91329 53.3457 9.91329C54.0465 9.91329 54.7074 10.0375 55.3283 10.2859C55.9493 10.5343 56.4594 10.8847 56.8586 11.3371L55.9803 12.2153C55.6876 11.8605 55.3061 11.5855 54.836 11.3903C54.3747 11.1863 53.8779 11.0843 53.3457 11.0843C52.3078 11.0843 51.4295 11.4435 50.711 12.1621C50.0013 12.8895 49.6465 13.7988 49.6465 14.8899C49.6465 15.981 50.0013 16.8903 50.711 17.6177C51.4295 18.3363 52.3078 18.6955 53.3457 18.6955C54.2949 18.6955 55.0844 18.4294 55.7142 17.8972C56.344 17.3649 56.7078 16.633 56.8053 15.7016H53.3457V14.5572H57.963C58.0074 14.8056 58.0295 15.0451 58.0295 15.2758ZM65.079 10.1262V11.2972H60.7411V14.3177H64.6532V15.4621H60.7411V18.4826H65.079V19.6536H59.5169V10.1262H65.079ZM69.9757 11.2972V19.6536H68.7515V11.2972H66.0902V10.1262H72.637V11.2972H69.9757ZM78.0629 19.6536H76.8387V10.1262H78.0629V19.6536ZM83.2302 11.2972V19.6536H82.006V11.2972H79.3447V10.1262H85.8915V11.2972H83.2302ZM99.1611 14.8899C99.1611 16.3004 98.691 17.4802 97.7506 18.4294C96.8014 19.3875 95.6393 19.8665 94.2643 19.8665C92.8805 19.8665 91.7184 19.3875 90.7781 18.4294C89.8377 17.4802 89.3676 16.3004 89.3676 14.8899C89.3676 13.4794 89.8377 12.2996 90.7781 11.3504C91.7184 10.3923 92.8805 9.91329 94.2643 9.91329C95.6482 9.91329 96.8103 10.3968 97.7506 11.3637C98.691 12.3129 99.1611 13.4883 99.1611 14.8899ZM90.6184 14.8899C90.6184 15.9899 90.9643 16.8992 91.6563 17.6177C92.3571 18.3363 93.2264 18.6955 94.2643 18.6955C95.3023 18.6955 96.1672 18.3363 96.8591 17.6177C97.5599 16.908 97.9103 15.9988 97.9103 14.8899C97.9103 13.781 97.5599 12.8718 96.8591 12.1621C96.1672 11.4435 95.3023 11.0843 94.2643 11.0843C93.2264 11.0843 92.3571 11.4435 91.6563 12.1621C90.9643 12.8806 90.6184 13.7899 90.6184 14.8899ZM101.83 19.6536H100.606V10.1262H102.096L106.727 17.5379H106.78L106.727 15.7016V10.1262H107.951V19.6536H106.674L101.83 11.8826H101.777L101.83 13.7189V19.6536Z" fill="black"/>
<path d="M124.44 41.7955H126.607V27.1431H124.44V41.7955ZM143.961 32.421L141.476 38.7738H141.402L138.824 32.421H136.489L140.356 41.2997L138.152 46.2389H140.411L146.371 32.421H143.961ZM131.67 40.1311C130.959 40.1311 129.969 39.7736 129.969 38.8863C129.969 37.7564 131.202 37.3228 132.267 37.3228C133.219 37.3228 133.669 37.5302 134.247 37.8127C134.079 39.17 132.921 40.1311 131.67 40.1311ZM131.931 32.1011C130.362 32.1011 128.736 32.7985 128.065 34.3445L129.988 35.1544C130.399 34.3445 131.165 34.0796 131.968 34.0796C133.089 34.0796 134.229 34.7582 134.247 35.9655V36.1155C133.855 35.8893 133.015 35.5505 131.987 35.5505C129.914 35.5505 127.802 36.7004 127.802 38.8488C127.802 40.8098 129.503 42.0733 131.407 42.0733C132.865 42.0733 133.669 41.4134 134.173 40.6398H134.247V41.7709H136.339V36.153C136.339 33.5521 134.416 32.1011 131.931 32.1011M118.537 34.205H115.454V29.1825H118.537C120.157 29.1825 121.077 30.5363 121.077 31.6932C121.077 32.8289 120.157 34.205 118.537 34.205ZM118.481 27.1431H113.288V41.7955H115.454V36.2444H118.481C120.883 36.2444 123.244 34.4886 123.244 31.6932C123.244 28.8977 120.883 27.1431 118.481 27.1431M90.1624 40.1335C88.6652 40.1335 87.4119 38.8688 87.4119 37.1317C87.4119 35.3759 88.6652 34.0913 90.1624 34.0913C91.641 34.0913 92.8001 35.3759 92.8001 37.1317C92.8001 38.8688 91.641 40.1335 90.1624 40.1335ZM92.6515 33.2415H92.576C92.0893 32.6566 91.1543 32.128 89.9754 32.128C87.5048 32.128 85.2411 34.3175 85.2411 37.1317C85.2411 39.926 87.5048 42.0979 89.9754 42.0979C91.1543 42.0979 92.0893 41.5693 92.576 40.9645H92.6515V41.683C92.6515 43.59 91.6409 44.6097 90.0125 44.6097C88.6838 44.6097 87.8603 43.6462 87.5234 42.834L85.6336 43.6275C86.1761 44.9496 87.6175 46.573 90.0125 46.573C92.5574 46.573 94.7096 45.0621 94.7096 41.3806V32.4292H92.6515V33.2415ZM96.2068 41.7955H98.3777V27.1419H96.2068V41.7955ZM101.576 36.9618C101.521 35.036 103.055 34.0538 104.158 34.0538C105.02 34.0538 105.75 34.4875 105.993 35.111L101.576 36.9618ZM108.313 35.2997C107.902 34.1862 106.648 32.128 104.084 32.128C101.539 32.128 99.4254 34.1475 99.4254 37.113C99.4254 39.9072 101.521 42.0979 104.327 42.0979C106.592 42.0979 107.902 40.7007 108.444 39.8885L106.76 38.7551C106.199 39.5861 105.432 40.1335 104.327 40.1335C103.223 40.1335 102.437 39.6236 101.932 38.6238L108.537 35.8658L108.313 35.2997ZM55.6877 33.6576V35.7721H60.7019C60.5521 36.9618 60.1595 37.8303 59.5613 38.4339C58.8308 39.1712 57.689 39.9834 55.6877 39.9834C52.5993 39.9834 50.1857 37.4716 50.1857 34.3562C50.1857 31.2396 52.5993 28.7289 55.6877 28.7289C57.3533 28.7289 58.5694 29.39 59.4673 30.2398L60.9459 28.7477C59.6914 27.5392 58.027 26.6133 55.6877 26.6133C51.4587 26.6133 47.9033 30.0886 47.9033 34.3562C47.9033 38.6238 51.4587 42.0979 55.6877 42.0979C57.9701 42.0979 59.6914 41.3419 61.0388 39.926C62.4245 38.5289 62.8542 36.5656 62.8542 34.9786C62.8542 34.4875 62.817 34.035 62.7415 33.6576H55.6877ZM68.556 40.1335C67.0589 40.1335 65.7673 38.8875 65.7673 37.113C65.7673 35.3185 67.0589 34.0913 68.556 34.0913C70.0521 34.0913 71.3437 35.3185 71.3437 37.113C71.3437 38.8875 70.0521 40.1335 68.556 40.1335ZM68.556 32.128C65.823 32.128 63.5964 34.2237 63.5964 37.113C63.5964 39.9834 65.823 42.0979 68.556 42.0979C71.2879 42.0979 73.5145 39.9834 73.5145 37.113C73.5145 34.2237 71.2879 32.128 68.556 32.128ZM79.3731 40.1335C77.876 40.1335 76.5844 38.8875 76.5844 37.113C76.5844 35.3185 77.876 34.0913 79.3731 34.0913C80.8703 34.0913 82.1608 35.3185 82.1608 37.113C82.1608 38.8875 80.8703 40.1335 79.3731 40.1335ZM79.3731 32.128C76.6413 32.128 74.4147 34.2237 74.4147 37.113C74.4147 39.9834 76.6413 42.0979 79.3731 42.0979C82.105 42.0979 84.3316 39.9834 84.3316 37.113C84.3316 34.2237 82.105 32.128 79.3731 32.128Z" fill="black"/>
</svg>
