<svg width="137" height="19" viewBox="0 0 137 19" fill="none" xmlns="http://www.w3.org/2000/svg">
<path d="M34.8894 14.2241H37.5609V3.74359H41.0544V1.20909H31.4187V3.74359H34.8894V14.2241ZM41.0544 14.2241H43.566V9.84009C43.566 8.31026 44.3424 7.39692 45.5525 7.39692C45.9635 7.39692 46.306 7.46542 46.6942 7.60242V5.04509C46.4202 4.97659 46.1234 4.93093 45.8494 4.93093C44.8219 4.93093 43.8857 5.61592 43.566 6.50642V5.04509H41.0544V14.2241ZM51.512 14.4296C52.7679 14.4296 53.7269 13.7903 54.1607 13.1966V14.2241H56.6724V5.06792H54.1607V6.09542C53.7497 5.50175 52.7907 4.86242 51.512 4.86242C49.0689 4.86242 47.1965 7.05442 47.1965 9.65742C47.1965 12.2376 49.0689 14.4296 51.512 14.4296ZM52.0372 12.1462C50.6444 12.1462 49.731 11.0959 49.731 9.65742C49.731 8.21892 50.6444 7.16859 52.0372 7.16859C53.43 7.16859 54.3434 8.21892 54.3434 9.65742C54.3434 11.0959 53.43 12.1462 52.0372 12.1462ZM62.6319 14.4296C63.8877 14.4296 64.8467 13.7903 65.2805 13.1966V14.2241H67.7922V0.478424H65.2805V6.09542C64.8695 5.50175 63.9105 4.86242 62.6319 4.86242C60.1887 4.86242 58.3164 7.05442 58.3164 9.65742C58.3392 12.2376 60.1887 14.4296 62.6319 14.4296ZM63.1799 12.1462C61.787 12.1462 60.8737 11.0959 60.8737 9.65742C60.8737 8.21892 61.787 7.16859 63.1799 7.16859C64.5727 7.16859 65.486 8.21892 65.486 9.65742C65.486 11.0959 64.5727 12.1462 63.1799 12.1462ZM71.2857 3.67509C72.1762 3.67509 72.9069 2.96726 72.9069 2.07676C72.9069 1.18626 72.1762 0.478424 71.2857 0.478424C70.418 0.478424 69.6874 1.18626 69.6874 2.07676C69.7102 2.94442 70.418 3.65226 71.2857 3.67509ZM70.0527 14.2241H72.5644V5.15926H70.0527V14.2241ZM74.7792 14.2241H77.2909V9.74875C77.2909 7.99059 78.1585 7.14575 79.323 7.14575C80.3734 7.14575 80.9442 7.94492 80.9442 9.26926V14.2241H83.4559V8.85825C83.4559 6.48359 82.1315 4.86242 79.9167 4.86242C78.7294 4.86242 77.7932 5.36475 77.2909 6.11825V5.06792H74.7792V14.2241ZM89.8492 11.7809C88.5933 11.7809 87.5202 10.8219 87.5202 9.42909C87.5202 8.01342 88.5705 7.07726 89.8492 7.07726C91.105 7.07726 92.1782 8.01342 92.1782 9.42909C92.1782 10.8448 91.1278 11.7809 89.8492 11.7809ZM89.5524 18.1971C92.3609 18.1971 94.4844 16.7586 94.4844 13.4706V5.02226H91.9727V6.04976C91.4704 5.34192 90.4885 4.81676 89.324 4.81676C86.9265 4.81676 85.0085 6.87176 85.0085 9.45192C85.0085 12.0093 86.9265 14.0643 89.324 14.0643C90.4885 14.0643 91.4932 13.5391 91.9727 12.8541V13.4706C91.9727 14.9319 90.9908 15.9823 89.5067 15.9823C88.4792 15.9823 87.4517 15.6398 86.6525 14.8406L85.2825 16.7129C86.3328 17.7404 87.954 18.1971 89.5524 18.1971ZM99.8045 14.2241H102.179L107.568 1.20909H104.645L101.015 10.2511L97.3385 1.20909H94.4615L99.8045 14.2241ZM109.851 3.56092C110.742 3.56092 111.45 2.85309 111.472 1.96259C111.472 1.07209 110.742 0.364258 109.851 0.364258C108.984 0.364258 108.253 1.07209 108.253 1.96259C108.253 2.85309 109.006 3.56092 109.851 3.56092ZM108.618 14.2241H111.13V5.04509H108.618V14.2241ZM117.615 14.4296C119.533 14.4296 120.994 13.6304 121.862 12.3746L119.989 10.9818C119.578 11.6211 118.779 12.1462 117.615 12.1462C116.404 12.1462 115.331 11.4613 115.171 10.2283H122.021C122.067 9.84009 122.067 9.58892 122.067 9.36059C122.067 6.36942 119.966 4.86242 117.546 4.86242C114.76 4.86242 112.728 6.94025 112.728 9.63458C112.774 12.5344 114.897 14.4296 117.615 14.4296ZM115.286 8.53859C115.537 7.41975 116.564 6.94026 117.5 6.94026C118.437 6.94026 119.35 7.44259 119.578 8.53859H115.286ZM131.497 14.2241H133.986L137 5.04509H134.306L132.593 10.9133L130.721 5.04509H128.803L126.953 10.9133L125.218 5.04509H122.547L125.583 14.2241H128.072L129.785 9.01809L131.497 14.2241Z" fill="white"/>
<path d="M10.138 14.224H5.069V6.27798H0V1.20898H10.1152V14.224H10.138ZM20.276 14.224H14.4992L19.9335 1.20898H25.7103L20.276 14.224ZM14.4763 1.20898C16.0747 1.20898 17.3762 2.51049 17.3762 4.10882C17.3762 5.70715 16.0747 7.00865 14.4763 7.00865C12.878 7.00865 11.5765 5.70715 11.5765 4.10882C11.5993 2.51049 12.878 1.20898 14.4763 1.20898Z" fill="white"/>
</svg>
