<svg width="102" height="19" viewBox="0 0 102 19" fill="none" xmlns="http://www.w3.org/2000/svg">
<path d="M94.5957 15.2196L90.7874 6.47943H93.3409L95.9381 12.7391L98.9439 6.47943H101.454L95.5296 18.5172H92.9907L94.5957 15.2196ZM85.3449 13.4103C85.5638 13.3519 85.7827 13.2789 85.9869 13.1622C86.1766 13.0601 86.3663 12.9287 86.5268 12.7828C86.6873 12.6369 86.8332 12.4618 86.95 12.2721C87.0667 12.0679 87.1688 11.849 87.2272 11.6301C87.3001 11.3821 87.3293 11.134 87.3293 10.8714C87.3293 10.6087 87.3001 10.3607 87.2272 10.1126C87.1688 9.89377 87.0667 9.6749 86.95 9.47063C86.8332 9.28094 86.6873 9.10584 86.5268 8.95993C86.3663 8.81402 86.1766 8.6827 85.9869 8.58056C85.7827 8.47842 85.5638 8.40547 85.3449 8.3471C85.1115 8.28874 84.8634 8.25955 84.6299 8.27414C84.3965 8.27414 84.1484 8.30333 83.915 8.3471C83.6961 8.39087 83.4772 8.47842 83.273 8.58056C83.0687 8.6827 82.8936 8.81402 82.7331 8.95993C82.5726 9.10584 82.4267 9.28094 82.3099 9.47063C82.1932 9.6749 82.0911 9.89377 82.0327 10.1126C81.9598 10.3607 81.9306 10.6233 81.9306 10.8714C81.9306 11.1194 81.9598 11.3821 82.0327 11.6301C82.0911 11.849 82.1932 12.0679 82.3099 12.2721C82.4267 12.4618 82.5726 12.6369 82.7331 12.7828C82.8936 12.9287 83.0833 13.0601 83.273 13.1622C83.4772 13.2643 83.6815 13.3519 83.915 13.4103C84.1484 13.4686 84.3819 13.4978 84.6299 13.4832C84.8634 13.4978 85.0969 13.4686 85.3449 13.4103ZM82.7623 15.3655C82.3683 15.2633 81.9889 15.1174 81.6387 14.9131C80.953 14.5338 80.3839 13.9647 80.0045 13.2789C79.8003 12.9287 79.6543 12.5494 79.5522 12.1554C79.3479 11.3091 79.3479 10.4336 79.5522 9.58735C79.6543 9.19339 79.8003 8.81402 80.0045 8.46383C80.3839 7.77804 80.953 7.22358 81.6387 6.82961C81.9889 6.63993 82.3683 6.47943 82.7623 6.37729C83.1854 6.27515 83.6086 6.21678 84.0463 6.21678C84.2798 6.21678 84.5132 6.23137 84.7467 6.26056C84.9655 6.28974 85.1698 6.33351 85.3741 6.39188C85.5638 6.45024 85.7535 6.50861 85.9286 6.59616C86.1037 6.66911 86.2642 6.75666 86.4247 6.8588C86.5706 6.94634 86.7165 7.06307 86.8332 7.1798C86.95 7.29653 87.0667 7.41326 87.1542 7.54458V6.49402H89.5764V15.2779H87.1542V14.2274C86.8332 14.6359 86.4101 14.9569 85.9286 15.1758C85.6513 15.3071 85.3595 15.3947 85.0531 15.4384C84.7175 15.4968 84.3673 15.5406 84.0317 15.526C83.6086 15.526 83.1854 15.4822 82.7623 15.3655ZM73.9784 8.71188C74.3285 8.71188 74.6787 8.6827 75.0143 8.59515C75.277 8.5222 75.525 8.40547 75.7293 8.23037C75.919 8.06987 76.0649 7.86559 76.1525 7.63213C76.24 7.36949 76.2984 7.09226 76.2838 6.81502C76.2838 6.53779 76.24 6.26056 76.1525 5.99792C76.0649 5.76446 75.919 5.57477 75.7293 5.41427C75.525 5.25376 75.277 5.12244 75.0143 5.06408C74.6787 4.97653 74.3285 4.93276 73.9784 4.94735H71.6V8.71188H73.9784ZM69.0903 2.87539H74.2264C74.9414 2.8608 75.6418 2.96294 76.313 3.16722C76.8528 3.32772 77.3489 3.61955 77.7721 3.98433C78.1514 4.33452 78.4433 4.75766 78.633 5.23917C78.8226 5.74986 78.9248 6.28974 78.9102 6.82961C78.9102 7.36949 78.8226 7.90936 78.633 8.40547C78.4433 8.88698 78.1514 9.31012 77.7721 9.66031C77.3489 10.0397 76.8528 10.3169 76.313 10.4774C75.6418 10.6817 74.9268 10.7838 74.2264 10.7692H71.6146V15.2779H69.1049L69.0903 2.87539ZM58.3366 6.47943H60.7441V7.52999C60.89 7.32572 61.0651 7.13603 61.2694 6.99012C61.4737 6.82961 61.7071 6.6837 61.9552 6.58156C62.2178 6.46483 62.5097 6.37729 62.8015 6.31892C63.1225 6.26056 63.4435 6.23137 63.7791 6.23137C64.2898 6.21678 64.8005 6.30433 65.2674 6.47943C65.6905 6.63993 66.0845 6.88798 66.4055 7.20899C66.7265 7.54458 66.96 7.95314 67.1059 8.39087C67.281 8.90157 67.3539 9.42685 67.3539 9.96673V15.2779H64.9464V10.5941C64.9464 10.2586 64.9026 9.90836 64.8005 9.58735C64.7129 9.32471 64.5816 9.07666 64.3919 8.85779C64.2168 8.66811 63.9834 8.5076 63.7353 8.42006C63.1663 8.23037 62.5388 8.23037 61.9552 8.42006C61.7071 8.5076 61.4737 8.66811 61.2986 8.85779C61.1089 9.07666 60.9776 9.32471 60.89 9.58735C60.7879 9.90836 60.7441 10.2586 60.7441 10.5941V15.2779H58.3512L58.3366 6.47943ZM52.4125 13.3811C52.646 13.3227 52.8649 13.2498 53.0691 13.133C53.2734 13.0309 53.4485 12.8996 53.609 12.7391C53.7695 12.5786 53.9008 12.4035 54.0176 12.2138C54.1343 12.0095 54.2219 11.8052 54.2656 11.5864C54.3824 11.1048 54.3824 10.6087 54.2656 10.1272C54.1635 9.68949 53.93 9.28094 53.609 8.97452C53.4485 8.81402 53.2588 8.6827 53.0691 8.58056C52.8649 8.46383 52.6314 8.39087 52.4125 8.33251C52.1645 8.27414 51.9018 8.24496 51.6538 8.24496C51.4057 8.24496 51.1431 8.27414 50.8951 8.33251C50.6616 8.39087 50.4427 8.46383 50.2385 8.58056C50.0342 8.6827 49.8591 8.81402 49.6986 8.97452C49.5381 9.13503 49.4068 9.31012 49.29 9.49981C48.9398 10.1418 48.8523 10.886 49.042 11.6009C49.1003 11.8198 49.1879 12.0387 49.29 12.2284C49.3922 12.4181 49.5381 12.5931 49.6986 12.7536C49.8591 12.9142 50.0342 13.0455 50.2385 13.1476C50.4427 13.2498 50.6616 13.3373 50.8951 13.3957C51.1431 13.454 51.3912 13.4832 51.6538 13.4832C51.9164 13.4832 52.1645 13.454 52.4125 13.3811ZM50.2385 15.3655C49.8007 15.2633 49.3776 15.1174 48.9836 14.9131C48.6042 14.7235 48.2686 14.49 47.9476 14.2128C47.6412 13.9355 47.3786 13.6291 47.1743 13.2789C46.9554 12.9287 46.7949 12.5494 46.6782 12.1554C46.4447 11.3091 46.4447 10.4191 46.6782 9.58735C46.7949 9.19339 46.9554 8.81402 47.1743 8.46383C47.612 7.76345 48.2395 7.19439 48.9836 6.82961C49.3776 6.62534 49.8007 6.47943 50.2385 6.37729C51.1723 6.15842 52.1499 6.15842 53.0837 6.37729C53.5215 6.47943 53.93 6.62534 54.324 6.82961C54.7034 7.0193 55.039 7.25276 55.36 7.54458C55.6664 7.82182 55.929 8.12823 56.1479 8.47842C56.3668 8.82861 56.5419 9.20798 56.644 9.60195C56.8775 10.4482 56.8775 11.3383 56.644 12.17C56.4251 12.9725 55.9728 13.6875 55.36 14.2274C55.0536 14.5046 54.7034 14.7381 54.324 14.9277C53.93 15.132 53.5069 15.2779 53.0837 15.3801C52.1499 15.5843 51.1723 15.5843 50.2385 15.3655ZM40.8709 13.3811C41.1043 13.3227 41.3232 13.2498 41.5275 13.133C41.7318 13.0309 41.9069 12.8996 42.0674 12.7391C42.2279 12.5786 42.3592 12.4035 42.4759 12.2138C42.5927 12.0095 42.6802 11.8052 42.724 11.5864C42.8407 11.1048 42.8407 10.6087 42.724 10.1272C42.6218 9.68949 42.3884 9.28094 42.0674 8.97452C41.9069 8.81402 41.7172 8.6827 41.5275 8.58056C41.3232 8.46383 41.0898 8.39087 40.8709 8.33251C40.6228 8.27414 40.3602 8.24496 40.1121 8.24496C39.8641 8.24496 39.6015 8.27414 39.3534 8.33251C39.1199 8.39087 38.9011 8.46383 38.6968 8.58056C38.5071 8.6827 38.3174 8.81402 38.1569 8.97452C37.9964 9.12044 37.8651 9.31012 37.7484 9.49981C37.6462 9.70408 37.5587 9.90836 37.5003 10.1272C37.442 10.3607 37.3982 10.6087 37.4128 10.8568C37.4128 11.1048 37.442 11.3529 37.5003 11.5864C37.5587 11.8052 37.6462 12.0241 37.7484 12.2138C37.8505 12.4035 37.9964 12.5786 38.1569 12.7391C38.3174 12.8996 38.4925 13.0309 38.6968 13.133C38.9011 13.2352 39.1199 13.3227 39.3534 13.3811C39.6015 13.4394 39.8495 13.4686 40.1121 13.4686C40.3602 13.4686 40.6228 13.4394 40.8709 13.3811ZM38.6822 15.3655C38.2445 15.2633 37.8213 15.1174 37.4274 14.9131C37.048 14.7235 36.7124 14.49 36.3914 14.2128C36.085 13.9355 35.8223 13.6291 35.618 13.2789C35.3992 12.9287 35.2387 12.5494 35.1219 12.1554C34.8885 11.3091 34.8885 10.4191 35.1219 9.58735C35.2387 9.19339 35.3992 8.81402 35.618 8.46383C35.8369 8.11364 36.0996 7.80723 36.3914 7.52999C36.6978 7.25276 37.048 7.00471 37.4274 6.81502C37.8213 6.61075 38.2445 6.46483 38.6822 6.3627C39.616 6.15842 40.5937 6.15842 41.5275 6.3627C41.9652 6.46483 42.3738 6.61075 42.7677 6.81502C43.1471 7.00471 43.4827 7.23817 43.8037 7.52999C44.1101 7.80723 44.3728 8.11364 44.5916 8.46383C44.8105 8.81402 44.9856 9.19339 45.0877 9.58735C45.3212 10.4336 45.3212 11.3237 45.0877 12.1554C44.8689 12.9579 44.4166 13.6729 43.8037 14.2128C43.4973 14.49 43.1471 14.7235 42.7677 14.9131C42.3738 15.1174 41.9506 15.2633 41.5275 15.3655C40.6082 15.5843 39.6306 15.5843 38.6822 15.3655ZM19.7136 2.87539H22.2525L26.5715 9.48522L30.9197 2.87539H33.444V15.2779H30.9343V6.77125L27.3448 12.2575H25.8128L22.2233 6.77125V15.2779H19.7136V2.87539Z" fill="white"/>
<path d="M13.9346 5.09324C15.3354 5.09324 16.4589 3.95512 16.4589 2.56896C16.4589 1.1682 15.3208 0.0446777 13.9346 0.0446777C12.5339 0.0446777 11.4103 1.18279 11.4103 2.56896C11.4103 3.95512 12.5339 5.09324 13.9346 5.09324ZM6.17208 16.489C2.75774 16.489 0 13.7312 0 10.3169C0 6.90255 2.75774 4.14481 6.17208 4.14481C9.58643 4.14481 12.3442 6.90255 12.3442 10.3169C12.3442 13.7312 9.58643 16.489 6.17208 16.489Z" fill="white"/>
</svg>
