<svg width="71" height="22" viewBox="0 0 71 22" fill="none" xmlns="http://www.w3.org/2000/svg">
<mask id="mask0_578_97" style="mask-type:luminance" maskUnits="userSpaceOnUse" x="0" y="0" width="19" height="22">
<path d="M18.46 0.561523H0.136475V21.5615H18.46V0.561523Z" fill="white"/>
</mask>
<g mask="url(#mask0_578_97)">
<path d="M9.36727 17.7746L13.2919 15.5088V8.73536L7.4259 5.34863L3.41992 7.66147L9.36727 11.0952V17.7746Z" fill="white"/>
<path fill-rule="evenodd" clip-rule="evenodd" d="M5.86615 5.09437L9.29847 3.11273L11.4617 1.85891L9.51521 0.735079C9.38109 0.657643 9.21583 0.657643 9.08172 0.735079L0.483104 5.6995C0.34898 5.77693 0.266357 5.92004 0.266357 6.0749V16.0037C0.266357 16.1586 0.34898 16.3017 0.483104 16.3792L9.08172 21.3435C9.21583 21.4209 9.38109 21.4209 9.51521 21.3435L18.1138 16.3792C18.248 16.3017 18.3306 16.1586 18.3306 16.0037V13.7523L16.1631 15.0026L9.29847 18.9659L2.43382 15.0026V7.07603L5.86615 5.09437Z" fill="white"/>
<path d="M14.4198 14.8707L18.3444 12.6048V6.06915C18.3444 5.92202 18.2659 5.7861 18.1385 5.71254L12.4784 2.4447L8.47241 4.75757L14.4198 8.19132V14.8707Z" fill="white"/>
</g>
<path d="M66.9816 16.0693V15.595L67.1398 14.251H67.0014C66.6259 15.5159 65.4598 15.931 63.8984 15.931C62.0207 15.931 60.5779 15.1206 60.5779 12.907V5.81142C61.7242 5.7126 62.8508 5.7126 63.9972 5.81142V11.3258C63.9972 12.8279 64.5506 13.0453 65.3609 13.0453C66.3294 13.0453 66.7049 12.8081 66.9816 11.7804V5.81142C68.128 5.7126 69.2546 5.7126 70.4009 5.81142V15.6345C70.4009 19.0142 68.5628 20.2792 64.7087 20.2792C63.7205 20.2792 62.4555 20.2001 61.2499 20.042C61.2104 19.2712 61.3092 18.0853 61.5068 17.3342C62.5148 17.5121 63.4833 17.5912 64.432 17.5912C65.5981 17.5912 66.9816 17.3342 66.9816 16.0693Z" fill="white"/>
<path d="M55.378 16.1682L55.2001 14.6265H55.0618C54.7653 15.8322 53.5596 16.3065 52.018 16.3065C50.1601 16.3065 48.7371 15.4764 48.7371 13.3418C48.7371 10.5155 50.2589 9.92253 52.4133 9.92253C53.4213 9.92253 54.1328 9.98183 55.042 10.1004V9.64583C55.042 8.71689 54.4491 8.18324 52.4924 8.18324C51.7413 8.18324 50.7728 8.2623 49.5869 8.45994C49.4881 7.64959 49.4881 6.66136 49.5869 5.851C51.0693 5.5743 52.2749 5.49524 53.5596 5.49524C56.7813 5.49524 58.4613 6.32536 58.4613 8.97383V16.1682C57.6509 16.267 56.1686 16.267 55.378 16.1682ZM55.042 12.9861V12.0374C54.5281 11.9188 53.9747 11.8595 53.6189 11.8595C52.69 11.8595 52.1564 11.9781 52.1564 12.8872C52.1564 13.7569 52.69 13.8557 53.362 13.8557C54.1526 13.8557 54.706 13.6185 55.042 12.9861Z" fill="white"/>
<path d="M43.3831 16.0693V1.91775C44.1934 1.81892 45.992 1.81892 46.8024 1.91775V16.0693C45.992 16.1681 44.1934 16.1681 43.3831 16.0693Z" fill="white"/>
<path d="M41.2423 9.50747V11.8792C39.9773 11.9978 36.9731 11.9978 35.3326 11.899V12.1164C35.3326 13.3418 35.9651 13.6185 37.7044 13.6185C38.8112 13.6185 39.6611 13.4999 40.7679 13.3023C40.8667 14.1127 40.8667 15.1404 40.7679 15.931C39.3251 16.1879 38.1985 16.3065 36.815 16.3065C33.8305 16.3065 31.9133 15.4369 31.9133 12.8082V9.03312C31.9133 6.28583 33.8898 5.49524 36.6569 5.49524C39.0879 5.49524 41.2423 6.46371 41.2423 9.50747ZM37.9218 9.98183V9.46794C37.9218 8.32159 37.2893 8.18324 36.6173 8.18324C35.9651 8.18324 35.3326 8.32159 35.3326 9.44818V10.0807L36.4987 9.98183H37.9218Z" fill="white"/>
<path d="M23.7341 16.0694V5.69289C24.7619 5.63359 25.7699 5.63359 26.7977 5.69289L26.9953 7.43218H27.1337C27.4499 6.06842 28.7148 5.49524 30.5727 5.49524C30.6518 6.30559 30.6518 7.62983 30.5727 8.42041C28.2998 8.42041 27.6871 8.875 27.1534 10.2981V16.0694C26.3431 16.1682 24.5445 16.1682 23.7341 16.0694Z" fill="white"/>
</svg>
