<svg width="88" height="21" viewBox="0 0 88 21" fill="none" xmlns="http://www.w3.org/2000/svg">
<path d="M10.7367 19.2204C15.674 19.2204 19.6765 15.2179 19.6765 10.2806C19.6765 5.3433 15.674 1.34082 10.7367 1.34082C5.79935 1.34082 1.79688 5.3433 1.79688 10.2806C1.79688 15.2179 5.79935 19.2204 10.7367 19.2204Z" fill="#202022"/>
<path d="M10.7344 0C5.0576 0 0.453613 4.60399 0.453613 10.2808C0.453613 15.9575 5.0576 20.5615 10.7344 20.5615C16.4111 20.5615 21.0151 15.9575 21.0151 10.2808C21.0151 4.60399 16.4111 0 10.7344 0ZM9.51767 4.87978C8.19502 5.35449 7.95767 5.90965 7.95767 6.86799C7.95767 7.0374 7.97019 7.24972 7.98315 7.47411C7.99567 7.69045 8.00818 7.91082 8.00818 8.08068C8.00818 9.10205 7.55047 9.68716 6.47367 10.0434L5.76564 10.2767L6.47367 10.5096C7.54644 10.8614 8.00818 11.451 8.00818 12.4728C8.00818 12.6377 7.99567 12.8626 7.98315 13.0789C7.97019 13.3037 7.95767 13.5156 7.95767 13.685C7.95767 14.6474 8.19502 15.203 9.51767 15.6732V16.9963C6.74499 16.4537 6.17687 15.4614 6.17687 14.0453C6.17687 13.9309 6.18983 13.7315 6.19832 13.5241C6.21084 13.2993 6.2238 13.0619 6.2238 12.9135C6.2238 11.5399 5.6302 10.9763 4.17614 10.9763H3.99779V9.5687H4.17614C5.6302 9.5687 6.2238 9.00907 6.2238 7.631C6.2238 7.4826 6.21084 7.24525 6.19832 7.02042C6.18536 6.81704 6.17687 6.61768 6.17687 6.49923C6.17687 5.08719 6.74499 4.09532 9.51767 3.55267V4.87978ZM10.7344 13.4052C10.2637 13.4052 9.88241 13.0239 9.88241 12.5533C9.88241 12.0826 10.2637 11.7008 10.7344 11.7008C11.2051 11.7008 11.5863 12.0826 11.5863 12.5533C11.5863 13.0239 11.2051 13.4052 10.7344 13.4052ZM10.7344 8.86067C10.2637 8.86067 9.88241 8.47894 9.88241 8.00826C9.88241 7.53803 10.2637 7.1563 10.7344 7.1563C11.2051 7.1563 11.5863 7.53803 11.5863 8.00826C11.5863 8.47894 11.2051 8.86067 10.7344 8.86067ZM17.4709 10.9843H17.293C15.8385 10.9843 15.2454 11.544 15.2454 12.922C15.2454 13.0704 15.2579 13.3078 15.2709 13.5326C15.2834 13.736 15.2919 13.9353 15.2919 14.0538C15.2919 15.4658 14.7238 16.4622 11.9511 17.0048V15.6817C13.2737 15.207 13.5111 14.6519 13.5111 13.6935C13.5111 13.5241 13.4986 13.3118 13.486 13.0874C13.4731 12.8711 13.4606 12.6462 13.4606 12.4813C13.4606 11.4595 13.9183 10.8744 14.9951 10.5181L15.7031 10.2852L14.9951 10.0519C13.9223 9.69565 13.4606 9.11054 13.4606 8.08917C13.4606 7.92378 13.4731 7.69895 13.486 7.4826C13.4986 7.25822 13.5111 7.0459 13.5111 6.87649C13.5111 5.91412 13.2737 5.35896 11.9511 4.88828V3.56117C14.7238 4.10381 15.2919 5.09568 15.2919 6.50772C15.2919 6.62215 15.2789 6.82151 15.2709 7.02891C15.2579 7.25375 15.2454 7.4911 15.2454 7.6395C15.2454 9.0131 15.8385 9.5772 17.293 9.5772H17.4709V10.9843Z" fill="white"/>
<path d="M24.5996 16.4239V14.9742L30.6708 7.41186C31.1019 6.87492 31.5115 6.40779 31.8996 6.01049H25.2868V4.61719H33.7751V6.01049L27.1218 14.2011L26.4024 15.0306H33.9691V16.4239H24.5996ZM41.3581 13.6696L42.8617 13.8547C42.6245 14.7299 42.1853 15.4091 41.544 15.8924C40.9026 16.3756 40.0834 16.6172 39.0864 16.6172C37.8307 16.6172 36.8336 16.2333 36.0953 15.4655C35.3623 14.6923 34.9958 13.6105 34.9958 12.2199C34.9958 10.781 35.3677 9.66418 36.1114 8.86958C36.8552 8.07493 37.8199 7.67763 39.0056 7.67763C40.1535 7.67763 41.0913 8.06687 41.8189 8.8454C42.5464 9.62394 42.9102 10.7192 42.9102 12.1313C42.9102 12.2172 42.9075 12.346 42.9021 12.5179H36.4995C36.5534 13.4575 36.8201 14.1769 37.2998 14.6762C37.7795 15.1756 38.3777 15.4252 39.0945 15.4252C39.628 15.4252 40.0834 15.2856 40.4607 15.0065C40.838 14.7272 41.1371 14.2816 41.3581 13.6696ZM36.5803 11.3259H41.3742C41.3095 10.6065 41.1263 10.0669 40.8245 9.70712C40.361 9.14876 39.7601 8.86958 39.0217 8.86958C38.3534 8.86958 37.7902 9.09235 37.3321 9.538C36.8794 9.98365 36.6288 10.5796 36.5803 11.3259ZM44.6806 16.4239V7.87092H45.9903V9.16753C46.3244 8.56081 46.6316 8.16081 46.9119 7.96752C47.1975 7.77428 47.5101 7.67763 47.8496 7.67763C48.34 7.67763 48.8386 7.83334 49.3452 8.14475L48.8439 9.48971C48.4882 9.28029 48.1325 9.17559 47.7768 9.17559C47.4589 9.17559 47.1732 9.27223 46.92 9.46553C46.6666 9.65347 46.4861 9.91653 46.3783 10.2548C46.2166 10.7702 46.1358 11.334 46.1358 11.9461V16.4239H44.6806ZM49.6685 12.1474C49.6685 10.5635 50.1105 9.39035 50.9943 8.62793C51.7329 7.9944 52.6325 7.67763 53.6945 7.67763C54.875 7.67763 55.8394 8.06416 56.5888 8.83735C57.3376 9.60512 57.712 10.6682 57.712 12.0266C57.712 13.1273 57.545 13.9944 57.2111 14.6279C56.8823 15.2561 56.3998 15.7447 55.7642 16.0937C55.1333 16.4427 54.4434 16.6172 53.6945 16.6172C52.4927 16.6172 51.5198 16.2333 50.7761 15.4655C50.0377 14.6977 49.6685 13.5917 49.6685 12.1474ZM51.1641 12.1474C51.1641 13.2427 51.404 14.0642 51.8837 14.6118C52.3633 15.1541 52.9671 15.4252 53.6945 15.4252C54.4168 15.4252 55.0177 15.1514 55.4973 14.6038C55.9769 14.0561 56.2167 13.2212 56.2167 12.0991C56.2167 11.0414 55.974 10.2414 55.4892 9.69906C55.0096 9.15141 54.411 8.87758 53.6945 8.87758C52.9671 8.87758 52.3633 9.14876 51.8837 9.691C51.404 10.2333 51.1641 11.0521 51.1641 12.1474ZM59.6119 16.4239V4.61719H63.6946C64.6162 4.61719 65.3194 4.6736 65.8042 4.78636C66.4837 4.94207 67.0627 5.2239 67.5428 5.63196C68.168 6.15814 68.6337 6.83197 68.9411 7.65345C69.2537 8.46958 69.4103 9.40376 69.4103 10.4561C69.4103 11.3528 69.3051 12.1474 69.0948 12.84C68.8845 13.5326 68.6152 14.1071 68.2865 14.5635C67.9577 15.0145 67.5966 15.3715 67.2031 15.6346C66.8148 15.8924 66.3433 16.0883 65.7886 16.2225C65.2385 16.3568 64.6053 16.4239 63.8888 16.4239H59.6119ZM61.1806 15.0306H63.7108C64.492 15.0306 65.1039 14.9581 65.5459 14.8132C65.9931 14.6682 66.3491 14.4642 66.6131 14.2011C66.9847 13.8306 67.273 13.334 67.4781 12.7111C67.6878 12.083 67.793 11.3233 67.793 10.432C67.793 9.19706 67.5885 8.2494 67.1788 7.58904C66.7743 6.92327 66.2815 6.47762 65.6996 6.25209C65.279 6.09103 64.6024 6.01049 63.6704 6.01049H61.1806V15.0306ZM77.2679 13.6696L78.7713 13.8547C78.5344 14.7299 78.0953 15.4091 77.4539 15.8924C76.8126 16.3756 75.9932 16.6172 74.9959 16.6172C73.7404 16.6172 72.7436 16.2333 72.0052 15.4655C71.272 14.6923 70.9056 13.6105 70.9056 12.2199C70.9056 10.781 71.2772 9.66418 72.0214 8.86958C72.765 8.07493 73.7294 7.67763 74.915 7.67763C76.0631 7.67763 77.0009 8.06687 77.7284 8.8454C78.4564 9.62394 78.8198 10.7192 78.8198 12.1313C78.8198 12.2172 78.8175 12.346 78.8118 12.5179H72.4091C72.4628 13.4575 72.7298 14.1769 73.2094 14.6762C73.6889 15.1756 74.2875 15.4252 75.004 15.4252C75.5379 15.4252 75.9932 15.2856 76.3705 15.0065C76.7478 14.7272 77.0466 14.2816 77.2679 13.6696ZM72.49 11.3259H77.284C77.2193 10.6065 77.0362 10.0669 76.734 9.70712C76.2706 9.14876 75.6697 8.86958 74.9312 8.86958C74.2633 8.86958 73.6999 9.09235 73.2417 9.538C72.7893 9.98365 72.5385 10.5796 72.49 11.3259ZM82.9916 16.4239L79.7253 7.87092H81.2611L83.1043 12.993C83.3042 13.546 83.4874 14.1206 83.6544 14.7165C83.7838 14.2655 83.9641 13.7232 84.1958 13.0897L86.1037 7.87092H87.5996L84.3495 16.4239H82.9916Z" fill="#F2F2F2"/>
</svg>
