<svg width="99" height="22" viewBox="0 0 99 22" fill="none" xmlns="http://www.w3.org/2000/svg">
<path d="M30.9116 11.7353V11.4892C30.9116 10.8707 30.6999 10.3973 30.2768 10.0692C29.8664 9.72836 29.3277 9.55796 28.6609 9.55796C28.1479 9.55796 27.7439 9.64631 27.449 9.82302C27.1668 9.98711 26.8975 10.2396 26.641 10.5804C26.564 10.6813 26.4807 10.7508 26.3909 10.7886C26.3012 10.8265 26.1793 10.8454 26.0254 10.8454H25.4483C25.3072 10.8454 25.179 10.7949 25.0636 10.694C24.9609 10.593 24.9161 10.4731 24.9289 10.3342C24.9674 9.95555 25.1533 9.5832 25.4867 9.21716C25.833 8.83848 26.2883 8.52924 26.8526 8.28942C27.4169 8.0496 28.0197 7.92969 28.6609 7.92969C29.8535 7.92969 30.8153 8.25786 31.5463 8.91423C32.2902 9.57058 32.6622 10.492 32.6622 11.6785V17.4531C32.6622 17.592 32.6108 17.712 32.5082 17.8129C32.4056 17.9138 32.2838 17.9643 32.1427 17.9643H31.4309C31.2899 17.9643 31.1681 17.9138 31.0654 17.8129C30.9629 17.712 30.9116 17.592 30.9116 17.4531V16.6769C30.7064 17.1313 30.2703 17.4911 29.6034 17.7561C28.9365 18.0212 28.2697 18.1537 27.6028 18.1537C26.9487 18.1537 26.3653 18.0401 25.8522 17.8129C25.3393 17.573 24.9417 17.2512 24.6595 16.8473C24.3902 16.4433 24.2556 15.989 24.2556 15.4841C24.2556 14.5374 24.6148 13.799 25.3329 13.2689C26.0511 12.7261 27.0065 12.3601 28.1992 12.1708L30.9116 11.7353ZM30.9116 13.25L28.6416 13.6097C27.808 13.7359 27.1604 13.9442 26.6987 14.2345C26.2371 14.5122 26.0062 14.8656 26.0062 15.2948C26.0062 15.6103 26.1536 15.8943 26.4486 16.1468C26.7435 16.3992 27.1925 16.5254 27.7952 16.5254C28.7186 16.5254 29.4688 16.2667 30.0459 15.7491C30.623 15.2317 30.9116 14.5563 30.9116 13.7233V13.25Z" fill="white"/>
<path d="M37.2191 17.4531C37.2191 17.5919 37.1678 17.7119 37.0651 17.8128C36.9626 17.9137 36.8407 17.9643 36.6996 17.9643H35.9879C35.8469 17.9643 35.725 17.9137 35.6224 17.8128C35.5198 17.7119 35.4685 17.5919 35.4685 17.4531V5.03281C35.4685 4.89397 35.5198 4.77405 35.6224 4.67307C35.725 4.57209 35.8469 4.52161 35.9879 4.52161H36.6996C36.8407 4.52161 36.9626 4.57209 37.0651 4.67307C37.1678 4.77405 37.2191 4.89397 37.2191 5.03281V17.4531Z" fill="white"/>
<path d="M44.1478 16.5254C45.4303 16.5254 46.2959 16.0332 46.7449 15.0486C46.8346 14.8593 46.9244 14.7267 47.0142 14.651C47.1039 14.5753 47.2258 14.5374 47.3797 14.5374H47.9568C48.0979 14.5374 48.2196 14.5879 48.3223 14.6889C48.4248 14.7773 48.4761 14.8845 48.4761 15.0108C48.4761 15.4399 48.3031 15.9006 47.9568 16.3929C47.6105 16.8852 47.1104 17.3017 46.4562 17.6425C45.8022 17.9833 45.0328 18.1537 44.1478 18.1537C43.2373 18.1537 42.4486 17.9643 41.7818 17.5857C41.1149 17.207 40.6018 16.6896 40.2428 16.0332C39.8837 15.3642 39.685 14.6195 39.6464 13.799C39.6336 13.6476 39.6272 13.3573 39.6272 12.9281C39.6272 12.6252 39.6336 12.4106 39.6464 12.2844C39.7619 10.9969 40.2043 9.94924 40.9738 9.14142C41.7432 8.3336 42.8013 7.92969 44.1478 7.92969C45.0328 7.92969 45.7958 8.10009 46.437 8.44089C47.0911 8.76906 47.5848 9.17928 47.9182 9.67156C48.2645 10.1512 48.4505 10.6056 48.4761 11.0348C48.489 11.1736 48.4377 11.2935 48.3223 11.3945C48.2196 11.4955 48.0979 11.546 47.9568 11.546H47.3797C47.2258 11.546 47.1039 11.5081 47.0142 11.4324C46.9244 11.3566 46.8346 11.2241 46.7449 11.0348C46.2959 10.0502 45.4303 9.55796 44.1478 9.55796C43.4425 9.55796 42.8269 9.79146 42.3011 10.2585C41.7753 10.7255 41.4739 11.4324 41.397 12.379C41.3842 12.5179 41.3777 12.745 41.3777 13.0606C41.3777 13.3509 41.3842 13.5655 41.397 13.7043C41.4868 14.651 41.7882 15.3578 42.3011 15.8249C42.8269 16.2919 43.4425 16.5254 44.1478 16.5254Z" fill="white"/>
<path d="M59.6652 17.4531C59.6652 17.5919 59.6139 17.7119 59.5113 17.8128C59.4087 17.9137 59.2869 17.9643 59.1458 17.9643H58.4341C58.293 17.9643 58.1711 17.9137 58.0685 17.8128C57.966 17.7119 57.9146 17.5919 57.9146 17.4531V12.4547C57.9146 11.508 57.6774 10.7885 57.2029 10.2963C56.7284 9.80401 56.0679 9.55788 55.2215 9.55788C54.3879 9.55788 53.7274 9.80401 53.2401 10.2963C52.7656 10.7885 52.5284 11.508 52.5284 12.4547V17.4531C52.5284 17.5919 52.477 17.7119 52.3744 17.8128C52.2719 17.9137 52.15 17.9643 52.0089 17.9643H51.2971C51.1561 17.9643 51.0343 17.9137 50.9316 17.8128C50.8291 17.7119 50.7778 17.5919 50.7778 17.4531V5.03281C50.7778 4.89397 50.8291 4.77405 50.9316 4.67307C51.0343 4.57209 51.1561 4.52161 51.2971 4.52161H52.0089C52.15 4.52161 52.2719 4.57209 52.3744 4.67307C52.477 4.77405 52.5284 4.89397 52.5284 5.03281V9.21708C52.8104 8.85103 53.1953 8.5481 53.6825 8.30828C54.1827 8.05582 54.7919 7.92961 55.51 7.92961C56.318 7.92961 57.0362 8.10001 57.6646 8.44081C58.293 8.78161 58.7803 9.27387 59.1266 9.91761C59.4857 10.5487 59.6652 11.2998 59.6652 12.1707V17.4531Z" fill="white"/>
<path d="M66.407 7.92969C67.7794 7.92969 68.863 8.35884 69.6581 9.21716C70.4533 10.0755 70.8508 11.243 70.8508 12.7199V13.2311C70.8508 13.3699 70.7996 13.4898 70.6969 13.5908C70.5943 13.6917 70.4725 13.7423 70.3314 13.7423H63.7139V13.8558C63.7396 14.6889 63.9961 15.3452 64.4834 15.8249C64.9836 16.2919 65.6248 16.5254 66.407 16.5254C67.0484 16.5254 67.5421 16.4433 67.8884 16.2793C68.2474 16.1153 68.568 15.8817 68.8502 15.5787C68.9527 15.4778 69.0425 15.4083 69.1195 15.3705C69.2093 15.3326 69.3247 15.3137 69.4658 15.3137H70.0429C70.1968 15.3137 70.325 15.3642 70.4276 15.4652C70.5302 15.5661 70.575 15.686 70.5623 15.8249C70.5109 16.1657 70.3185 16.5192 69.9851 16.8852C69.6645 17.2386 69.1965 17.5416 68.5808 17.7939C67.9781 18.0338 67.2536 18.1537 66.407 18.1537C65.5863 18.1537 64.8553 17.9707 64.214 17.6046C63.5728 17.226 63.0599 16.7084 62.6752 16.0521C62.3032 15.3957 62.0788 14.6574 62.0018 13.8369C61.9762 13.4582 61.9634 13.1679 61.9634 12.966C61.9634 12.764 61.9762 12.4737 62.0018 12.095C62.0788 11.3124 62.3032 10.6056 62.6752 9.97449C63.0599 9.34337 63.5665 8.8448 64.1948 8.47876C64.8361 8.11271 65.5735 7.92969 66.407 7.92969ZM69.1195 12.1518V12.095C69.1195 11.3251 68.8694 10.7129 68.3693 10.2585C67.8819 9.79146 67.2279 9.55796 66.407 9.55796C65.6633 9.55796 65.0285 9.79146 64.5027 10.2585C63.9896 10.7255 63.7268 11.3377 63.7139 12.095V12.1518H69.1195Z" fill="white"/>
<path d="M74.9214 9.21716C75.2292 8.82587 75.5755 8.51662 75.9602 8.28942C76.3449 8.0496 76.8579 7.92969 77.4992 7.92969C78.9996 7.92969 80.0512 8.47876 80.654 9.57689C81.026 9.04676 81.4491 8.64285 81.9236 8.36516C82.3982 8.07484 83.0201 7.92969 83.7896 7.92969C85.0464 7.92969 85.9762 8.30205 86.579 9.04676C87.1945 9.79146 87.5023 10.8454 87.5023 12.2086V17.4531C87.5023 17.592 87.4511 17.712 87.3484 17.8129C87.2459 17.9138 87.124 17.9643 86.9829 17.9643H86.2711C86.13 17.9643 86.0083 17.9138 85.9056 17.8129C85.8031 17.712 85.7518 17.592 85.7518 17.4531V12.398C85.7518 10.5046 84.9951 9.55796 83.4818 9.55796C82.7892 9.55796 82.2379 9.78515 81.8274 10.2396C81.417 10.694 81.2118 11.3692 81.2118 12.2654V17.4531C81.2118 17.592 81.1606 17.712 81.058 17.8129C80.9554 17.9138 80.8335 17.9643 80.6925 17.9643H79.9807C79.8396 17.9643 79.7178 17.9138 79.6152 17.8129C79.5126 17.712 79.4613 17.592 79.4613 17.4531V12.398C79.4613 10.5046 78.7047 9.55796 77.1913 9.55796C76.4988 9.55796 75.9473 9.78515 75.5369 10.2396C75.1267 10.694 74.9214 11.3692 74.9214 12.2654V17.4531C74.9214 17.592 74.8701 17.712 74.7675 17.8129C74.6648 17.9138 74.5431 17.9643 74.402 17.9643H73.6902C73.5491 17.9643 73.4274 17.9138 73.3247 17.8129C73.2222 17.712 73.1709 17.592 73.1709 17.4531V8.63022C73.1709 8.49137 73.2222 8.37147 73.3247 8.27049C73.4274 8.16951 73.5491 8.11902 73.6902 8.11902H74.402C74.5431 8.11902 74.6648 8.16951 74.7675 8.27049C74.8701 8.37147 74.9214 8.49137 74.9214 8.63022V9.21716Z" fill="white"/>
<path d="M92.891 21.1071C92.7756 21.4101 92.5896 21.5616 92.3332 21.5616H91.5444C91.4162 21.5616 91.3071 21.5174 91.2174 21.4291C91.1276 21.3407 91.0827 21.2334 91.0827 21.1071C91.0827 21.0567 91.0891 21.0125 91.1019 20.9746L92.9487 17.0175L89.1398 8.70583C89.127 8.66796 89.1206 8.62379 89.1206 8.5733C89.1206 8.44707 89.1655 8.33978 89.2552 8.25142C89.345 8.16307 89.454 8.1189 89.5823 8.1189H90.3709C90.6274 8.1189 90.8134 8.27036 90.9288 8.5733L93.8913 15.0106L96.8922 8.5733C97.0077 8.27036 97.1936 8.1189 97.4501 8.1189H98.2388C98.3671 8.1189 98.4761 8.16307 98.5659 8.25142C98.6556 8.33978 98.7005 8.44707 98.7005 8.5733C98.7005 8.62379 98.6942 8.66796 98.6813 8.70583L92.891 21.1071Z" fill="white"/>
<path d="M16.9827 11.7007L10.5233 0.740904C10.492 0.686787 10.4467 0.641707 10.392 0.610214C10.3372 0.578721 10.275 0.561928 10.2115 0.561531C10.148 0.561133 10.0856 0.577145 10.0304 0.60795C9.97527 0.638755 9.92941 0.683265 9.89744 0.736986L7.96292 4.02102C7.89957 4.12851 7.86621 4.25046 7.86621 4.37459C7.86621 4.49871 7.89957 4.62066 7.96292 4.72815L12.1749 11.878C12.2383 11.9856 12.3295 12.0749 12.4394 12.137C12.5492 12.1991 12.6739 12.2317 12.8007 12.2316H16.6698C16.7331 12.2314 16.7953 12.2149 16.85 12.1838C16.9049 12.1527 16.9504 12.1081 16.9821 12.0543C17.0137 12.0006 17.0305 11.9397 17.0306 11.8776C17.0306 11.8155 17.0142 11.7546 16.9827 11.7007Z" fill="white"/>
<path d="M0.0502967 17.4287L6.50967 6.46891C6.54136 6.41523 6.58693 6.37065 6.64177 6.33966C6.6966 6.30867 6.75878 6.29236 6.82209 6.29236C6.88539 6.29236 6.9476 6.30867 7.00244 6.33966C7.05728 6.37065 7.10282 6.41523 7.13451 6.46891L9.07004 9.75C9.13338 9.85768 9.16671 9.97978 9.16671 10.1041C9.16671 10.2283 9.13338 10.3504 9.07004 10.4581L4.85808 17.608C4.79491 17.7155 4.70387 17.8049 4.59416 17.867C4.48445 17.929 4.35994 17.9617 4.23324 17.9615H0.363218C0.299467 17.9619 0.23677 17.9456 0.181502 17.9145C0.126232 17.8833 0.0803704 17.8384 0.048576 17.7843C0.0167816 17.7302 0.000188962 17.6687 0.000492369 17.6063C0.000795776 17.5438 0.0179779 17.4826 0.0502967 17.4287Z" fill="white"/>
<path d="M7.13473 17.9592H20.0535C20.1169 17.9592 20.1791 17.9428 20.2339 17.9117C20.2888 17.8806 20.3343 17.8359 20.3659 17.7821C20.3975 17.7284 20.4142 17.6673 20.4141 17.6052C20.4139 17.5431 20.3972 17.4821 20.3654 17.4285L18.4328 14.1454C18.3694 14.0378 18.2782 13.9485 18.1683 13.8864C18.0585 13.8243 17.9338 13.7918 17.807 13.7919H9.38317C9.25633 13.7918 9.13172 13.8243 9.02185 13.8864C8.91199 13.9485 8.82073 14.0378 8.75732 14.1454L6.82282 17.4285C6.79104 17.4821 6.77427 17.5431 6.77417 17.6052C6.77409 17.6673 6.79067 17.7284 6.82228 17.7821C6.8539 17.8359 6.89943 17.8806 6.95428 17.9117C7.00913 17.9428 7.07135 17.9592 7.13473 17.9592Z" fill="white"/>
</svg>
