<svg width="112" height="22" viewBox="0 0 112 22" fill="none" xmlns="http://www.w3.org/2000/svg">
<path fill-rule="evenodd" clip-rule="evenodd" d="M19.3901 0.779053L21.4832 2.87215L14.4884 9.86696C14.1197 8.90676 13.3555 8.14258 12.3952 7.77387L19.3901 0.779053ZM9.78859 7.77387L2.79378 0.779053L0.700684 2.87215L7.6955 9.86696C8.06421 8.90676 8.82839 8.14258 9.78859 7.77387ZM7.6955 12.4736L0.700684 19.4684L2.79378 21.5615L9.78859 14.5667C8.82839 14.198 8.06421 13.4339 7.6955 12.4736ZM12.3952 14.5667L19.3901 21.5615L21.4832 19.4684L14.4884 12.4736C14.1197 13.4339 13.3555 14.198 12.3952 14.5667Z" fill="white"/>
<path d="M40.5164 17.9241C40.3876 17.9241 40.304 17.8597 40.2654 17.7308L39.6274 15.6632C39.6017 15.6116 39.5696 15.5859 39.531 15.5859H34.4294C34.3907 15.5859 34.3585 15.6116 34.3328 15.6632L33.6951 17.7308C33.6564 17.8597 33.5727 17.9241 33.4438 17.9241H31.5114C31.4342 17.9241 31.3762 17.9047 31.3375 17.8661C31.2989 17.8146 31.2924 17.7437 31.3182 17.6535L35.5115 4.59046C35.5502 4.46162 35.6339 4.39722 35.7627 4.39722H38.1781C38.307 4.39722 38.3909 4.46162 38.4296 4.59046L42.6419 17.6535C42.6548 17.6793 42.6615 17.7115 42.6615 17.7501C42.6615 17.8661 42.5904 17.9241 42.4487 17.9241H40.5164ZM34.9318 13.7114C34.9189 13.7887 34.9447 13.8273 35.0091 13.8273H38.932C39.0093 13.8273 39.0351 13.7887 39.0093 13.7114L37.0188 7.23787C37.0059 7.18633 36.9866 7.16056 36.9608 7.16056C36.9351 7.16056 36.9157 7.18633 36.9029 7.23787L34.9318 13.7114Z" fill="white"/>
<path d="M50.9687 18.0787C50.0024 18.0787 49.1525 17.8919 48.4181 17.5183C47.6837 17.1318 47.1167 16.5972 46.7173 15.9144C46.3179 15.2316 46.1184 14.4393 46.1184 13.5375V8.76451C46.1184 7.86272 46.3179 7.07042 46.7173 6.38763C47.1167 5.70485 47.6837 5.17667 48.4181 4.80306C49.1525 4.42947 50.0024 4.24268 50.9687 4.24268C51.9222 4.24268 52.7659 4.42304 53.5003 4.78374C54.2343 5.14446 54.8012 5.65335 55.2006 6.31037C55.6001 6.96738 55.7996 7.72744 55.7996 8.59061C55.7996 8.65499 55.7738 8.71297 55.7223 8.76451C55.6836 8.80316 55.6325 8.82249 55.568 8.82249L53.79 8.91912C53.6354 8.91912 53.5581 8.84825 53.5581 8.70653C53.5581 7.94647 53.3199 7.33451 52.8432 6.87075C52.3794 6.40696 51.7547 6.17508 50.9687 6.17508C50.1828 6.17508 49.5515 6.40696 49.0751 6.87075C48.5984 7.33451 48.3599 7.94647 48.3599 8.70653V13.6342C48.3599 14.3814 48.5984 14.9869 49.0751 15.4506C49.5515 15.9144 50.1828 16.1463 50.9687 16.1463C51.7547 16.1463 52.3794 15.9209 52.8432 15.4699C53.3199 15.0062 53.5581 14.3943 53.5581 13.6342C53.5581 13.4924 53.6354 13.4216 53.79 13.4216L55.568 13.4989C55.6325 13.4989 55.6836 13.5182 55.7223 13.5569C55.7738 13.5955 55.7996 13.6406 55.7996 13.6922C55.7996 14.5682 55.6001 15.3411 55.2006 16.011C54.8012 16.6681 54.2343 17.1769 53.5003 17.5376C52.7659 17.8984 51.9222 18.0787 50.9687 18.0787Z" fill="white"/>
<path d="M67.9234 17.9241C67.7946 17.9241 67.7044 17.8661 67.6528 17.7501L65.1021 12.1848C65.0764 12.1333 65.0377 12.1075 64.9862 12.1075H62.6674C62.603 12.1075 62.5706 12.1397 62.5706 12.2041V17.6922C62.5706 17.7566 62.5448 17.8146 62.4933 17.8661C62.4546 17.9047 62.4031 17.9241 62.3387 17.9241H60.561C60.4966 17.9241 60.4384 17.9047 60.3869 17.8661C60.3482 17.8146 60.3291 17.7566 60.3291 17.6922V4.62911C60.3291 4.56469 60.3482 4.51316 60.3869 4.4745C60.4384 4.42298 60.4966 4.39722 60.561 4.39722H65.8752C66.6611 4.39722 67.3565 4.56469 67.9621 4.89964C68.5676 5.22171 69.0377 5.68551 69.3727 6.29099C69.7077 6.88359 69.8752 7.56637 69.8752 8.33931C69.8752 9.22825 69.6433 9.98831 69.1794 10.6196C68.7285 11.2379 68.0975 11.6695 67.2858 11.9143C67.2601 11.9143 67.2405 11.9272 67.2277 11.9529C67.2148 11.9787 67.2148 12.0045 67.2277 12.0302L69.9525 17.6535C69.9782 17.705 69.9911 17.7437 69.9911 17.7695C69.9911 17.8725 69.9205 17.9241 69.7787 17.9241H67.9234ZM62.6674 6.32964C62.603 6.32964 62.5706 6.36181 62.5706 6.42624V10.2717C62.5706 10.3361 62.603 10.3684 62.6674 10.3684H65.566C66.1844 10.3684 66.6803 10.188 67.0539 9.82729C67.4404 9.45369 67.6337 8.96412 67.6337 8.35864C67.6337 7.75316 67.4404 7.26363 67.0539 6.89003C66.6803 6.51642 66.1844 6.32964 65.566 6.32964H62.6674Z" fill="white"/>
<path d="M78.8857 18.1174C77.9194 18.1174 77.0627 17.9241 76.3155 17.5376C75.5686 17.1383 74.9888 16.5779 74.5765 15.8564C74.1771 15.135 73.9775 14.3041 73.9775 13.3636V8.95773C73.9775 8.03018 74.1833 7.21215 74.5956 6.50359C75.0079 5.78215 75.5814 5.22821 76.3155 4.84172C77.0627 4.44236 77.9194 4.24268 78.8857 4.24268C79.8649 4.24268 80.7215 4.44236 81.4559 4.84172C82.2028 5.22821 82.7826 5.78215 83.1949 6.50359C83.6072 7.21215 83.8133 8.03018 83.8133 8.95773V13.3636C83.8133 14.3041 83.6072 15.135 83.1949 15.8564C82.7826 16.5779 82.2028 17.1383 81.4559 17.5376C80.7215 17.9241 79.8649 18.1174 78.8857 18.1174ZM78.8857 16.1849C79.6974 16.1849 80.3478 15.9337 80.8374 15.4313C81.327 14.9289 81.5718 14.2654 81.5718 13.4409V8.93841C81.5718 8.10105 81.327 7.43114 80.8374 6.92873C80.3478 6.42629 79.6974 6.17508 78.8857 6.17508C78.0869 6.17508 77.4426 6.42629 76.9534 6.92873C76.4638 7.43114 76.219 8.10105 76.219 8.93841V13.4409C76.219 14.2654 76.4638 14.9289 76.9534 15.4313C77.4426 15.9337 78.0869 16.1849 78.8857 16.1849Z" fill="white"/>
<path d="M92.8003 18.0787C91.7953 18.0787 90.9192 17.9177 90.1719 17.5956C89.425 17.2735 88.8452 16.8226 88.4329 16.2429C88.0335 15.6632 87.834 14.9804 87.834 14.1946V13.7115C87.834 13.6471 87.8531 13.5955 87.8918 13.5569C87.9433 13.5053 88.0015 13.4796 88.0659 13.4796H89.7858C89.8502 13.4796 89.9017 13.5053 89.94 13.5569C89.9915 13.5955 90.0173 13.6471 90.0173 13.7115V14.0786C90.0173 14.6712 90.2816 15.1672 90.8099 15.5666C91.3381 15.9531 92.0593 16.1463 92.974 16.1463C93.76 16.1463 94.3526 15.9788 94.7521 15.6439C95.1511 15.3089 95.351 14.8773 95.351 14.3492C95.351 13.9885 95.2413 13.6857 95.0223 13.4409C94.8032 13.1833 94.4877 12.9514 94.0754 12.7453C93.676 12.5391 93.0709 12.2815 92.2592 11.9723C91.3444 11.6373 90.6037 11.3217 90.0368 11.0254C89.4699 10.7291 88.9932 10.3297 88.6067 9.82734C88.2334 9.31201 88.0464 8.67432 88.0464 7.91426C88.0464 6.78056 88.4587 5.88522 89.2833 5.2282C90.1075 4.57119 91.2093 4.24268 92.5875 4.24268C93.5538 4.24268 94.4042 4.41015 95.1382 4.74509C95.8855 5.08004 96.4653 5.55027 96.8776 6.15576C97.2899 6.74835 97.496 7.43758 97.496 8.22344V8.55195C97.496 8.61634 97.4703 8.67432 97.4187 8.72585C97.3801 8.76451 97.3285 8.78383 97.2641 8.78383H95.5247C95.4603 8.78383 95.4025 8.76451 95.351 8.72585C95.3123 8.67432 95.2928 8.61634 95.2928 8.55195V8.33937C95.2928 7.73388 95.0418 7.22503 94.5393 6.81277C94.0497 6.38763 93.3668 6.17508 92.4911 6.17508C91.7824 6.17508 91.2284 6.32325 90.829 6.61955C90.4425 6.91585 90.2492 7.33451 90.2492 7.87561C90.2492 8.2621 90.3523 8.57772 90.5584 8.82249C90.7646 9.06725 91.0738 9.29268 91.4861 9.49883C91.8984 9.69206 92.536 9.94326 93.3992 10.2524C94.314 10.6003 95.0418 10.9159 95.5829 11.1993C96.1369 11.4828 96.607 11.8821 96.9935 12.3974C97.3929 12.8998 97.5925 13.5311 97.5925 14.2912C97.5925 15.4506 97.161 16.3717 96.2978 17.0545C95.4474 17.7373 94.2816 18.0787 92.8003 18.0787Z" fill="white"/>
<path d="M106.344 18.0787C105.34 18.0787 104.463 17.9177 103.716 17.5956C102.969 17.2735 102.389 16.8226 101.977 16.2429C101.578 15.6632 101.378 14.9804 101.378 14.1946V13.7115C101.378 13.6471 101.397 13.5955 101.436 13.5569C101.488 13.5053 101.545 13.4796 101.61 13.4796H103.33C103.394 13.4796 103.446 13.5053 103.484 13.5569C103.536 13.5955 103.561 13.6471 103.561 13.7115V14.0786C103.561 14.6712 103.826 15.1672 104.354 15.5666C104.882 15.9531 105.603 16.1463 106.518 16.1463C107.304 16.1463 107.896 15.9788 108.296 15.6439C108.695 15.3089 108.895 14.8773 108.895 14.3492C108.895 13.9885 108.785 13.6857 108.566 13.4409C108.347 13.1833 108.032 12.9514 107.62 12.7453C107.22 12.5391 106.615 12.2815 105.803 11.9723C104.889 11.6373 104.148 11.3217 103.581 11.0254C103.014 10.7291 102.537 10.3297 102.151 9.82734C101.777 9.31201 101.591 8.67432 101.591 7.91426C101.591 6.78056 102.003 5.88522 102.827 5.2282C103.652 4.57119 104.753 4.24268 106.132 4.24268C107.098 4.24268 107.948 4.41015 108.682 4.74509C109.43 5.08004 110.009 5.55027 110.422 6.15576C110.834 6.74835 111.04 7.43758 111.04 8.22344V8.55195C111.04 8.61634 111.014 8.67432 110.963 8.72585C110.924 8.76451 110.873 8.78383 110.808 8.78383H109.069C109.005 8.78383 108.947 8.76451 108.895 8.72585C108.857 8.67432 108.837 8.61634 108.837 8.55195V8.33937C108.837 7.73388 108.586 7.22503 108.083 6.81277C107.594 6.38763 106.911 6.17508 106.035 6.17508C105.327 6.17508 104.773 6.32325 104.373 6.61955C103.987 6.91585 103.793 7.33451 103.793 7.87561C103.793 8.2621 103.896 8.57772 104.103 8.82249C104.309 9.06725 104.618 9.29268 105.03 9.49883C105.443 9.69206 106.08 9.94326 106.943 10.2524C107.858 10.6003 108.586 10.9159 109.127 11.1993C109.681 11.4828 110.151 11.8821 110.538 12.3974C110.937 12.8998 111.137 13.5311 111.137 14.2912C111.137 15.4506 110.705 16.3717 109.842 17.0545C108.992 17.7373 107.826 18.0787 106.344 18.0787Z" fill="white"/>
</svg>
