<svg width="236" height="37" viewBox="0 0 236 37" fill="none" xmlns="http://www.w3.org/2000/svg">
<g clip-path="url(#clip0_578_45)">
<g clip-path="url(#clip1_578_45)">
<g clip-path="url(#clip2_578_45)">
<mask id="mask0_578_45" style="mask-type:luminance" maskUnits="userSpaceOnUse" x="0" y="-1" width="236" height="38">
<path d="M235.059 -0.00268555H0V36.9973H235.059V-0.00268555Z" fill="white"/>
</mask>
<g mask="url(#mask0_578_45)">
<path d="M41.4846 15.5765C41.4846 29.5326 33.0989 34.0116 28.6517 30.0519C25.0305 26.8064 23.9505 19.9257 18.487 19.2116C11.5623 18.3678 10.9271 27.7801 6.35294 27.7801C1.01647 27.7801 0 19.9257 0 15.8362C0 11.6818 1.14353 6.03442 5.65412 6.03442C10.9271 6.03442 11.2447 14.1485 17.8518 13.6941C24.3952 13.2397 24.5223 4.8011 28.8424 1.23091C32.5907 -1.94979 41.4846 1.42565 41.4846 15.5765Z" fill="white"/>
<path d="M61.1792 28.5584V1.48999H63.7204V13.2391H79.2217V1.48999H81.6992V28.6233H79.2217V15.4461H63.7204V28.6233H61.1792V28.5584Z" fill="white"/>
<path d="M88.3065 36.802L91.7371 28.1037L84.3042 9.86339H86.9088L91.8006 22.1968C92.0548 22.9758 92.4995 23.9493 93.0077 25.1827C93.0712 24.9879 93.1348 24.7931 93.2619 24.5985C93.3252 24.4037 93.3888 24.2089 93.5159 24.0144C93.643 23.6896 93.8337 23.3651 93.897 23.0406C93.9605 22.7161 94.0876 22.4564 94.2148 22.1317L98.7888 9.79846H101.267L90.8478 36.7371H88.3065V36.802Z" fill="white"/>
<path d="M103.68 36.8037V9.86513H106.03V11.0335C106.03 11.2932 106.03 11.4879 106.03 11.7476C106.03 12.0072 106.03 12.2669 106.03 12.5265C106.03 12.6563 106.03 12.7862 106.03 12.916C106.03 13.0458 106.03 13.1757 106.03 13.3055C106.666 12.1371 107.492 11.1634 108.699 10.4493C109.842 9.7353 111.113 9.34583 112.574 9.34583C114.289 9.34583 115.75 9.80021 117.021 10.6441C118.291 11.4879 119.244 12.6563 119.943 14.1493C120.642 15.6423 120.96 17.33 120.96 19.2125C120.96 21.1599 120.642 22.8475 119.943 24.3406C119.244 25.8334 118.228 27.002 117.021 27.9107C115.75 28.7547 114.289 29.2089 112.701 29.2089C111.303 29.2089 110.096 28.8844 108.889 28.1703C107.746 27.5213 106.856 26.4827 106.157 25.1844C106.157 25.3792 106.157 25.574 106.157 25.8334C106.157 26.0282 106.157 26.223 106.157 26.4178C106.157 26.5475 106.157 26.7423 106.157 26.872C106.157 27.002 106.157 27.1317 106.157 27.2616V36.8686H103.68V36.8037ZM112.193 27.1968C113.463 27.1968 114.543 26.872 115.496 26.1582C116.449 25.4441 117.148 24.5354 117.72 23.302C118.228 22.0686 118.482 20.7055 118.482 19.1476C118.482 17.5897 118.228 16.2265 117.72 15.0581C117.211 13.8897 116.449 12.916 115.496 12.2669C114.543 11.6178 113.463 11.2932 112.193 11.2932C110.986 11.2932 109.906 11.6178 108.953 12.2669C108 12.916 107.237 13.8248 106.729 15.0581C106.221 16.2265 105.903 17.6546 105.903 19.2125C105.903 20.7704 106.157 22.1985 106.729 23.3668C107.237 24.6002 108 25.5089 108.953 26.223C109.906 26.9371 110.986 27.1968 112.193 27.1968Z" fill="white"/>
<path d="M132.206 29.1432C130.49 29.1432 128.966 28.7536 127.631 27.9746C126.297 27.1957 125.281 26.0273 124.582 24.5343C123.883 23.0412 123.502 21.2238 123.502 19.1466C123.502 17.2641 123.883 15.5764 124.645 14.0834C125.408 12.5904 126.424 11.422 127.695 10.5781C128.966 9.73429 130.427 9.27991 132.015 9.27991C133.73 9.27991 135.192 9.66936 136.462 10.5132C137.669 11.2922 138.622 12.4607 139.257 13.8887C139.893 15.3817 140.21 17.0694 140.21 19.0167V19.536H125.853C125.853 21.1588 126.107 22.5221 126.679 23.6905C127.25 24.8588 127.949 25.7026 128.902 26.287C129.855 26.8712 130.999 27.1957 132.206 27.1957C133.667 27.1957 134.874 26.8712 135.89 26.1571C136.843 25.443 137.479 24.3395 137.669 22.9115H140.02C139.829 24.0798 139.448 25.1833 138.749 26.0922C138.114 27.0009 137.224 27.7798 136.081 28.2991C135.064 28.8185 133.73 29.1432 132.206 29.1432ZM137.669 17.7185C137.669 15.7711 137.161 14.2132 136.144 13.0448C135.128 11.8764 133.794 11.2922 132.015 11.2922C130.3 11.2922 128.902 11.8764 127.822 13.1097C126.742 14.3431 126.107 15.836 125.916 17.7185H137.669Z" fill="white"/>
<path d="M143.83 28.5599V9.86513H146.181V11.0984C146.181 11.2932 146.181 11.4879 146.181 11.6827C146.181 11.8774 146.181 12.0721 146.181 12.2669C146.181 12.4616 146.181 12.7213 146.181 12.916C146.181 13.1107 146.181 13.3704 146.181 13.63C146.689 12.3967 147.452 11.3581 148.595 10.5792C149.675 9.80021 150.946 9.34583 152.407 9.34583C152.788 9.34583 153.106 9.34583 153.423 9.41075V11.7476C152.978 11.6827 152.597 11.6827 152.28 11.6827C151.073 11.6827 149.993 11.9423 149.103 12.5265C148.214 13.1107 147.515 13.8897 147.007 14.9283C146.498 15.9669 146.244 17.2002 146.244 18.5634V28.6248H143.83V28.5599Z" fill="white"/>
<path d="M159.267 28.0404L159.14 28.5597H151.707L151.834 28.0404C153.867 27.8458 154.756 27.1965 155.074 25.6386L159.267 5.45094C159.712 3.37376 159.077 3.04921 156.916 3.50359L157.044 2.98428L161.618 1.42639H162.126L157.107 25.7037C156.726 27.1965 157.298 27.8458 159.267 28.0404Z" fill="white"/>
<path d="M167.717 28.0389L167.59 28.5582H160.093L160.22 28.0389C162.253 27.8441 163.143 27.1951 163.46 25.6372L166.002 13.3038C166.446 11.2266 165.875 10.9021 163.651 11.3565L163.778 10.8372L168.352 9.27927H168.86L165.493 25.6372C165.176 27.1951 165.748 27.8441 167.717 28.0389ZM168.987 2.4635C170.004 2.4635 170.639 3.24246 170.512 4.28105C170.385 5.31966 169.496 6.0337 168.543 6.0337C167.526 6.0337 166.827 5.25474 166.955 4.28105C167.018 3.24246 167.907 2.4635 168.987 2.4635Z" fill="white"/>
<path d="M180.55 34.0115L182.583 24.3395C181.313 27.1957 178.581 29.1432 175.786 29.1432C171.212 29.1432 169.052 24.7291 170.449 18.1729C171.402 13.3694 175.595 9.27991 180.55 9.27991C182.838 9.27991 184.743 10.3185 185.506 11.8764L187.221 9.27991H187.729L182.52 34.0115C182.139 35.6991 183.473 36.0237 184.807 36.2835L184.68 36.8028H176.103L176.23 36.2835C178.772 36.0237 180.233 35.6991 180.55 34.0115ZM177.056 27.7798C179.407 27.7798 181.758 25.7026 182.901 23.236L184.426 15.8361C184.807 13.1747 183.6 10.3834 179.979 10.3834C176.548 10.3834 173.626 13.5641 172.673 18.1729C171.529 23.8204 173.181 27.7798 177.056 27.7798Z" fill="white"/>
<path d="M213.329 28.0389L213.202 28.5582H205.706L205.833 28.0389C207.866 27.8441 208.755 27.1951 209.073 25.6372L211.614 13.3038C212.059 11.2266 211.487 10.9021 209.263 11.3565L209.391 10.8372L213.965 9.27927H214.473L211.106 25.6372C210.788 27.1951 211.36 27.8441 213.329 28.0389ZM214.6 2.4635C215.616 2.4635 216.252 3.24246 216.125 4.28105C215.997 5.31966 215.108 6.0337 214.155 6.0337C213.139 6.0337 212.44 5.25474 212.567 4.28105C212.694 3.24246 213.583 2.4635 214.6 2.4635Z" fill="white"/>
<path d="M202.723 25.5729L204.438 17.329L206.09 9.27991H205.582L201.008 10.8378L200.881 11.3571C203.041 10.9027 203.612 11.2273 203.231 13.3045L201.071 23.8202C198.657 26.0922 197.006 27.4553 194.909 27.4553C192.368 27.4553 191.034 25.7028 191.669 22.6519L194.464 9.27991H193.956L189.382 10.8378L189.255 11.3571C191.415 10.9027 192.05 11.2273 191.605 13.3045L189.636 22.9115C188.874 26.4816 190.652 29.0781 193.893 29.0781C196.052 29.0781 197.958 27.8449 200.944 24.5994L200.817 25.2484L200.182 28.4291H204.947L205.074 27.8449C202.977 27.7801 202.405 27.1957 202.723 25.5729Z" fill="white"/>
<path d="M233.28 8.56575L234.743 1.36047H234.233L229.658 2.91838L229.532 3.43766C231.693 2.98328 232.264 3.30783 231.883 5.38504L230.612 11.5517C229.787 10.1886 228.009 9.27981 225.976 9.27981C220.957 9.27981 216.827 13.3693 215.747 18.4973C214.476 24.7289 216.572 29.143 221.146 29.143C224.006 29.143 226.738 27.1306 228.009 24.2746L227.691 25.8974L227.119 28.5588L231.883 28.4939L232.009 27.9746C230.042 27.7798 229.469 27.1306 229.787 25.5729L233.28 8.56575ZM228.198 23.1709C227.119 25.7026 224.705 27.7798 222.354 27.7798C218.478 27.7798 216.827 23.8202 217.906 18.4973C218.924 13.4991 221.908 10.3833 225.34 10.3833C229.025 10.3833 230.231 13.3693 229.724 16.0307L229.532 16.8745L228.198 23.1709Z" fill="white"/>
</g>
</g>
</g>
</g>
<defs>
<clipPath id="clip0_578_45">
<rect width="235.059" height="37" fill="white"/>
</clipPath>
<clipPath id="clip1_578_45">
<rect width="235.059" height="37" fill="white" transform="translate(0 -0.000488281)"/>
</clipPath>
<clipPath id="clip2_578_45">
<rect width="235.059" height="37" fill="white" transform="translate(0 -0.000976562)"/>
</clipPath>
</defs>
</svg>
