<svg width="111" height="43" viewBox="0 0 111 43" fill="none" xmlns="http://www.w3.org/2000/svg">
<path d="M82.3868 5.60352C82.7384 5.60352 83.0233 5.88847 83.0233 6.23996V38.6766C83.0233 39.0282 82.7384 39.3131 82.3868 39.3131H76.6603C76.309 39.3131 76.0239 39.0282 76.0239 38.6766V6.23996C76.0239 5.88847 76.309 5.60352 76.6603 5.60352H82.3868Z" fill="white"/>
<path d="M72.5851 14.0327C72.9366 14.0327 73.2215 14.3176 73.2215 14.6692V38.6779C73.2215 39.0295 72.9366 39.3144 72.5851 39.3144H66.8588C66.5073 39.3144 66.2222 39.0295 66.2222 38.6779V14.6692C66.2222 14.3176 66.5073 14.0327 66.8586 14.0327H72.5851Z" fill="white"/>
<path d="M90.0626 14.0327C87.7194 14.0327 85.8196 15.9323 85.8196 18.2757V38.6779C85.8196 39.0295 86.1045 39.3144 86.4561 39.3144H92.1825C92.5341 39.3144 92.819 39.0295 92.819 38.6779V22.116C92.819 21.5303 93.294 21.0554 93.8797 21.0554H98.7506C99.3364 21.0554 99.8114 21.5303 99.8114 22.116V38.6779C99.8114 39.0295 100.096 39.3144 100.448 39.3144H106.174C106.526 39.3144 106.811 39.0295 106.811 38.6779V18.2757C106.811 15.9323 104.911 14.0327 102.568 14.0327H90.0626Z" fill="white"/>
<path d="M69.7225 3.76465C67.5979 3.76465 65.8729 5.48771 65.8729 7.61408C65.8729 9.74046 67.5979 11.4635 69.7225 11.4635C71.8472 11.4635 73.5722 9.74046 73.5722 7.61408C73.5722 5.48771 71.8472 3.76465 69.7225 3.76465Z" fill="white"/>
<path d="M7.22794 18.4647C7.47677 18.2159 7.88034 18.2162 8.12876 18.4655L20.1048 30.4812C20.3535 30.7307 20.7576 30.7307 21.0063 30.4812L32.982 18.4658C33.2304 18.2166 33.6339 18.2162 33.8828 18.4651L36.6053 21.1875C37.5994 22.1818 37.5994 23.7935 36.6053 24.7878L22.3553 39.0377C21.3612 40.0319 19.7493 40.0319 18.7551 39.0377L4.50516 24.7878C3.51098 23.7935 3.51098 22.1818 4.50516 21.1875L7.22794 18.4647Z" fill="white"/>
<path d="M15.0687 20.5488C14.82 20.7983 14.4159 20.7983 14.1671 20.5488L10.1111 16.4792C9.86323 16.2306 9.86357 15.8282 10.1118 15.5799L18.7552 6.93656C19.7494 5.94237 21.3613 5.94237 22.3555 6.93656L30.999 15.5803C31.2475 15.8285 31.2477 16.2309 30.9999 16.4796L26.9441 20.5488C26.6954 20.7983 26.2913 20.7983 26.0426 20.5488L21.0064 15.4959C20.7577 15.2464 20.3535 15.2464 20.1048 15.4959L15.0687 20.5488Z" fill="white"/>
<path d="M57.3905 26.8914C57.2995 26.7542 57.2958 26.5768 57.3816 26.4362L64.3436 14.9967C64.6018 14.5726 64.2965 14.0293 63.8001 14.0293L57.589 14.0258C57.3669 14.0257 57.162 14.1394 57.0464 14.3291C55.4985 16.8706 53.9698 19.4247 52.398 21.9514C51.9472 22.6763 50.829 22.3557 50.829 21.5023V7.29522C50.829 6.94373 50.546 6.6626 50.1944 6.6626H44.465C44.1134 6.6626 43.8296 6.94242 43.8296 7.29391V38.6894C43.8296 39.0409 44.1145 39.3146 44.466 39.3146H50.1925C50.5438 39.3146 50.829 39.0297 50.829 38.6781V31.4267C50.829 30.5722 51.9504 30.2533 52.4056 30.9763C54.1213 33.7016 55.9651 36.3519 57.7469 39.0341C57.8648 39.2117 58.0638 39.3184 58.277 39.3184H64.4548C64.9624 39.3184 65.2658 38.753 64.9851 38.33C62.4544 34.5166 59.9224 30.7041 57.3905 26.8914Z" fill="white"/>
</svg>
