<svg width="336" height="469" viewBox="0 0 336 469" fill="none" xmlns="http://www.w3.org/2000/svg">
<rect width="336" height="469" rx="36" fill="#2B2B2B"/>
<g clip-path="url(#clip0_576_25828)">
<rect x="19.2852" y="175.949" width="253.437" height="159.628" rx="11.8232" transform="rotate(-20.4016 19.2852 175.949)" fill="#323232"/>
<path d="M50.4137 177.392C46.2681 177.458 43.2154 181.242 44.7962 185.871C43.9384 187.606 43.3906 188.486 42.3402 189.865C40.948 191.742 40.6779 192.109 39.8429 193.933C38.7612 196.296 40.2259 199.03 42.2851 198.934L49.4026 196.287C49.2376 195.986 48.9159 195.799 48.5964 195.917L42.1892 198.3C40.3986 198.374 39.5583 195.659 40.8504 193.353L42.4361 197.617L46.4049 196.141C46.1937 195.943 45.8123 195.765 45.4358 195.905L44.6898 196.183C45.1903 195.442 45.3902 195.014 45.4879 194.21C45.5332 193.838 45.4813 193.028 45.3805 192.252L45.6008 192.746C47.3094 191.971 48.1239 191.403 49.2817 190.104L47.9096 188.919L48.3892 188.741L55.0262 194.195L57.4463 193.295C57.3513 193.12 56.9911 192.712 56.4893 192.899L55.5923 193.232C54.8328 192.214 54.4448 191.53 53.753 190.312L53.7523 190.31C53.7178 190.25 53.6816 190.188 53.6455 190.124C52.4383 188.058 51.4777 187.309 49.55 186.281C43.1923 183.331 45.9709 178.138 50.4137 177.392ZM50.7775 177.583C48.9227 177.736 47.0257 178.993 46.6738 180.674C46.2771 182.57 47.0208 183.689 48.2155 184.548C49.2953 185.324 50.6755 185.873 51.435 186.374C52.8952 187.339 53.3978 188.144 53.9176 189.483C54.1878 188.177 54.2618 187.488 54.1638 186.817C53.7857 184.857 52.891 184.028 50.8862 183.154C49.9824 182.796 49.5213 182.523 48.8442 181.806C47.4987 180.276 48.0398 178.336 50.7775 177.583ZM51.3614 177.834C50.4948 177.684 49.7907 178.478 49.6248 178.751C48.7407 178.421 48.4352 179.392 48.8639 179.87C48.7232 180.429 49.0138 181.759 51.3003 182.614C53.5871 183.469 54.5204 185.249 54.7011 186.032C54.6699 185.655 54.5128 184.707 54.1351 183.93C53.7896 183.219 53.3455 182.856 52.9846 182.56C52.8525 182.451 52.7313 182.352 52.6304 182.249C52.329 181.939 52.2814 181.616 52.2951 181.493C52.2997 181.332 52.3685 180.974 52.6068 180.824C52.8453 180.674 53.2206 180.643 53.3784 180.646C53.886 180.632 54.0952 180.406 54.1364 180.294C54.1845 180.211 54.2545 179.973 54.15 179.692C54.0533 179.432 54.0211 179.506 53.9978 179.56C53.9959 179.565 53.9937 179.569 53.992 179.573C53.9884 179.581 53.9841 179.591 53.9791 179.603C53.9538 179.664 53.9074 179.776 53.8021 179.92C53.6761 180.091 53.4627 180.023 53.3719 179.953C53.4047 179.961 53.5116 179.942 53.6464 179.82C53.7814 179.698 53.9303 179.377 53.9822 179.241C53.9458 179.122 53.9185 179.024 53.896 178.945C53.8309 178.716 53.8088 178.637 53.7457 178.628C53.3638 178.571 53.3405 178.492 53.3969 178.466C53.9357 178.194 53.7157 178.137 53.5319 178.134C53.0637 178.108 52.8352 178.07 52.3876 177.996C52.1393 177.955 51.8235 177.902 51.3614 177.834ZM51.3777 178.452C51.5324 178.231 51.8597 178.41 52.0139 178.504C51.8494 178.505 51.5525 178.562 51.4611 178.676C51.323 178.849 51.2253 178.848 51.1776 178.824C51.02 178.74 50.8779 178.779 50.8212 178.802C50.8468 178.79 50.8754 178.779 50.9053 178.767C51.0583 178.706 51.2555 178.627 51.3777 178.452ZM48.9674 179.123C49.046 178.942 49.2723 178.88 49.4324 178.995C49.3321 179.095 49.1603 179.356 49.0657 179.575C48.9329 179.492 48.8812 179.324 48.9437 179.18L48.9674 179.123Z" fill="#E1E1E1"/>
<path d="M63.2881 187.578L63.1552 187.22C64.2588 186.778 64.3315 186.595 63.8609 185.33L61.3649 178.619C60.8943 177.353 60.7006 177.253 59.5953 177.649L59.4623 177.291L63.6017 175.752C65.1694 175.169 66.4854 174.961 67.486 175.168C69.1543 175.487 70.3019 176.594 71.064 178.643C71.8926 180.871 71.7606 182.705 70.6494 184.01C69.9809 184.822 68.8715 185.501 67.2625 186.1L63.2881 187.578ZM66.1653 186.054L67.1417 185.69C68.3243 185.251 69.1866 184.539 69.5254 183.724C69.9643 182.715 69.8548 181.284 69.2257 179.593C68.6528 178.053 67.9395 177.019 67.0311 176.386C66.1226 175.753 64.9189 175.716 63.4612 176.258L62.6361 176.565L66.1653 186.054Z" fill="#E1E1E1"/>
<path d="M74.3843 183.451L74.2513 183.093C75.355 182.651 75.4276 182.468 74.9571 181.203L72.4611 174.492C71.9905 173.226 71.7967 173.126 70.6915 173.522L70.5585 173.164L78.1083 170.356L79.4453 173.193L78.9691 173.386C77.9694 171.582 77.0052 171.22 75.0662 171.942L73.7185 172.443L75.3245 176.761L76.3147 176.393C77.7999 175.84 78.05 175.419 77.7205 174.07L78.1606 173.906L79.4955 177.495L79.0555 177.659C78.3943 176.386 77.9482 176.239 76.463 176.792L75.4729 177.16L77.2477 181.932L78.7604 181.369C80.6169 180.679 81.1211 179.677 80.722 177.383L81.1963 177.27L82.0992 180.581L74.3843 183.451Z" fill="#E1E1E1"/>
<path d="M87.0453 172.323L90.7111 175.108C91.8936 176.015 92.4151 176.197 93.2863 176.014L93.4193 176.371L88.9774 178.023L88.8444 177.666C89.563 177.367 89.7508 177.156 89.6331 176.84C89.628 176.826 89.6229 176.812 89.6178 176.799C89.5273 176.598 89.2242 176.288 88.6569 175.857L86.1874 173.973L85.5084 176.777C85.3452 177.433 85.3147 177.898 85.4273 178.201C85.5807 178.613 85.9309 178.671 86.8228 178.417L86.9558 178.775L83.3115 180.13L83.1785 179.773C83.9368 179.413 84.4646 178.559 84.8326 177.107L85.7007 173.591L82.3023 171.019C81.0581 170.073 80.6258 169.921 79.7974 170.135L79.6645 169.777L84.0926 168.13L84.2256 168.488C83.5207 168.781 83.2917 169.008 83.4042 169.31C83.481 169.516 83.8269 169.857 84.4422 170.333L86.5929 171.991L87.206 169.43C87.3484 168.845 87.3705 168.273 87.2733 168.012C87.1352 167.641 86.8177 167.587 85.9721 167.838L85.8391 167.481L89.4697 166.131L89.6026 166.488C88.6982 166.918 88.1963 167.716 87.7848 169.387L87.0453 172.323Z" fill="#E1E1E1"/>
<path d="M95.4251 171.665L95.4287 172.853C95.4168 173.452 95.4791 173.914 95.5968 174.231C95.7962 174.767 96.2733 174.871 97.1912 174.561L97.3242 174.919L93.7899 176.233L93.6569 175.876C94.5457 175.529 94.8413 174.809 94.8566 172.956L94.9011 164.111L95.8778 163.622L102.011 170.937C102.644 171.672 103.069 172.015 103.447 172.062C103.624 172.075 103.758 172.056 104.232 171.942L104.365 172.3L99.8821 173.967L99.7491 173.61C100.605 173.26 100.855 172.964 100.686 172.51C100.681 172.496 100.676 172.482 100.671 172.469C100.575 172.254 100.379 171.935 100.127 171.638L99.0419 170.319L95.4251 171.665ZM98.6636 169.849L95.4336 165.963L95.4181 171.057L98.6636 169.849Z" fill="#E1E1E1"/>
<path d="M106.274 166.064L107.42 169.144C107.885 170.396 108.041 170.479 109.184 170.101L109.317 170.458L105.054 172.044L104.921 171.686C106.034 171.225 106.098 171.061 105.632 169.809L103.131 163.085C102.666 161.833 102.51 161.75 101.416 162.094L101.284 161.737L105.492 160.172C106.647 159.742 107.666 159.535 108.313 159.592C109.333 159.682 109.977 160.194 110.356 161.212C110.974 162.876 110.265 164.126 108.154 165.099L108.195 165.209C108.941 165.025 109.517 165.061 110.171 165.303C110.768 165.52 111.16 165.859 112.393 167.154C113.395 168.206 113.726 168.38 114.393 168.195L114.516 168.525L111.807 169.532C110.444 167.847 109.681 166.973 108.995 166.351C108.238 165.662 107.704 165.532 106.824 165.859L106.274 166.064ZM106.126 165.665L106.869 165.389C108.505 164.78 109.078 163.628 108.505 162.088C107.933 160.547 106.878 160.11 105.241 160.719L104.402 161.031L106.126 165.665Z" fill="#E1E1E1"/>
<path d="M115.225 168.261L115.092 167.903C116.273 167.417 116.337 167.252 115.867 165.987L113.371 159.276C112.905 158.025 112.744 157.928 111.587 158.311L111.454 157.954L115.745 156.358L115.878 156.716C114.752 157.181 114.693 157.36 115.158 158.611L117.654 165.322C118.125 166.587 118.295 166.665 119.493 166.267L119.626 166.624L115.225 168.261Z" fill="#E1E1E1"/>
<path d="M210.48 123.511L211.27 123.217L214.881 127.381L214.897 127.375L214.968 121.842L215.708 121.566L215.594 128.308L214.921 128.558L210.48 123.511ZM216.905 123.392L217.554 123.151L219 127.041L218.352 127.282L216.905 123.392ZM216.19 121.927C216.142 121.799 216.146 121.672 216.199 121.545C216.258 121.415 216.354 121.326 216.487 121.277C216.62 121.227 216.749 121.233 216.872 121.294C217.002 121.353 217.09 121.447 217.137 121.574C217.189 121.713 217.187 121.843 217.131 121.964C217.075 122.086 216.978 122.173 216.84 122.224C216.701 122.276 216.571 122.274 216.45 122.218C216.328 122.162 216.241 122.065 216.19 121.927ZM219.187 123.594C219.121 123.416 219.054 123.252 218.985 123.101C218.916 122.95 218.858 122.811 218.811 122.683L219.426 122.455C219.465 122.56 219.507 122.664 219.551 122.767C219.596 122.871 219.639 122.978 219.68 123.088L219.697 123.082C219.706 122.972 219.733 122.858 219.778 122.74C219.828 122.62 219.896 122.507 219.982 122.399C220.066 122.286 220.17 122.184 220.294 122.094C220.416 121.998 220.558 121.92 220.718 121.86C220.763 121.844 220.808 121.83 220.855 121.819C220.901 121.808 220.949 121.803 221 121.803L221.203 122.475C221.079 122.483 220.957 122.51 220.835 122.555C220.436 122.703 220.193 122.942 220.107 123.27C220.025 123.591 220.067 123.976 220.234 124.425L220.939 126.32L220.291 126.561L219.187 123.594ZM224.098 121.341L222.951 121.768L223.674 123.713C223.722 123.84 223.769 123.959 223.815 124.067C223.86 124.171 223.917 124.257 223.987 124.325C224.055 124.388 224.137 124.43 224.233 124.451C224.327 124.467 224.446 124.448 224.59 124.394C224.684 124.359 224.777 124.312 224.868 124.253C224.96 124.194 225.042 124.125 225.114 124.048L225.358 124.629C225.266 124.72 225.155 124.802 225.025 124.876C224.9 124.948 224.776 125.006 224.655 125.051C224.422 125.138 224.225 125.177 224.064 125.167C223.902 125.158 223.762 125.112 223.644 125.03C223.525 124.948 223.422 124.832 223.334 124.682C223.25 124.524 223.171 124.345 223.097 124.145L222.302 122.009L221.455 122.324L221.251 121.776L222.098 121.461L221.687 120.355L222.336 120.114L222.747 121.219L223.894 120.793L224.098 121.341ZM229.183 122.203C229.249 122.381 229.316 122.545 229.385 122.696C229.454 122.847 229.512 122.986 229.559 123.114L228.944 123.342C228.905 123.237 228.863 123.133 228.819 123.03C228.774 122.926 228.731 122.819 228.69 122.709L228.673 122.715C228.664 122.825 228.634 122.941 228.584 123.06C228.539 123.178 228.475 123.293 228.391 123.406C228.305 123.514 228.2 123.613 228.076 123.703C227.954 123.799 227.812 123.877 227.652 123.937C227.397 124.032 227.161 124.075 226.943 124.068C226.732 124.058 226.539 124.007 226.366 123.914C226.192 123.82 226.039 123.688 225.906 123.517C225.776 123.338 225.668 123.132 225.582 122.9L224.688 120.497L225.336 120.256L226.205 122.592C226.327 122.919 226.495 123.15 226.709 123.285C226.923 123.419 227.182 123.43 227.487 123.317C227.698 123.238 227.864 123.135 227.987 123.008C228.116 122.878 228.202 122.729 228.247 122.561C228.297 122.391 228.31 122.206 228.287 122.007C228.269 121.806 228.218 121.594 228.136 121.372L227.431 119.477L228.079 119.236L229.183 122.203ZM229.442 119.297C229.566 119.018 229.745 118.78 229.982 118.585C230.222 118.382 230.483 118.228 230.766 118.123C231.342 117.909 231.808 117.89 232.164 118.067C232.52 118.244 232.801 118.609 233.007 119.163L233.628 120.834C233.67 120.945 233.718 121.059 233.775 121.177C233.829 121.289 233.883 121.392 233.937 121.486L233.314 121.717C233.258 121.637 233.209 121.545 233.164 121.442C233.123 121.331 233.087 121.234 233.056 121.151L233.039 121.157C232.986 121.404 232.875 121.631 232.706 121.839C232.543 122.045 232.312 122.204 232.013 122.315C231.813 122.389 231.615 122.434 231.419 122.45C231.229 122.464 231.05 122.449 230.882 122.404C230.717 122.352 230.57 122.268 230.438 122.153C230.307 122.038 230.207 121.886 230.137 121.697C230.017 121.376 230.006 121.093 230.105 120.848C230.203 120.604 230.357 120.392 230.568 120.212C230.785 120.031 231.03 119.876 231.304 119.749C231.584 119.62 231.843 119.511 232.082 119.422L232.331 119.33L232.288 119.213C232.183 118.931 232.017 118.749 231.792 118.669C231.572 118.587 231.31 118.602 231.005 118.716C230.794 118.794 230.6 118.907 230.422 119.056C230.247 119.196 230.109 119.367 230.007 119.569L229.442 119.297ZM231.887 120.119C231.471 120.274 231.163 120.455 230.962 120.662C230.762 120.869 230.711 121.105 230.81 121.371C230.901 121.615 231.046 121.76 231.246 121.805C231.449 121.843 231.673 121.817 231.917 121.726C232.105 121.656 232.257 121.565 232.373 121.452C232.492 121.332 232.579 121.202 232.634 121.062C232.69 120.921 232.716 120.773 232.715 120.616C232.711 120.453 232.682 120.29 232.628 120.127L232.535 119.878L231.887 120.119ZM232.785 114.761L233.433 114.52L235.77 120.804L235.122 121.045L232.785 114.761ZM241.057 115.516C240.856 115.402 240.662 115.338 240.475 115.326C240.285 115.308 240.094 115.335 239.9 115.407C239.684 115.488 239.507 115.598 239.369 115.737C239.23 115.871 239.13 116.025 239.068 116.199C239.012 116.371 238.99 116.556 239 116.754C239.009 116.947 239.05 117.143 239.124 117.342C239.199 117.542 239.299 117.719 239.426 117.873C239.556 118.02 239.702 118.14 239.862 118.232C240.028 118.321 240.205 118.375 240.395 118.393C240.583 118.405 240.776 118.374 240.975 118.3C241.402 118.141 241.672 117.858 241.785 117.45L242.437 117.728C242.329 118.014 242.166 118.254 241.949 118.449C241.731 118.644 241.481 118.793 241.198 118.898C240.899 119.01 240.606 119.062 240.32 119.055C240.033 119.048 239.767 118.986 239.522 118.869C239.282 118.75 239.066 118.584 238.873 118.372C238.687 118.158 238.537 117.901 238.426 117.602C238.317 117.308 238.263 117.019 238.264 116.735C238.271 116.448 238.33 116.181 238.439 115.932C238.548 115.683 238.706 115.463 238.913 115.273C239.123 115.075 239.378 114.92 239.677 114.809C239.965 114.702 240.255 114.651 240.547 114.656C240.845 114.659 241.13 114.729 241.402 114.868L241.057 115.516ZM242.073 114.599C242.196 114.32 242.376 114.083 242.612 113.888C242.852 113.685 243.113 113.531 243.396 113.426C243.972 113.212 244.438 113.193 244.794 113.369C245.15 113.546 245.431 113.912 245.637 114.466L246.259 116.136C246.3 116.247 246.349 116.362 246.405 116.479C246.459 116.592 246.514 116.694 246.567 116.788L245.944 117.02C245.889 116.939 245.839 116.848 245.794 116.744C245.753 116.634 245.717 116.537 245.686 116.453L245.669 116.46C245.616 116.707 245.505 116.934 245.336 117.142C245.173 117.348 244.942 117.506 244.643 117.617C244.443 117.692 244.246 117.737 244.05 117.753C243.859 117.767 243.68 117.751 243.512 117.707C243.348 117.654 243.2 117.571 243.069 117.455C242.937 117.34 242.837 117.188 242.767 117C242.647 116.678 242.637 116.395 242.735 116.151C242.833 115.906 242.988 115.694 243.198 115.515C243.415 115.333 243.66 115.179 243.934 115.052C244.214 114.922 244.473 114.813 244.712 114.725L244.961 114.632L244.918 114.516C244.813 114.233 244.647 114.052 244.422 113.971C244.202 113.889 243.94 113.905 243.635 114.018C243.425 114.096 243.23 114.21 243.052 114.358C242.877 114.499 242.739 114.67 242.638 114.872L242.073 114.599ZM244.517 115.422C244.101 115.576 243.793 115.757 243.593 115.964C243.392 116.171 243.341 116.408 243.44 116.674C243.531 116.918 243.676 117.062 243.876 117.108C244.079 117.146 244.303 117.119 244.547 117.029C244.735 116.958 244.887 116.867 245.003 116.755C245.122 116.635 245.21 116.504 245.265 116.364C245.32 116.224 245.346 116.075 245.345 115.918C245.341 115.755 245.312 115.593 245.258 115.43L245.165 115.181L244.517 115.422ZM246.59 113.402C246.524 113.224 246.457 113.06 246.388 112.909C246.319 112.758 246.261 112.619 246.214 112.491L246.829 112.263C246.868 112.368 246.91 112.472 246.955 112.575C246.999 112.679 247.042 112.786 247.084 112.896L247.1 112.89C247.11 112.78 247.137 112.665 247.181 112.548C247.231 112.428 247.299 112.315 247.385 112.207C247.47 112.094 247.574 111.992 247.698 111.902C247.82 111.806 247.961 111.728 248.122 111.668C248.166 111.652 248.212 111.638 248.258 111.627C248.304 111.616 248.353 111.611 248.403 111.611L248.606 112.283C248.483 112.291 248.36 112.318 248.238 112.363C247.839 112.511 247.597 112.75 247.511 113.078C247.428 113.399 247.471 113.784 247.637 114.233L248.342 116.128L247.694 116.369L246.59 113.402ZM253.447 113.444L253.43 113.45C253.391 113.717 253.267 113.978 253.059 114.232C252.854 114.478 252.577 114.666 252.228 114.796C251.956 114.897 251.683 114.942 251.407 114.931C251.13 114.914 250.869 114.848 250.623 114.731C250.383 114.612 250.167 114.446 249.975 114.234C249.782 114.022 249.631 113.769 249.522 113.475C249.413 113.181 249.362 112.891 249.369 112.605C249.376 112.318 249.434 112.051 249.543 111.802C249.653 111.553 249.813 111.332 250.026 111.14C250.241 110.94 250.502 110.783 250.806 110.67C251.089 110.565 251.368 110.527 251.644 110.557C251.926 110.585 252.195 110.671 252.45 110.815L252.467 110.809L251.366 107.85L252.015 107.609L254.352 113.893L253.703 114.134L253.447 113.444ZM252.98 112.189C252.904 111.984 252.8 111.808 252.67 111.661C252.543 111.506 252.395 111.388 252.226 111.306C252.054 111.218 251.869 111.17 251.671 111.162C251.476 111.146 251.273 111.177 251.062 111.256C250.852 111.334 250.675 111.444 250.532 111.585C250.393 111.719 250.287 111.875 250.214 112.054C250.14 112.227 250.102 112.414 250.102 112.616C250.105 112.81 250.144 113.01 250.22 113.215C250.297 113.42 250.398 113.6 250.525 113.755C250.656 113.902 250.806 114.019 250.978 114.107C251.147 114.189 251.329 114.238 251.524 114.254C251.723 114.262 251.928 114.227 252.138 114.148C252.349 114.07 252.524 113.964 252.663 113.83C252.806 113.689 252.915 113.531 252.989 113.359C253.062 113.18 253.096 112.994 253.094 112.8C253.094 112.597 253.056 112.394 252.98 112.189Z" fill="white" fill-opacity="0.6"/>
<path d="M70.3034 264.754C70.076 264.595 69.8188 264.514 69.5319 264.512C69.2496 264.499 68.9717 264.543 68.6984 264.645C68.5358 264.705 68.3839 264.783 68.2424 264.878C68.1084 264.97 67.9937 265.079 67.8983 265.207C67.8103 265.333 67.7541 265.476 67.7297 265.636C67.7026 265.789 67.7219 265.954 67.7879 266.132C67.8868 266.398 68.0547 266.566 68.2917 266.638C68.5286 266.71 68.803 266.747 69.1148 266.748C69.4266 266.75 69.763 266.739 70.1238 266.714C70.4846 266.689 70.8333 266.71 71.1699 266.779C71.5064 266.847 71.8193 266.987 72.1084 267.199C72.3975 267.411 72.6287 267.75 72.8018 268.216C72.9584 268.637 73.0182 269.035 72.9813 269.41C72.9415 269.778 72.8271 270.115 72.6381 270.421C72.4564 270.724 72.2112 270.992 71.9024 271.225C71.5936 271.457 71.2472 271.645 70.863 271.788C70.3753 271.969 69.8759 272.062 69.3648 272.067C68.8537 272.073 68.3641 271.943 67.8961 271.68L68.5697 270.269C68.8358 270.464 69.1331 270.585 69.4614 270.631C69.7944 270.667 70.116 270.627 70.4263 270.512C70.5889 270.452 70.7432 270.369 70.8892 270.264C71.0353 270.159 71.1583 270.038 71.2583 269.9C71.3583 269.762 71.4243 269.611 71.4561 269.448C71.4851 269.277 71.4667 269.103 71.4007 268.926C71.2936 268.638 71.1188 268.45 70.8763 268.364C70.6339 268.277 70.3568 268.233 70.045 268.232C69.7304 268.222 69.3927 268.23 69.0319 268.255C68.671 268.28 68.3237 268.262 67.9899 268.201C67.6533 268.133 67.3419 267.996 67.0555 267.792C66.7663 267.58 66.5352 267.241 66.3621 266.775C66.211 266.369 66.1617 265.988 66.2143 265.632C66.2743 265.273 66.4016 264.948 66.5962 264.657C66.7953 264.356 67.0507 264.093 67.3622 263.868C67.6737 263.643 68.0105 263.463 68.3726 263.328C68.7863 263.174 69.2086 263.089 69.6395 263.071C70.0778 263.051 70.5057 263.128 70.9232 263.3L70.3034 264.754ZM74.733 261.189L75.941 260.74L82.2395 267.329L80.6436 267.923L79.2444 266.4L75.842 267.665L75.8005 269.724L74.2379 270.305L74.733 261.189ZM78.3116 265.384L75.9165 262.642L75.8734 266.291L78.3116 265.384ZM81.2527 260.203L78.8477 261.097L78.3778 259.834L84.5841 257.526L85.054 258.789L82.6491 259.683L85.0975 266.266L83.7011 266.786L81.2527 260.203ZM86.59 261.283C86.3564 260.655 86.2483 260.048 86.2655 259.461C86.28 258.867 86.401 258.322 86.6284 257.825C86.8631 257.326 87.196 256.886 87.627 256.507C88.0626 256.118 88.5833 255.811 89.1891 255.586C89.7996 255.35 90.3955 255.234 90.9767 255.236C91.5552 255.231 92.0965 255.341 92.6006 255.566C93.1047 255.79 93.5549 256.119 93.9514 256.552C94.3479 256.985 94.6629 257.515 94.8965 258.143C95.1246 258.757 95.2286 259.353 95.2086 259.932C95.1886 260.512 95.0612 261.051 94.8264 261.55C94.5917 262.05 94.2578 262.498 93.825 262.894C93.3894 263.283 92.8663 263.596 92.2559 263.831C91.65 264.056 91.0565 264.168 90.4752 264.165C89.8986 264.153 89.3597 264.038 88.8583 263.821C88.3617 263.593 87.9164 263.267 87.5227 262.841C87.129 262.416 86.8181 261.897 86.59 261.283ZM88.0199 260.651C88.1765 261.072 88.3836 261.436 88.6411 261.744C88.906 262.049 89.2048 262.287 89.5374 262.458C89.87 262.629 90.2263 262.727 90.6063 262.754C90.9938 262.778 91.3907 262.715 91.797 262.564C92.2034 262.412 92.5453 262.201 92.8229 261.93C93.1004 261.658 93.3093 261.349 93.4495 261.003C93.5898 260.656 93.6567 260.282 93.6504 259.881C93.6515 259.477 93.5738 259.064 93.4171 258.643C93.2715 258.252 93.069 257.911 92.8096 257.62C92.5576 257.327 92.2666 257.099 91.9368 256.936C91.6042 256.765 91.2455 256.671 90.8608 256.654C90.4734 256.63 90.0765 256.694 89.6701 256.845C89.2638 256.996 88.9218 257.207 88.6443 257.479C88.3714 257.74 88.1649 258.044 88.0246 258.391C87.8816 258.73 87.8068 259.094 87.8002 259.483C87.801 259.87 87.8743 260.259 88.0199 260.651ZM99.2436 253.991C99.0162 253.832 98.759 253.751 98.4721 253.748C98.1898 253.735 97.9119 253.78 97.6386 253.881C97.476 253.942 97.3241 254.019 97.1826 254.114C97.0486 254.206 96.9339 254.316 96.8385 254.444C96.7505 254.569 96.6943 254.712 96.6699 254.872C96.6428 255.025 96.6621 255.191 96.7281 255.368C96.827 255.634 96.9949 255.803 97.2319 255.874C97.4688 255.946 97.7432 255.983 98.055 255.985C98.3668 255.986 98.7032 255.975 99.064 255.95C99.4248 255.925 99.7735 255.947 100.11 256.015C100.447 256.083 100.759 256.224 101.049 256.436C101.338 256.648 101.569 256.986 101.742 257.452C101.899 257.873 101.958 258.271 101.921 258.647C101.882 259.015 101.767 259.352 101.578 259.657C101.397 259.96 101.151 260.228 100.843 260.461C100.534 260.693 100.187 260.881 99.8032 261.024C99.3155 261.205 98.8161 261.299 98.305 261.304C97.7938 261.309 97.3043 261.18 96.8363 260.916L97.5099 259.505C97.776 259.701 98.0733 259.821 98.4016 259.867C98.7346 259.903 99.0562 259.864 99.3665 259.748C99.5291 259.688 99.6834 259.605 99.8294 259.5C99.9755 259.396 100.099 259.274 100.199 259.136C100.299 258.998 100.364 258.847 100.396 258.684C100.425 258.513 100.407 258.34 100.341 258.162C100.234 257.874 100.059 257.687 99.8165 257.6C99.5741 257.514 99.297 257.47 98.9852 257.468C98.6706 257.459 98.3329 257.467 97.9721 257.492C97.6112 257.516 97.2639 257.498 96.9301 257.438C96.5935 257.369 96.2821 257.233 95.9957 257.028C95.7065 256.816 95.4754 256.477 95.3023 256.012C95.1512 255.605 95.1019 255.224 95.1545 254.868C95.2145 254.51 95.3418 254.185 95.5364 253.894C95.7355 253.592 95.9909 253.329 96.3024 253.104C96.6139 252.879 96.9507 252.699 97.3128 252.564C97.7265 252.41 98.1488 252.325 98.5797 252.308C99.018 252.288 99.4459 252.364 99.8634 252.537L99.2436 253.991ZM101.135 251.37L102.532 250.85L103.694 253.976L107.362 252.611L106.2 249.486L107.596 248.967L110.515 256.813L109.118 257.332L107.832 253.875L104.164 255.239L105.45 258.697L104.054 259.216L101.135 251.37ZM109.317 248.327L110.713 247.808L113.631 255.654L112.235 256.173L109.317 248.327ZM115.714 245.948L117.564 245.259L123.534 249.675L123.556 249.667L121.388 243.837L122.784 243.318L125.703 251.164L123.929 251.824L117.812 247.249L117.79 247.257L120.028 253.275L118.632 253.794L115.714 245.948ZM127.072 241.723L128.28 241.274L134.579 247.863L132.983 248.457L131.584 246.933L128.181 248.199L128.14 250.258L126.577 250.839L127.072 241.723ZM130.651 245.918L128.256 243.175L128.213 246.825L130.651 245.918ZM132.532 239.692L133.929 239.173L135.165 242.498L135.232 242.473L137.242 237.94L139.126 237.24L136.806 242.228L142.289 244.996L140.327 245.725L135.49 243.134L135.413 243.163L136.847 247.019L135.451 247.539L132.532 239.692ZM142.657 235.927L143.865 235.477L150.163 242.067L148.568 242.66L147.168 241.137L143.766 242.402L143.724 244.461L142.162 245.043L142.657 235.927ZM146.236 240.121L143.84 237.379L143.797 241.028L146.236 240.121ZM148.15 233.883L150.278 233.092L154.417 237.81L154.49 231.526L156.595 230.743L159.514 238.589L158.184 239.084L155.76 232.567L155.738 232.575L155.779 239.978L154.803 240.341L149.997 234.711L149.975 234.719L152.399 241.235L151.069 241.73L148.15 233.883ZM159.428 234.193C159.194 233.565 159.086 232.958 159.103 232.371C159.118 231.777 159.239 231.231 159.466 230.735C159.701 230.235 160.034 229.796 160.464 229.417C160.9 229.028 161.421 228.721 162.027 228.495C162.637 228.26 163.233 228.143 163.814 228.146C164.393 228.141 164.934 228.251 165.438 228.476C165.942 228.7 166.392 229.029 166.789 229.462C167.185 229.895 167.5 230.425 167.734 231.053C167.962 231.666 168.066 232.263 168.046 232.842C168.026 233.421 167.899 233.961 167.664 234.46C167.429 234.96 167.095 235.408 166.663 235.804C166.227 236.193 165.704 236.505 165.093 236.741C164.488 236.966 163.894 237.078 163.313 237.075C162.736 237.062 162.197 236.948 161.696 236.73C161.199 236.503 160.754 236.176 160.36 235.751C159.966 235.326 159.656 234.806 159.428 234.193ZM160.857 233.56C161.014 233.981 161.221 234.346 161.479 234.654C161.744 234.959 162.042 235.197 162.375 235.368C162.707 235.538 163.064 235.637 163.444 235.664C163.831 235.688 164.228 235.624 164.635 235.473C165.041 235.322 165.383 235.111 165.66 234.839C165.938 234.568 166.147 234.259 166.287 233.913C166.427 233.566 166.494 233.192 166.488 232.791C166.489 232.387 166.411 231.974 166.255 231.553C166.109 231.161 165.906 230.82 165.647 230.53C165.395 230.237 165.104 230.009 164.774 229.845C164.442 229.675 164.083 229.581 163.698 229.564C163.311 229.54 162.914 229.604 162.508 229.755C162.101 229.906 161.759 230.117 161.482 230.389C161.209 230.65 161.002 230.954 160.862 231.3C160.719 231.639 160.644 232.004 160.638 232.393C160.639 232.78 160.712 233.169 160.857 233.56ZM169.686 227.312L167.281 228.206L166.811 226.943L173.017 224.635L173.487 225.898L171.082 226.793L173.531 233.376L172.134 233.895L169.686 227.312ZM175.023 228.393C174.79 227.764 174.681 227.157 174.699 226.57C174.713 225.976 174.834 225.431 175.062 224.934C175.296 224.435 175.629 223.996 176.06 223.617C176.496 223.227 177.016 222.92 177.622 222.695C178.233 222.459 178.829 222.343 179.41 222.345C179.988 222.341 180.53 222.45 181.034 222.675C181.538 222.9 181.988 223.228 182.385 223.661C182.781 224.094 183.096 224.625 183.33 225.253C183.558 225.866 183.662 226.462 183.642 227.041C183.622 227.621 183.494 228.16 183.26 228.66C183.025 229.159 182.691 229.607 182.258 230.004C181.823 230.393 181.3 230.705 180.689 230.94C180.083 231.166 179.49 231.277 178.908 231.275C178.332 231.262 177.793 231.147 177.292 230.93C176.795 230.702 176.35 230.376 175.956 229.951C175.562 229.525 175.251 229.006 175.023 228.393ZM176.453 227.76C176.61 228.181 176.817 228.545 177.074 228.853C177.339 229.159 177.638 229.396 177.971 229.567C178.303 229.738 178.659 229.837 179.04 229.863C179.427 229.887 179.824 229.824 180.23 229.673C180.637 229.522 180.979 229.31 181.256 229.039C181.534 228.768 181.742 228.459 181.883 228.112C182.023 227.766 182.09 227.392 182.084 226.99C182.085 226.586 182.007 226.174 181.85 225.752C181.705 225.361 181.502 225.02 181.243 224.729C180.991 224.436 180.7 224.208 180.37 224.045C180.037 223.874 179.679 223.78 179.294 223.764C178.907 223.74 178.51 223.803 178.103 223.954C177.697 224.105 177.355 224.317 177.078 224.588C176.805 224.849 176.598 225.153 176.458 225.5C176.315 225.839 176.24 226.203 176.233 226.593C176.234 226.979 176.307 227.368 176.453 227.76Z" fill="white" fill-opacity="0.9"/>
<path d="M77.7117 284.908L78.8422 284.488L79.1637 285.352L78.0332 285.773L78.701 287.568L77.7701 287.915L77.1023 286.119L73.7775 287.356L73.3942 286.325L74.6412 280.146L75.7827 279.722L77.7117 284.908ZM75.2557 281.154L75.2335 281.162L74.254 286.195L76.7808 285.255L75.2557 281.154ZM80.374 285.735L82.2614 281.753C82.3801 281.507 82.4822 281.284 82.5676 281.084C82.6503 280.877 82.7099 280.686 82.7463 280.513C82.7874 280.329 82.8013 280.152 82.7879 279.98C82.7745 279.809 82.7321 279.627 82.6606 279.435C82.5837 279.228 82.4781 279.057 82.3437 278.922C82.2094 278.787 82.0551 278.688 81.8809 278.627C81.7113 278.556 81.5269 278.523 81.3276 278.53C81.1329 278.527 80.9358 278.562 80.7364 278.636C80.3374 278.785 80.0512 279.022 79.8778 279.347C79.7044 279.672 79.6508 280.037 79.7171 280.441L78.6756 280.727C78.6091 280.391 78.6008 280.074 78.6505 279.778C78.7048 279.472 78.8089 279.198 78.9627 278.955C79.1239 278.71 79.3261 278.496 79.5692 278.314C79.8096 278.123 80.0886 277.969 80.4063 277.851C80.7314 277.73 81.0559 277.664 81.3798 277.653C81.7009 277.634 82.0016 277.674 82.2818 277.771C82.5694 277.866 82.8254 278.023 83.05 278.243C83.2819 278.459 83.4624 278.741 83.5916 279.088C83.707 279.399 83.7671 279.696 83.7719 279.98C83.784 280.261 83.7561 280.537 83.688 280.806C83.6245 281.065 83.5362 281.325 83.4229 281.586C83.3143 281.837 83.1946 282.091 83.0638 282.35L81.4928 285.521L81.501 285.543L85.5019 284.055L85.8234 284.919L80.7697 286.799L80.374 285.735ZM85.3357 280.635C85.1709 280.191 85.0361 279.716 84.9313 279.208C84.8266 278.7 84.8012 278.214 84.855 277.748C84.9061 277.275 85.0549 276.849 85.3013 276.472C85.5524 276.084 85.9476 275.79 86.4869 275.589C87.0263 275.389 87.514 275.354 87.95 275.487C88.3907 275.609 88.785 275.832 89.1329 276.157C89.478 276.474 89.7768 276.859 90.0293 277.312C90.2818 277.765 90.4905 278.213 90.6554 278.656C90.8202 279.1 90.9551 279.575 91.0598 280.083C91.1645 280.59 91.1913 281.081 91.1402 281.554C91.0864 282.02 90.9339 282.447 90.6829 282.834C90.4364 283.212 90.0435 283.501 89.5042 283.702C88.9648 283.902 88.4748 283.942 88.0341 283.82C87.5981 283.687 87.2075 283.463 86.8624 283.145C86.5145 282.82 86.2143 282.432 85.9618 281.979C85.7093 281.526 85.5006 281.078 85.3357 280.635ZM86.2667 280.288C86.3381 280.481 86.4252 280.692 86.5279 280.923C86.6306 281.154 86.7458 281.384 86.8734 281.615C87.0057 281.834 87.1513 282.045 87.3104 282.247C87.4769 282.446 87.6559 282.61 87.8474 282.741C88.0464 282.869 88.2588 282.954 88.4847 282.996C88.7079 283.031 88.9488 283 89.2074 282.904C89.466 282.808 89.6684 282.673 89.8146 282.501C89.9581 282.322 90.0597 282.12 90.1194 281.896C90.1864 281.669 90.2143 281.427 90.203 281.171C90.1991 280.912 90.1716 280.657 90.1206 280.407C90.0743 280.147 90.0145 279.895 89.9413 279.653C89.8682 279.412 89.7959 279.195 89.7244 279.002C89.653 278.81 89.5659 278.599 89.4632 278.368C89.3605 278.137 89.243 277.912 89.1107 277.692C88.9831 277.462 88.8361 277.247 88.6696 277.048C88.5105 276.847 88.3315 276.682 88.1326 276.554C87.941 276.424 87.7337 276.341 87.5105 276.306C87.2846 276.264 87.0423 276.291 86.7837 276.387C86.5251 276.483 86.3241 276.621 86.1806 276.801C86.0344 276.973 85.9277 277.172 85.8607 277.399C85.801 277.623 85.7732 277.865 85.7771 278.124C85.7884 278.381 85.8172 278.639 85.8635 278.899C85.9145 279.149 85.9766 279.396 86.0498 279.637C86.1229 279.879 86.1952 280.096 86.2667 280.288ZM91.4939 278.344C91.329 277.901 91.1942 277.426 91.0895 276.918C90.9848 276.41 90.9593 275.923 91.0132 275.458C91.0643 274.984 91.213 274.559 91.4595 274.181C91.7106 273.794 92.1058 273.499 92.6451 273.299C93.1845 273.098 93.6722 273.064 94.1082 273.196C94.5489 273.318 94.9432 273.542 95.291 273.866C95.6362 274.184 95.935 274.569 96.1875 275.022C96.44 275.474 96.6487 275.923 96.8136 276.366C96.9784 276.809 97.1132 277.285 97.218 277.792C97.3227 278.3 97.3495 278.791 97.2984 279.264C97.2446 279.729 97.0921 280.156 96.841 280.544C96.5946 280.922 96.2017 281.211 95.6624 281.411C95.123 281.612 94.633 281.651 94.1923 281.529C93.7563 281.397 93.3657 281.172 93.0206 280.855C92.6727 280.53 92.3725 280.141 92.12 279.688C91.8675 279.236 91.6588 278.788 91.4939 278.344ZM92.4249 277.998C92.4963 278.19 92.5834 278.402 92.6861 278.633C92.7888 278.864 92.904 279.094 93.0316 279.324C93.1639 279.544 93.3095 279.755 93.4686 279.956C93.6351 280.155 93.8141 280.32 94.0056 280.451C94.2046 280.578 94.417 280.663 94.6429 280.705C94.8661 280.74 95.107 280.71 95.3656 280.613C95.6242 280.517 95.8266 280.383 95.9728 280.211C96.1163 280.031 96.2179 279.83 96.2775 279.606C96.3446 279.379 96.3724 279.137 96.3611 278.881C96.3572 278.621 96.3298 278.367 96.2788 278.116C96.2324 277.856 96.1727 277.605 96.0995 277.363C96.0264 277.121 95.9541 276.904 95.8826 276.712C95.8112 276.52 95.7241 276.308 95.6214 276.078C95.5187 275.847 95.4012 275.621 95.2689 275.401C95.1413 275.171 94.9943 274.957 94.8278 274.758C94.6687 274.556 94.4897 274.392 94.2908 274.264C94.0992 274.133 93.8919 274.05 93.6687 274.016C93.4427 273.974 93.2005 274.001 92.9419 274.097C92.6833 274.193 92.4823 274.331 92.3388 274.51C92.1925 274.682 92.0859 274.882 92.0189 275.109C91.9592 275.333 91.9313 275.574 91.9352 275.834C91.9465 276.09 91.9754 276.349 92.0217 276.609C92.0727 276.859 92.1348 277.105 92.208 277.347C92.2811 277.589 92.3534 277.806 92.4249 277.998ZM105.764 277.503L104.833 277.849L102.36 271.199L102.338 271.208L101.372 272.917L100.566 272.447L102.037 269.957L102.846 269.656L105.764 277.503ZM108.091 275.426L109.979 271.444C110.097 271.198 110.199 270.975 110.285 270.775C110.368 270.568 110.427 270.377 110.464 270.204C110.505 270.021 110.518 269.843 110.505 269.671C110.492 269.5 110.449 269.318 110.378 269.126C110.301 268.919 110.195 268.748 110.061 268.613C109.927 268.478 109.772 268.38 109.598 268.318C109.429 268.247 109.244 268.214 109.045 268.221C108.85 268.218 108.653 268.253 108.454 268.328C108.055 268.476 107.768 268.713 107.595 269.038C107.422 269.363 107.368 269.728 107.434 270.132L106.393 270.419C106.326 270.082 106.318 269.765 106.368 269.469C106.422 269.163 106.526 268.889 106.68 268.647C106.841 268.402 107.043 268.188 107.286 268.005C107.527 267.814 107.806 267.66 108.124 267.542C108.449 267.421 108.773 267.355 109.097 267.344C109.418 267.325 109.719 267.365 109.999 267.463C110.287 267.558 110.543 267.715 110.767 267.934C110.999 268.15 111.18 268.432 111.309 268.78C111.424 269.09 111.484 269.387 111.489 269.671C111.501 269.953 111.473 270.228 111.405 270.497C111.342 270.756 111.253 271.016 111.14 271.277C111.032 271.528 110.912 271.782 110.781 272.041L109.21 275.212L109.218 275.234L113.219 273.746L113.541 274.61L108.487 276.49L108.091 275.426ZM114.67 269.043L114.958 268.936C115.15 268.865 115.344 268.776 115.54 268.669C115.743 268.56 115.912 268.426 116.046 268.266C116.188 268.104 116.281 267.914 116.326 267.696C116.376 267.467 116.345 267.205 116.236 266.909C116.087 266.51 115.845 266.243 115.508 266.107C115.177 265.962 114.811 265.963 114.412 266.111C114.08 266.235 113.819 266.416 113.63 266.655C113.441 266.893 113.33 267.182 113.297 267.523L112.272 267.513C112.299 266.998 112.475 266.555 112.798 266.182C113.13 265.806 113.547 265.525 114.049 265.338C114.359 265.223 114.671 265.157 114.985 265.141C115.306 265.123 115.605 265.159 115.883 265.249C116.16 265.339 116.41 265.49 116.632 265.702C116.851 265.907 117.024 266.179 117.15 266.519C117.304 266.932 117.317 267.352 117.189 267.778C117.067 268.194 116.829 268.539 116.477 268.813L116.485 268.835C116.753 268.786 117.005 268.785 117.241 268.831C117.484 268.876 117.709 268.96 117.915 269.085C118.119 269.203 118.299 269.359 118.455 269.553C118.611 269.747 118.735 269.966 118.826 270.21C118.966 270.587 119.018 270.942 118.982 271.275C118.946 271.608 118.846 271.914 118.681 272.194C118.516 272.474 118.292 272.721 118.01 272.936C117.735 273.147 117.425 273.317 117.077 273.446C116.479 273.669 115.91 273.733 115.37 273.64C114.831 273.546 114.353 273.244 113.936 272.735L114.763 272.074C115.053 272.446 115.352 272.675 115.662 272.762C115.972 272.848 116.345 272.811 116.781 272.649C117.002 272.566 117.195 272.452 117.36 272.307C117.525 272.162 117.652 271.996 117.743 271.811C117.839 271.616 117.893 271.411 117.905 271.196C117.923 270.971 117.889 270.744 117.803 270.514C117.696 270.226 117.548 270.008 117.358 269.86C117.173 269.702 116.964 269.603 116.731 269.564C116.502 269.514 116.26 269.507 116.004 269.544C115.749 269.58 115.499 269.643 115.255 269.734L114.967 269.841L114.67 269.043ZM123.903 267.728L125.034 267.308L125.355 268.172L124.225 268.593L124.893 270.388L123.962 270.735L123.294 268.939L119.969 270.176L119.586 269.145L120.833 262.966L121.974 262.542L123.903 267.728ZM121.447 263.974L121.425 263.982L120.446 269.015L122.973 268.075L121.447 263.974ZM132.148 259.742L128.945 260.933L129.699 263.062C129.82 262.933 129.964 262.825 130.133 262.737C130.307 262.639 130.475 262.559 130.638 262.499C131.015 262.359 131.379 262.299 131.732 262.319C132.089 262.329 132.422 262.411 132.731 262.565C133.038 262.712 133.31 262.922 133.546 263.196C133.78 263.462 133.965 263.78 134.103 264.15C134.248 264.541 134.312 264.926 134.292 265.303C134.277 265.67 134.191 266.013 134.032 266.333C133.878 266.643 133.658 266.922 133.372 267.171C133.094 267.418 132.763 267.613 132.378 267.756C131.78 267.978 131.248 268.029 130.782 267.908C130.324 267.784 129.907 267.544 129.53 267.187L130.329 266.486C130.572 266.733 130.854 266.901 131.174 266.993C131.498 267.074 131.827 267.052 132.159 266.929C132.396 266.841 132.599 266.719 132.768 266.564C132.942 266.398 133.074 266.21 133.164 266C133.258 265.78 133.309 265.542 133.315 265.288C133.321 265.033 133.274 264.769 133.172 264.496C133.065 264.208 132.918 263.972 132.732 263.789C132.554 263.603 132.348 263.469 132.116 263.387C131.889 263.295 131.643 263.256 131.379 263.27C131.112 263.277 130.842 263.331 130.569 263.433C130.303 263.532 130.047 263.681 129.802 263.882C129.555 264.075 129.339 264.286 129.154 264.514L127.715 260.407L131.827 258.878L132.148 259.742ZM136.209 260.969L136.239 260.983C136.356 260.847 136.504 260.725 136.683 260.616C136.869 260.505 137.043 260.419 137.205 260.359C137.545 260.233 137.881 260.175 138.213 260.186C138.553 260.194 138.867 260.271 139.156 260.415C139.45 260.55 139.713 260.747 139.944 261.006C140.175 261.265 140.357 261.575 140.492 261.937C140.635 262.321 140.696 262.69 140.676 263.042C140.655 263.395 140.567 263.722 140.41 264.024C140.251 264.319 140.03 264.586 139.749 264.825C139.473 265.054 139.15 265.237 138.78 265.374C138.411 265.512 138.043 265.586 137.677 265.596C137.315 265.596 136.978 265.536 136.664 265.417C136.348 265.291 136.067 265.101 135.822 264.848C135.576 264.594 135.382 264.275 135.239 263.891C135.071 263.44 134.994 263.019 135.008 262.627C135.022 262.235 135.073 261.829 135.161 261.409L136.012 257.321L137.098 256.917L136.209 260.969ZM137.247 261.252C137.011 261.34 136.804 261.463 136.627 261.621C136.448 261.772 136.308 261.95 136.208 262.155C136.113 262.351 136.059 262.568 136.047 262.808C136.035 263.048 136.076 263.294 136.17 263.545C136.266 263.803 136.397 264.02 136.562 264.194C136.725 264.36 136.908 264.49 137.111 264.583C137.318 264.665 137.54 264.709 137.777 264.713C138.012 264.71 138.247 264.664 138.484 264.577C138.72 264.489 138.928 264.369 139.107 264.218C139.284 264.06 139.42 263.883 139.516 263.688C139.616 263.483 139.673 263.264 139.688 263.031C139.699 262.791 139.657 262.542 139.561 262.283C139.468 262.032 139.338 261.82 139.172 261.646C139.007 261.472 138.82 261.344 138.613 261.261C138.41 261.168 138.192 261.123 137.957 261.126C137.72 261.122 137.484 261.164 137.247 261.252ZM144.531 255.136L143.991 263.285L142.939 263.677L143.534 255.507L139.743 256.917L139.422 256.053L144.21 254.272L144.531 255.136ZM146.603 255.564C146.488 255.254 146.439 254.952 146.456 254.66C146.481 254.365 146.56 254.092 146.694 253.84C146.827 253.588 147.013 253.364 147.251 253.166C147.486 252.961 147.762 252.799 148.08 252.681C148.397 252.563 148.712 252.505 149.024 252.507C149.333 252.501 149.62 252.55 149.886 252.653C150.151 252.756 150.386 252.913 150.59 253.123C150.802 253.33 150.965 253.589 151.081 253.899C151.149 254.084 151.189 254.279 151.198 254.486C151.208 254.693 151.186 254.894 151.133 255.091C151.08 255.287 150.994 255.474 150.875 255.653C150.764 255.829 150.618 255.98 150.438 256.106L150.446 256.128C150.702 256.092 150.949 256.101 151.188 256.155C151.424 256.202 151.642 256.289 151.841 256.417C152.04 256.545 152.219 256.709 152.378 256.911C152.534 257.105 152.658 257.324 152.748 257.568C152.88 257.923 152.933 258.269 152.907 258.606C152.886 258.934 152.798 259.24 152.643 259.525C152.496 259.807 152.286 260.057 152.014 260.276C151.75 260.492 151.444 260.665 151.097 260.794C150.75 260.923 150.402 260.993 150.053 261.005C149.711 261.015 149.389 260.962 149.086 260.848C148.79 260.731 148.523 260.557 148.286 260.325C148.053 260.084 147.871 259.786 147.739 259.431C147.648 259.187 147.599 258.941 147.59 258.692C147.579 258.435 147.607 258.194 147.674 257.967C147.741 257.74 147.848 257.532 147.996 257.342C148.142 257.145 148.323 256.977 148.54 256.837L148.532 256.815C148.313 256.837 148.101 256.82 147.894 256.762C147.695 256.701 147.511 256.614 147.343 256.5C147.174 256.386 147.026 256.248 146.898 256.085C146.77 255.923 146.672 255.749 146.603 255.564ZM147.551 255.262C147.691 255.639 147.925 255.905 148.252 256.061C148.586 256.214 148.949 256.218 149.341 256.073C149.732 255.927 150.001 255.688 150.147 255.356C150.3 255.022 150.306 254.666 150.166 254.289C150.026 253.913 149.789 253.648 149.454 253.495C149.127 253.339 148.768 253.334 148.376 253.479C147.985 253.625 147.712 253.865 147.559 254.199C147.414 254.531 147.411 254.885 147.551 255.262ZM148.645 259.018C148.73 259.247 148.849 259.443 149.002 259.605C149.155 259.767 149.327 259.892 149.52 259.98C149.717 260.058 149.923 260.103 150.138 260.116C150.358 260.118 150.578 260.078 150.8 259.996C151.022 259.913 151.211 259.801 151.368 259.658C151.53 259.505 151.657 259.337 151.748 259.151C151.843 258.956 151.896 258.747 151.906 258.525C151.915 258.302 151.878 258.077 151.793 257.848C151.707 257.619 151.588 257.423 151.436 257.261C151.283 257.1 151.108 256.98 150.911 256.902C150.718 256.813 150.512 256.768 150.293 256.766C150.078 256.753 149.859 256.788 149.638 256.87C149.416 256.953 149.224 257.07 149.062 257.223C148.905 257.366 148.779 257.535 148.683 257.73C148.592 257.915 148.542 258.119 148.532 258.341C148.522 258.564 148.56 258.789 148.645 259.018ZM156.171 254.289C156.006 253.846 155.871 253.37 155.767 252.863C155.662 252.355 155.636 251.868 155.69 251.402C155.741 250.929 155.89 250.504 156.137 250.126C156.388 249.738 156.783 249.444 157.322 249.244C157.862 249.043 158.349 249.009 158.785 249.141C159.226 249.263 159.62 249.486 159.968 249.811C160.313 250.129 160.612 250.514 160.865 250.966C161.117 251.419 161.326 251.867 161.491 252.311C161.656 252.754 161.79 253.229 161.895 253.737C162 254.245 162.027 254.735 161.976 255.208C161.922 255.674 161.769 256.101 161.518 256.489C161.272 256.866 160.879 257.155 160.339 257.356C159.8 257.557 159.31 257.596 158.869 257.474C158.433 257.342 158.043 257.117 157.698 256.8C157.35 256.475 157.05 256.086 156.797 255.633C156.545 255.18 156.336 254.732 156.171 254.289ZM157.102 253.943C157.173 254.135 157.261 254.346 157.363 254.577C157.466 254.808 157.581 255.039 157.709 255.269C157.841 255.489 157.987 255.7 158.146 255.901C158.312 256.1 158.491 256.265 158.683 256.395C158.882 256.523 159.094 256.608 159.32 256.65C159.543 256.685 159.784 256.654 160.043 256.558C160.301 256.462 160.504 256.328 160.65 256.156C160.793 255.976 160.895 255.774 160.955 255.55C161.022 255.324 161.05 255.082 161.038 254.825C161.034 254.566 161.007 254.311 160.956 254.061C160.91 253.801 160.85 253.55 160.777 253.308C160.703 253.066 160.631 252.849 160.56 252.657C160.488 252.465 160.401 252.253 160.298 252.022C160.196 251.791 160.078 251.566 159.946 251.346C159.818 251.116 159.671 250.901 159.505 250.703C159.346 250.501 159.167 250.336 158.968 250.209C158.776 250.078 158.569 249.995 158.346 249.96C158.12 249.918 157.878 249.945 157.619 250.042C157.36 250.138 157.159 250.276 157.016 250.455C156.87 250.627 156.763 250.827 156.696 251.054C156.636 251.278 156.608 251.519 156.612 251.778C156.624 252.035 156.652 252.293 156.699 252.554C156.75 252.804 156.812 253.05 156.885 253.292C156.958 253.534 157.031 253.751 157.102 253.943ZM162.329 251.999C162.164 251.555 162.03 251.08 161.925 250.572C161.82 250.064 161.795 249.578 161.848 249.112C161.9 248.639 162.048 248.213 162.295 247.836C162.546 247.448 162.941 247.154 163.48 246.953C164.02 246.753 164.507 246.718 164.944 246.851C165.384 246.973 165.778 247.196 166.126 247.521C166.471 247.838 166.77 248.223 167.023 248.676C167.275 249.129 167.484 249.577 167.649 250.02C167.814 250.463 167.949 250.939 168.053 251.447C168.158 251.954 168.185 252.445 168.134 252.918C168.08 253.384 167.927 253.811 167.676 254.198C167.43 254.576 167.037 254.865 166.498 255.066C165.958 255.266 165.468 255.306 165.028 255.183C164.592 255.051 164.201 254.827 163.856 254.509C163.508 254.184 163.208 253.796 162.955 253.343C162.703 252.89 162.494 252.442 162.329 251.999ZM163.26 251.652C163.332 251.845 163.419 252.056 163.521 252.287C163.624 252.518 163.739 252.748 163.867 252.979C163.999 253.198 164.145 253.409 164.304 253.611C164.47 253.81 164.649 253.974 164.841 254.105C165.04 254.233 165.252 254.318 165.478 254.36C165.701 254.395 165.942 254.364 166.201 254.268C166.459 254.172 166.662 254.037 166.808 253.865C166.952 253.686 167.053 253.484 167.113 253.26C167.18 253.033 167.208 252.791 167.196 252.535C167.193 252.276 167.165 252.021 167.114 251.771C167.068 251.51 167.008 251.259 166.935 251.017C166.862 250.776 166.789 250.559 166.718 250.366C166.646 250.174 166.559 249.963 166.457 249.732C166.354 249.501 166.236 249.276 166.104 249.056C165.977 248.825 165.83 248.611 165.663 248.412C165.504 248.211 165.325 248.046 165.126 247.918C164.935 247.788 164.727 247.705 164.504 247.67C164.278 247.628 164.036 247.655 163.777 247.751C163.519 247.847 163.318 247.985 163.174 248.165C163.028 248.337 162.921 248.536 162.854 248.763C162.794 248.987 162.767 249.229 162.771 249.488C162.782 249.745 162.811 250.003 162.857 250.263C162.908 250.513 162.97 250.76 163.043 251.001C163.116 251.243 163.189 251.46 163.26 251.652ZM170.084 248.37L170.114 248.384C170.232 248.248 170.38 248.126 170.558 248.017C170.744 247.906 170.918 247.82 171.081 247.76C171.42 247.633 171.756 247.576 172.089 247.587C172.428 247.595 172.742 247.672 173.032 247.816C173.326 247.951 173.588 248.148 173.819 248.407C174.05 248.666 174.233 248.976 174.367 249.338C174.51 249.722 174.572 250.091 174.551 250.443C174.531 250.795 174.442 251.123 174.286 251.425C174.126 251.72 173.906 251.987 173.625 252.226C173.348 252.455 173.025 252.638 172.656 252.775C172.286 252.913 171.919 252.986 171.552 252.996C171.191 252.996 170.853 252.937 170.54 252.818C170.224 252.692 169.943 252.502 169.697 252.248C169.451 251.995 169.257 251.676 169.114 251.292C168.947 250.841 168.87 250.42 168.884 250.028C168.898 249.636 168.949 249.23 169.036 248.81L169.888 244.722L170.974 244.318L170.084 248.37ZM171.122 248.653C170.886 248.74 170.68 248.864 170.503 249.022C170.323 249.173 170.184 249.351 170.083 249.556C169.988 249.752 169.934 249.969 169.923 250.209C169.911 250.449 169.952 250.694 170.045 250.946C170.141 251.204 170.272 251.42 170.438 251.594C170.601 251.761 170.783 251.89 170.986 251.983C171.194 252.066 171.416 252.109 171.653 252.114C171.887 252.111 172.123 252.065 172.359 251.977C172.595 251.889 172.803 251.77 172.983 251.619C173.159 251.461 173.296 251.284 173.391 251.089C173.491 250.883 173.549 250.664 173.563 250.432C173.575 250.192 173.533 249.943 173.436 249.684C173.343 249.433 173.213 249.221 173.048 249.047C172.882 248.873 172.696 248.744 172.488 248.662C172.286 248.569 172.067 248.524 171.833 248.527C171.596 248.523 171.359 248.565 171.122 248.653ZM178.369 246.777L178.338 246.764C178.221 246.9 178.069 247.023 177.883 247.135C177.705 247.243 177.535 247.327 177.372 247.388C177.032 247.514 176.692 247.573 176.353 247.565C176.021 247.554 175.708 247.481 175.414 247.347C175.125 247.202 174.866 247.004 174.638 246.752C174.407 246.493 174.223 246.179 174.085 245.81C173.942 245.425 173.881 245.057 173.901 244.705C173.922 244.352 174.012 244.029 174.171 243.734C174.328 243.432 174.544 243.166 174.821 242.937C175.102 242.698 175.427 242.51 175.797 242.372C176.166 242.235 176.532 242.166 176.893 242.166C177.26 242.156 177.601 242.214 177.917 242.341C178.23 242.46 178.51 242.646 178.756 242.899C179.001 243.153 179.196 243.472 179.338 243.856C179.424 244.085 179.483 244.302 179.518 244.508C179.552 244.714 179.569 244.918 179.569 245.12C179.568 245.322 179.552 245.526 179.519 245.732C179.491 245.927 179.456 246.129 179.416 246.337L178.565 250.426L177.479 250.83L178.369 246.777ZM177.33 246.495C177.567 246.407 177.774 246.288 177.954 246.137C178.131 245.979 178.267 245.802 178.362 245.607C178.462 245.401 178.52 245.182 178.534 244.95C178.546 244.71 178.504 244.461 178.407 244.202C178.314 243.951 178.185 243.738 178.019 243.564C177.853 243.391 177.667 243.262 177.459 243.18C177.257 243.087 177.038 243.042 176.804 243.045C176.567 243.041 176.33 243.082 176.094 243.17C175.857 243.258 175.651 243.381 175.474 243.54C175.295 243.69 175.155 243.869 175.055 244.074C174.959 244.269 174.905 244.487 174.894 244.727C174.882 244.967 174.923 245.212 175.016 245.463C175.112 245.722 175.243 245.938 175.409 246.112C175.572 246.279 175.755 246.408 175.957 246.501C176.165 246.584 176.387 246.627 176.624 246.632C176.858 246.629 177.094 246.583 177.33 246.495Z" fill="white" fill-opacity="0.6"/>
<path d="M95.3128 300.314L94.3818 300.66L91.9087 294.011L91.8865 294.019L90.9201 295.728L90.1145 295.258L91.5854 292.768L92.3944 292.467L95.3128 300.314ZM97.6396 298.237L99.527 294.255C99.6457 294.009 99.7478 293.786 99.8332 293.586C99.9159 293.379 99.9755 293.189 100.012 293.015C100.053 292.832 100.067 292.654 100.054 292.483C100.04 292.311 99.9977 292.129 99.9263 291.937C99.8493 291.73 99.7437 291.559 99.6093 291.424C99.475 291.289 99.3207 291.191 99.1465 291.129C98.977 291.058 98.7925 291.026 98.5932 291.032C98.3985 291.029 98.2015 291.065 98.002 291.139C97.603 291.287 97.3168 291.524 97.1434 291.849C96.97 292.174 96.9164 292.539 96.9827 292.943L95.9412 293.23C95.8748 292.893 95.8664 292.576 95.9161 292.28C95.9704 291.974 96.0745 291.7 96.2283 291.458C96.3895 291.213 96.5917 290.999 96.8348 290.816C97.0752 290.626 97.3543 290.471 97.672 290.353C97.9971 290.232 98.3215 290.166 98.6454 290.155C98.9665 290.137 99.2672 290.176 99.5474 290.274C99.835 290.369 100.091 290.526 100.316 290.745C100.548 290.962 100.728 291.244 100.857 291.591C100.973 291.901 101.033 292.198 101.037 292.482C101.05 292.764 101.022 293.039 100.954 293.308C100.89 293.568 100.802 293.827 100.689 294.088C100.58 294.339 100.46 294.594 100.329 294.853L98.7584 298.023L98.7667 298.045L102.767 296.557L103.089 297.422L98.0353 299.301L97.6396 298.237ZM104.548 297.422L103.747 297.404L103.917 287.652L104.714 287.658L104.548 297.422ZM107.9 294.421L109.787 290.439C109.906 290.193 110.008 289.97 110.093 289.77C110.176 289.563 110.236 289.373 110.272 289.199C110.313 289.016 110.327 288.838 110.314 288.667C110.3 288.495 110.258 288.313 110.186 288.121C110.109 287.914 110.004 287.743 109.869 287.608C109.735 287.473 109.581 287.375 109.407 287.313C109.237 287.242 109.053 287.21 108.853 287.216C108.659 287.213 108.461 287.249 108.262 287.323C107.863 287.471 107.577 287.708 107.403 288.033C107.23 288.358 107.176 288.723 107.243 289.127L106.201 289.414C106.135 289.077 106.126 288.761 106.176 288.464C106.23 288.158 106.335 287.884 106.488 287.642C106.65 287.397 106.852 287.183 107.095 287C107.335 286.81 107.614 286.655 107.932 286.537C108.257 286.416 108.582 286.35 108.905 286.339C109.227 286.321 109.527 286.36 109.807 286.458C110.095 286.553 110.351 286.71 110.576 286.929C110.808 287.146 110.988 287.428 111.117 287.775C111.233 288.085 111.293 288.382 111.298 288.667C111.31 288.948 111.282 289.223 111.214 289.492C111.15 289.752 111.062 290.012 110.949 290.272C110.84 290.523 110.72 290.778 110.589 291.037L109.018 294.207L109.027 294.229L113.028 292.741L113.349 293.606L108.295 295.485L107.9 294.421ZM112.536 287.159C112.421 286.848 112.372 286.547 112.389 286.254C112.414 285.959 112.493 285.686 112.627 285.434C112.76 285.183 112.946 284.958 113.184 284.761C113.419 284.555 113.695 284.394 114.013 284.276C114.33 284.158 114.645 284.099 114.957 284.101C115.266 284.095 115.553 284.144 115.819 284.247C116.084 284.35 116.319 284.507 116.523 284.717C116.735 284.924 116.898 285.183 117.014 285.493C117.083 285.678 117.122 285.874 117.131 286.08C117.141 286.287 117.119 286.489 117.066 286.685C117.013 286.881 116.927 287.069 116.808 287.248C116.697 287.424 116.552 287.574 116.371 287.7L116.38 287.723C116.635 287.686 116.882 287.695 117.121 287.749C117.357 287.796 117.575 287.884 117.774 288.011C117.973 288.139 118.152 288.304 118.311 288.506C118.467 288.7 118.591 288.919 118.681 289.162C118.813 289.517 118.866 289.863 118.84 290.201C118.819 290.528 118.731 290.834 118.576 291.119C118.429 291.401 118.219 291.651 117.947 291.87C117.683 292.086 117.377 292.259 117.03 292.388C116.683 292.517 116.335 292.588 115.986 292.6C115.644 292.609 115.322 292.557 115.019 292.442C114.723 292.325 114.456 292.151 114.219 291.92C113.986 291.678 113.804 291.38 113.672 291.026C113.581 290.782 113.532 290.535 113.523 290.286C113.512 290.03 113.54 289.788 113.607 289.561C113.674 289.334 113.781 289.126 113.929 288.937C114.075 288.74 114.256 288.571 114.473 288.432L114.465 288.409C114.246 288.432 114.034 288.414 113.827 288.356C113.628 288.296 113.444 288.209 113.276 288.095C113.107 287.981 112.959 287.842 112.831 287.68C112.703 287.517 112.605 287.343 112.536 287.159ZM113.484 286.857C113.624 287.233 113.858 287.5 114.185 287.656C114.519 287.809 114.882 287.813 115.274 287.667C115.665 287.521 115.934 287.283 116.08 286.951C116.233 286.616 116.24 286.261 116.099 285.884C115.959 285.507 115.722 285.242 115.387 285.089C115.06 284.933 114.701 284.928 114.309 285.074C113.918 285.219 113.645 285.459 113.492 285.794C113.347 286.126 113.344 286.48 113.484 286.857ZM114.578 290.613C114.663 290.842 114.782 291.037 114.935 291.199C115.088 291.361 115.26 291.486 115.453 291.574C115.65 291.652 115.856 291.698 116.071 291.71C116.291 291.713 116.511 291.673 116.733 291.59C116.955 291.508 117.144 291.395 117.301 291.253C117.463 291.1 117.59 290.931 117.681 290.746C117.776 290.55 117.829 290.342 117.839 290.119C117.848 289.897 117.811 289.671 117.726 289.442C117.64 289.213 117.521 289.018 117.369 288.856C117.216 288.694 117.041 288.574 116.844 288.496C116.651 288.408 116.445 288.363 116.226 288.36C116.011 288.348 115.792 288.382 115.571 288.465C115.349 288.547 115.157 288.665 114.995 288.818C114.838 288.96 114.712 289.129 114.616 289.325C114.525 289.51 114.475 289.713 114.465 289.936C114.455 290.158 114.493 290.384 114.578 290.613Z" fill="white" fill-opacity="0.6"/>
<path d="M77.6506 297.314L80.05 296.422L80.1737 296.754L78.14 297.51L78.6594 298.907L80.5656 298.198L80.6892 298.53L78.783 299.239L79.3519 300.769L81.4742 299.979L81.5978 300.312L79.1098 301.237L77.6506 297.314ZM82.4313 297.655L80.3979 296.292L80.8301 296.131L82.5541 297.307L83.0743 295.297L83.5121 295.134L82.8746 297.49L85.0987 299.01L84.6443 299.179L82.7435 297.867L82.1618 300.102L81.724 300.265L82.4313 297.655ZM84.0458 294.935L85.1763 294.515C85.313 294.464 85.4614 294.428 85.6215 294.406C85.7839 294.379 85.9406 294.382 86.0913 294.414C86.2458 294.445 86.3872 294.515 86.5156 294.622C86.6464 294.725 86.7495 294.878 86.8251 295.081C86.891 295.259 86.9148 295.424 86.8964 295.578C86.8817 295.731 86.8347 295.87 86.7555 295.997C86.6786 296.118 86.5757 296.225 86.4467 296.32C86.3214 296.412 86.1812 296.488 86.0261 296.545L85.1782 296.861L85.8707 298.723L85.505 298.859L84.0458 294.935ZM85.0546 296.528L85.8858 296.219C85.9892 296.181 86.0867 296.132 86.1782 296.073C86.2683 296.01 86.3425 295.938 86.4009 295.857C86.4579 295.773 86.4939 295.678 86.5089 295.571C86.524 295.465 86.5074 295.347 86.4594 295.217C86.4126 295.092 86.3469 294.994 86.2622 294.925C86.1812 294.854 86.0898 294.806 85.9879 294.781C85.8884 294.751 85.782 294.742 85.669 294.754C85.5559 294.767 85.4477 294.793 85.3443 294.831L84.5352 295.132L85.0546 296.528Z" fill="white" fill-opacity="0.6"/>
<path d="M139.603 278.038C139.509 278.363 139.359 278.627 139.153 278.83C138.947 279.033 138.699 279.188 138.411 279.295C138.112 279.406 137.818 279.459 137.53 279.453C137.244 279.441 136.979 279.378 136.734 279.263C136.488 279.144 136.268 278.978 136.075 278.764C135.881 278.546 135.728 278.287 135.617 277.988C135.505 277.689 135.453 277.395 135.459 277.107C135.465 276.818 135.524 276.551 135.634 276.304C135.742 276.053 135.901 275.83 136.11 275.635C136.323 275.438 136.579 275.284 136.878 275.172C137.144 275.073 137.409 275.029 137.674 275.04C137.941 275.046 138.203 275.128 138.459 275.285L138.252 275.645C138.062 275.506 137.855 275.429 137.631 275.416C137.411 275.401 137.201 275.431 137.002 275.505C136.747 275.6 136.532 275.73 136.358 275.895C136.188 276.06 136.06 276.246 135.974 276.455C135.887 276.664 135.844 276.888 135.845 277.127C135.846 277.367 135.892 277.608 135.982 277.852C136.073 278.096 136.196 278.309 136.352 278.49C136.508 278.672 136.687 278.814 136.889 278.915C137.09 279.017 137.309 279.074 137.546 279.087C137.785 279.099 138.033 279.057 138.288 278.963C138.387 278.926 138.487 278.876 138.586 278.814C138.683 278.748 138.773 278.673 138.855 278.588C138.939 278.498 139.013 278.398 139.078 278.29C139.142 278.178 139.189 278.056 139.219 277.922L139.603 278.038ZM138.351 274.738L138.744 274.592L141.288 277.563L141.282 273.648L141.67 273.504L141.639 277.981L141.273 278.117L138.351 274.738ZM146.512 275.468C146.418 275.793 146.269 276.057 146.062 276.26C145.856 276.463 145.609 276.618 145.321 276.725C145.021 276.837 144.728 276.889 144.439 276.883C144.153 276.871 143.888 276.808 143.643 276.693C143.397 276.574 143.178 276.408 142.985 276.194C142.79 275.976 142.637 275.718 142.526 275.418C142.415 275.119 142.362 274.825 142.368 274.537C142.375 274.249 142.433 273.981 142.543 273.734C142.651 273.483 142.81 273.26 143.019 273.065C143.232 272.868 143.488 272.714 143.787 272.603C144.053 272.504 144.319 272.46 144.583 272.471C144.85 272.476 145.112 272.558 145.368 272.715L145.162 273.076C144.971 272.936 144.764 272.86 144.54 272.846C144.32 272.831 144.11 272.861 143.911 272.935C143.656 273.03 143.442 273.16 143.268 273.326C143.098 273.49 142.969 273.676 142.883 273.885C142.796 274.094 142.754 274.318 142.754 274.557C142.755 274.797 142.801 275.038 142.892 275.282C142.982 275.526 143.106 275.739 143.261 275.921C143.417 276.102 143.596 276.244 143.798 276.346C144 276.447 144.219 276.504 144.455 276.518C144.695 276.529 144.942 276.488 145.197 276.393C145.297 276.356 145.396 276.306 145.495 276.244C145.592 276.179 145.682 276.103 145.764 276.018C145.848 275.928 145.923 275.829 145.988 275.72C146.051 275.608 146.098 275.486 146.128 275.353L146.512 275.468Z" fill="white" fill-opacity="0.6"/>
<path d="M153.852 275.513L154.983 275.093L155.304 275.957L154.174 276.377L154.842 278.173L153.911 278.519L153.243 276.724L149.918 277.96L149.535 276.93L150.782 270.751L151.923 270.326L153.852 275.513ZM151.396 271.759L151.374 271.767L150.395 276.799L152.921 275.859L151.396 271.759ZM156.515 276.339L158.402 272.357C158.521 272.111 158.623 271.888 158.708 271.688C158.791 271.481 158.85 271.291 158.887 271.117C158.928 270.934 158.942 270.756 158.929 270.585C158.915 270.413 158.873 270.231 158.801 270.039C158.724 269.832 158.619 269.661 158.484 269.526C158.35 269.391 158.196 269.293 158.022 269.231C157.852 269.16 157.668 269.128 157.468 269.135C157.274 269.131 157.076 269.167 156.877 269.241C156.478 269.389 156.192 269.626 156.018 269.951C155.845 270.276 155.791 270.641 155.858 271.046L154.816 271.332C154.75 270.995 154.741 270.679 154.791 270.383C154.845 270.076 154.95 269.802 155.103 269.56C155.265 269.315 155.467 269.101 155.71 268.918C155.95 268.728 156.229 268.573 156.547 268.455C156.872 268.334 157.197 268.268 157.52 268.257C157.842 268.239 158.142 268.278 158.422 268.376C158.71 268.471 158.966 268.628 159.191 268.847C159.423 269.064 159.603 269.346 159.732 269.693C159.848 270.003 159.908 270.3 159.912 270.585C159.925 270.866 159.897 271.141 159.829 271.411C159.765 271.67 159.677 271.93 159.564 272.19C159.455 272.441 159.335 272.696 159.204 272.955L157.633 276.125L157.642 276.147L161.642 274.659L161.964 275.524L156.91 277.403L156.515 276.339ZM161.476 271.239C161.311 270.796 161.177 270.32 161.072 269.813C160.967 269.305 160.942 268.818 160.996 268.352C161.047 267.879 161.195 267.454 161.442 267.076C161.693 266.689 162.088 266.394 162.628 266.194C163.167 265.993 163.655 265.959 164.091 266.091C164.531 266.213 164.926 266.437 165.273 266.761C165.619 267.079 165.917 267.464 166.17 267.917C166.422 268.369 166.631 268.817 166.796 269.261C166.961 269.704 167.096 270.18 167.2 270.687C167.305 271.195 167.332 271.685 167.281 272.159C167.227 272.624 167.075 273.051 166.823 273.439C166.577 273.816 166.184 274.106 165.645 274.306C165.105 274.507 164.615 274.546 164.175 274.424C163.739 274.292 163.348 274.067 163.003 273.75C162.655 273.425 162.355 273.036 162.102 272.583C161.85 272.131 161.641 271.683 161.476 271.239ZM162.407 270.893C162.479 271.085 162.566 271.297 162.669 271.528C162.771 271.758 162.886 271.989 163.014 272.219C163.146 272.439 163.292 272.65 163.451 272.851C163.618 273.05 163.797 273.215 163.988 273.345C164.187 273.473 164.399 273.558 164.625 273.6C164.849 273.635 165.089 273.604 165.348 273.508C165.607 273.412 165.809 273.278 165.955 273.106C166.099 272.926 166.2 272.724 166.26 272.5C166.327 272.274 166.355 272.032 166.344 271.775C166.34 271.516 166.312 271.261 166.261 271.011C166.215 270.751 166.155 270.5 166.082 270.258C166.009 270.016 165.937 269.799 165.865 269.607C165.794 269.415 165.707 269.203 165.604 268.972C165.501 268.741 165.384 268.516 165.251 268.296C165.124 268.066 164.977 267.852 164.81 267.653C164.651 267.451 164.472 267.286 164.273 267.159C164.082 267.028 163.874 266.945 163.651 266.911C163.425 266.868 163.183 266.896 162.924 266.992C162.666 267.088 162.465 267.226 162.321 267.405C162.175 267.577 162.068 267.777 162.001 268.004C161.942 268.228 161.914 268.469 161.918 268.729C161.929 268.985 161.958 269.244 162.004 269.504C162.055 269.754 162.117 270 162.19 270.242C162.264 270.484 162.336 270.701 162.407 270.893Z" fill="white" fill-opacity="0.6"/>
<g opacity="0.4">
<circle cx="252.51" cy="227.979" r="17.4593" transform="rotate(-20.4016 252.51 227.979)" fill="white"/>
<circle cx="274.329" cy="219.864" r="17.4593" transform="rotate(-20.4016 274.329 219.864)" fill="#939598"/>
<path d="M267.956 236.119C270.19 231.877 270.677 226.739 268.874 221.893C267.072 217.046 263.346 213.475 258.883 211.724C256.65 215.966 256.162 221.104 257.965 225.95C259.767 230.797 263.494 234.367 267.956 236.119Z" fill="#BBBBBF"/>
</g>
</g>
<rect x="19.9281" y="176.243" width="252.437" height="158.628" rx="11.3232" transform="rotate(-20.4016 19.9281 176.243)" stroke="url(#paint0_linear_576_25828)"/>
<defs>
<linearGradient id="paint0_linear_576_25828" x1="27.7842" y1="178.097" x2="76.6458" y2="220.276" gradientUnits="userSpaceOnUse">
<stop stop-color="#ACACAC"/>
<stop offset="0.610061" stop-color="#464646"/>
<stop offset="1" stop-color="#464646" stop-opacity="0.4"/>
</linearGradient>
<clipPath id="clip0_576_25828">
<rect x="19.2852" y="175.949" width="253.437" height="159.628" rx="11.8232" transform="rotate(-20.4016 19.2852 175.949)" fill="white"/>
</clipPath>
</defs>
</svg>
