<svg width="336" height="469" viewBox="0 0 336 469" fill="none" xmlns="http://www.w3.org/2000/svg">
<rect width="336" height="469" rx="16" fill="#2B2B2B"/>
<g clip-path="url(#clip0_812_16857)">
<rect x="19.2852" y="175.949" width="253.437" height="159.628" rx="11.8232" transform="rotate(-20.4016 19.2852 175.949)" fill="#323232"/>
<path d="M50.4146 177.393C46.2686 177.459 43.2159 181.243 44.7971 185.872C43.9392 187.607 43.3903 188.486 42.3398 189.866C40.9478 191.742 40.6783 192.11 39.8435 193.933C38.7617 196.296 40.2264 199.031 42.2857 198.934L49.4031 196.287C49.238 195.986 48.9163 195.799 48.5969 195.918L42.1898 198.301C40.3992 198.374 39.5581 195.66 40.85 193.354L42.4358 197.617L46.4054 196.141C46.1943 195.943 45.8128 195.765 45.4364 195.905L44.6895 196.183C45.1902 195.442 45.3908 195.014 45.4885 194.21C45.5338 193.838 45.4819 193.028 45.3811 192.252L45.6014 192.746C47.3099 191.971 48.1244 191.403 49.2823 190.104L47.9104 188.92L48.3901 188.742L55.0267 194.195L57.4468 193.295C57.3516 193.12 56.9914 192.712 56.4898 192.899L55.5928 193.232C54.8334 192.215 54.4454 191.53 53.7535 190.312L53.7519 190.311C53.7174 190.25 53.6821 190.188 53.646 190.124C52.4389 188.059 51.4782 187.309 49.5505 186.281C43.1927 183.331 45.9716 178.138 50.4146 177.393ZM50.7783 177.584C48.9236 177.737 47.0264 178.994 46.6744 180.675C46.2775 182.571 47.0205 183.689 48.2152 184.548C49.2951 185.325 50.6764 185.873 51.4359 186.375C52.8961 187.34 53.3987 188.145 53.9185 189.484C54.1887 188.178 54.2614 187.489 54.1634 186.817C53.7853 184.857 52.8917 184.029 50.8871 183.155C49.983 182.797 49.522 182.523 48.8447 181.806C47.4995 180.276 48.0408 178.337 50.7783 177.584ZM51.3614 177.835C50.4946 177.686 49.7901 178.478 49.6244 178.751C48.7408 178.422 48.436 179.392 48.8644 179.87C48.7235 180.429 49.0138 181.759 51.3008 182.614C53.5873 183.469 54.5207 185.248 54.7016 186.032C54.6703 185.655 54.5135 184.707 54.136 183.931C53.7904 183.22 53.3461 182.856 52.9852 182.56C52.8531 182.451 52.7318 182.352 52.6309 182.249C52.3296 181.939 52.2819 181.616 52.2956 181.493C52.3003 181.332 52.369 180.973 52.6073 180.824C52.8458 180.674 53.2212 180.643 53.379 180.646C53.8862 180.632 54.0959 180.407 54.1372 180.295C54.1854 180.212 54.2552 179.974 54.1505 179.692C54.0536 179.432 54.021 179.507 53.9977 179.562C53.996 179.566 53.9942 179.569 53.9925 179.573C53.9889 179.581 53.985 179.592 53.98 179.604C53.9547 179.665 53.9082 179.778 53.803 179.921C53.677 180.092 53.4627 180.025 53.3719 179.955C53.4044 179.962 53.5122 179.943 53.6473 179.821C53.7823 179.699 53.9312 179.378 53.983 179.242C53.9467 179.123 53.9191 179.024 53.8965 178.945C53.8315 178.716 53.8088 178.638 53.7457 178.629C53.3649 178.572 53.3406 178.492 53.3965 178.466C53.9356 178.194 53.7162 178.137 53.5325 178.134C53.0642 178.108 52.8358 178.07 52.3882 177.996C52.1398 177.955 51.8235 177.903 51.3614 177.835ZM51.3786 178.453C51.5333 178.232 51.8596 178.411 52.0138 178.505C51.8494 178.506 51.5532 178.562 51.4616 178.676C51.3234 178.85 51.2258 178.848 51.1781 178.824C51.0206 178.74 50.8784 178.779 50.8217 178.802C50.8474 178.791 50.8758 178.779 50.9058 178.767C51.0588 178.706 51.2563 178.628 51.3786 178.453ZM48.9679 179.123C49.0466 178.943 49.2719 178.88 49.432 178.996C49.3316 179.095 49.1599 179.357 49.0654 179.576C48.9325 179.492 48.8804 179.324 48.943 179.18L48.9679 179.123Z" fill="#E1E1E1"/>
<path d="M63.2886 187.578L63.1557 187.221C64.2593 186.779 64.332 186.595 63.8614 185.33L61.3654 178.619C60.8948 177.354 60.7011 177.254 59.5958 177.649L59.4628 177.292L63.6022 175.752C65.1699 175.169 66.4859 174.961 67.4865 175.168C69.1548 175.487 70.3024 176.594 71.0645 178.644C71.8931 180.871 71.7611 182.705 70.6499 184.011C69.9814 184.823 68.872 185.502 67.263 186.1L63.2886 187.578ZM66.1658 186.054L67.1421 185.691C68.3248 185.251 69.1871 184.539 69.5259 183.724C69.9648 182.716 69.8553 181.285 69.2262 179.593C68.6533 178.053 67.94 177.019 67.0316 176.386C66.1231 175.754 64.9194 175.716 63.4617 176.258L62.6366 176.565L66.1658 186.054Z" fill="#E1E1E1"/>
<path d="M74.3848 183.451L74.2518 183.094C75.3555 182.652 75.4281 182.468 74.9576 181.203L72.4616 174.492C71.991 173.227 71.7972 173.127 70.6919 173.522L70.559 173.165L78.1088 170.357L79.4458 173.194L78.9696 173.387C77.9699 171.582 77.0057 171.221 75.0667 171.942L73.719 172.443L75.325 176.761L76.3152 176.393C77.8004 175.841 78.0505 175.419 77.721 174.07L78.1611 173.906L79.496 177.496L79.056 177.659C78.3948 176.387 77.9487 176.24 76.4635 176.792L75.4733 177.16L77.2482 181.932L78.7609 181.37C80.6174 180.679 81.1216 179.678 80.7225 177.384L81.1967 177.27L82.0997 180.582L74.3848 183.451Z" fill="#E1E1E1"/>
<path d="M87.0458 172.324L90.7116 175.109C91.8941 176.015 92.4156 176.197 93.2868 176.014L93.4198 176.372L88.9778 178.024L88.8449 177.666C89.5635 177.367 89.7512 177.157 89.6336 176.84C89.6285 176.827 89.6234 176.813 89.6183 176.799C89.5278 176.598 89.2247 176.288 88.6574 175.857L86.1879 173.974L85.5089 176.778C85.3457 177.433 85.3152 177.899 85.4278 178.201C85.5812 178.614 85.9314 178.671 86.8233 178.418L86.9563 178.776L83.312 180.131L83.179 179.773C83.9373 179.413 84.4651 178.559 84.8331 177.107L85.7012 173.591L82.3028 171.02C81.0586 170.074 80.6262 169.921 79.7979 170.135L79.6649 169.778L84.0931 168.131L84.2261 168.489C83.5212 168.782 83.2922 169.008 83.4047 169.311C83.4814 169.517 83.8274 169.858 84.4426 170.333L86.5934 171.991L87.2065 169.431C87.3489 168.846 87.371 168.274 87.2738 168.012C87.1357 167.641 86.8182 167.587 85.9726 167.839L85.8396 167.481L89.4701 166.131L89.6031 166.489C88.6987 166.919 88.1968 167.716 87.7853 169.388L87.0458 172.324Z" fill="#E1E1E1"/>
<path d="M95.4256 171.665L95.4292 172.853C95.4173 173.453 95.4796 173.915 95.5972 174.231C95.7967 174.767 96.2738 174.872 97.1917 174.562L97.3247 174.919L93.7904 176.234L93.6574 175.876C94.5462 175.53 94.8418 174.809 94.8571 172.957L94.9015 164.111L95.8783 163.622L102.012 170.937C102.645 171.672 103.07 172.015 103.448 172.063C103.624 172.075 103.758 172.057 104.233 171.943L104.366 172.3L99.8826 173.968L99.7496 173.61C100.606 173.261 100.856 172.964 100.687 172.51C100.682 172.497 100.677 172.483 100.671 172.469C100.576 172.254 100.379 171.936 100.128 171.638L99.0423 170.32L95.4256 171.665ZM98.6641 169.85L95.4341 165.964L95.4186 171.057L98.6641 169.85Z" fill="#E1E1E1"/>
<path d="M106.275 166.064L107.42 169.145C107.886 170.396 108.042 170.479 109.185 170.101L109.318 170.459L105.055 172.044L104.922 171.687C106.034 171.226 106.098 171.061 105.633 169.81L103.132 163.085C102.666 161.834 102.51 161.751 101.417 162.095L101.284 161.737L105.492 160.172C106.647 159.742 107.666 159.536 108.313 159.592C109.333 159.683 109.978 160.194 110.356 161.212C110.975 162.876 110.266 164.126 108.154 165.099L108.195 165.209C108.941 165.026 109.518 165.062 110.172 165.304C110.769 165.52 111.161 165.86 112.394 167.154C113.396 168.206 113.727 168.381 114.393 168.195L114.516 168.525L111.807 169.533C110.445 167.848 109.681 166.973 108.996 166.352C108.239 165.663 107.705 165.533 106.825 165.86L106.275 166.064ZM106.126 165.666L106.869 165.389C108.506 164.781 109.079 163.628 108.506 162.088C107.933 160.548 106.878 160.111 105.242 160.719L104.403 161.031L106.126 165.666Z" fill="#E1E1E1"/>
<path d="M115.226 168.261L115.093 167.904C116.274 167.418 116.338 167.253 115.867 165.988L113.371 159.277C112.906 158.025 112.745 157.929 111.588 158.312L111.455 157.954L115.745 156.359L115.878 156.716C114.752 157.182 114.693 157.36 115.159 158.612L117.655 165.323C118.125 166.588 118.295 166.666 119.493 166.267L119.626 166.625L115.226 168.261Z" fill="#E1E1E1"/>
<path d="M210.48 123.512L211.27 123.218L214.881 127.382L214.898 127.376L214.969 121.843L215.708 121.567L215.595 128.309L214.921 128.559L210.48 123.512ZM216.905 123.393L217.554 123.152L219.001 127.042L218.352 127.283L216.905 123.393ZM216.19 121.928C216.143 121.8 216.146 121.673 216.199 121.546C216.259 121.416 216.355 121.327 216.488 121.278C216.621 121.228 216.749 121.234 216.873 121.295C217.002 121.354 217.09 121.448 217.138 121.575C217.189 121.714 217.187 121.844 217.131 121.965C217.076 122.087 216.979 122.174 216.84 122.225C216.702 122.277 216.571 122.275 216.45 122.219C216.328 122.163 216.242 122.066 216.19 121.928ZM219.187 123.595C219.121 123.417 219.054 123.253 218.985 123.102C218.916 122.951 218.858 122.812 218.811 122.684L219.426 122.456C219.465 122.561 219.507 122.665 219.552 122.768C219.596 122.872 219.639 122.979 219.681 123.089L219.697 123.083C219.706 122.973 219.733 122.858 219.778 122.741C219.828 122.621 219.896 122.508 219.982 122.4C220.066 122.287 220.17 122.185 220.295 122.095C220.417 121.999 220.558 121.921 220.719 121.861C220.763 121.845 220.808 121.831 220.855 121.82C220.901 121.809 220.95 121.804 221 121.804L221.203 122.476C221.08 122.484 220.957 122.511 220.835 122.556C220.436 122.704 220.194 122.943 220.108 123.271C220.025 123.592 220.067 123.977 220.234 124.426L220.939 126.321L220.291 126.562L219.187 123.595ZM224.098 121.342L222.951 121.769L223.674 123.714C223.722 123.841 223.769 123.96 223.816 124.068C223.86 124.172 223.918 124.257 223.987 124.326C224.055 124.389 224.137 124.431 224.233 124.452C224.327 124.468 224.446 124.449 224.59 124.395C224.684 124.36 224.777 124.313 224.869 124.254C224.96 124.195 225.042 124.126 225.114 124.049L225.359 124.63C225.266 124.721 225.155 124.803 225.025 124.877C224.9 124.949 224.777 125.007 224.655 125.052C224.422 125.139 224.225 125.178 224.064 125.168C223.903 125.159 223.763 125.113 223.644 125.031C223.525 124.949 223.422 124.833 223.335 124.683C223.251 124.525 223.171 124.346 223.097 124.146L222.303 122.01L221.455 122.325L221.251 121.777L222.099 121.462L221.688 120.356L222.336 120.115L222.747 121.22L223.894 120.794L224.098 121.342ZM229.183 122.204C229.249 122.382 229.317 122.546 229.385 122.697C229.454 122.848 229.512 122.987 229.56 123.115L228.945 123.343C228.905 123.238 228.864 123.134 228.819 123.031C228.774 122.927 228.731 122.82 228.69 122.71L228.673 122.716C228.664 122.826 228.634 122.942 228.584 123.061C228.54 123.179 228.475 123.294 228.391 123.407C228.305 123.515 228.2 123.614 228.076 123.704C227.954 123.8 227.812 123.878 227.652 123.938C227.397 124.033 227.161 124.076 226.944 124.069C226.732 124.059 226.539 124.008 226.366 123.915C226.192 123.821 226.039 123.689 225.906 123.518C225.776 123.339 225.668 123.133 225.582 122.901L224.688 120.498L225.337 120.257L226.205 122.593C226.327 122.92 226.495 123.151 226.709 123.286C226.923 123.42 227.183 123.431 227.487 123.318C227.698 123.239 227.865 123.136 227.987 123.009C228.116 122.879 228.202 122.73 228.247 122.562C228.297 122.392 228.311 122.207 228.287 122.008C228.269 121.806 228.219 121.595 228.136 121.373L227.431 119.478L228.08 119.237L229.183 122.204ZM229.443 119.298C229.566 119.019 229.746 118.781 229.982 118.586C230.222 118.383 230.483 118.229 230.766 118.124C231.342 117.91 231.808 117.891 232.164 118.068C232.52 118.245 232.801 118.61 233.007 119.164L233.629 120.835C233.67 120.946 233.719 121.06 233.775 121.178C233.829 121.29 233.884 121.393 233.937 121.487L233.314 121.718C233.259 121.638 233.209 121.546 233.164 121.443C233.123 121.332 233.087 121.235 233.056 121.152L233.039 121.158C232.986 121.405 232.875 121.632 232.706 121.84C232.543 122.046 232.312 122.205 232.013 122.316C231.813 122.39 231.616 122.435 231.42 122.451C231.229 122.465 231.05 122.45 230.882 122.405C230.718 122.353 230.57 122.269 230.439 122.154C230.307 122.039 230.207 121.887 230.137 121.698C230.017 121.377 230.007 121.094 230.105 120.849C230.203 120.605 230.358 120.393 230.568 120.213C230.785 120.032 231.03 119.877 231.305 119.75C231.584 119.621 231.844 119.512 232.082 119.423L232.331 119.331L232.288 119.214C232.183 118.932 232.018 118.75 231.792 118.67C231.572 118.588 231.31 118.603 231.005 118.717C230.795 118.795 230.6 118.908 230.422 119.057C230.247 119.197 230.109 119.368 230.008 119.57L229.443 119.298ZM231.887 120.12C231.471 120.275 231.163 120.456 230.963 120.663C230.762 120.87 230.711 121.106 230.81 121.372C230.901 121.616 231.046 121.761 231.246 121.806C231.449 121.844 231.673 121.818 231.917 121.727C232.105 121.657 232.257 121.566 232.373 121.453C232.493 121.333 232.58 121.203 232.635 121.063C232.69 120.922 232.716 120.774 232.715 120.617C232.711 120.454 232.682 120.291 232.628 120.128L232.535 119.879L231.887 120.12ZM232.785 114.762L233.433 114.521L235.77 120.805L235.122 121.046L232.785 114.762ZM241.057 115.517C240.857 115.403 240.663 115.339 240.475 115.327C240.286 115.309 240.094 115.336 239.9 115.408C239.684 115.489 239.507 115.599 239.37 115.738C239.23 115.872 239.13 116.026 239.068 116.2C239.013 116.372 238.99 116.557 239.001 116.755C239.009 116.948 239.05 117.144 239.125 117.343C239.199 117.543 239.299 117.72 239.426 117.874C239.557 118.021 239.702 118.141 239.862 118.233C240.028 118.322 240.206 118.376 240.395 118.394C240.583 118.406 240.776 118.375 240.976 118.301C241.402 118.142 241.672 117.859 241.786 117.451L242.438 117.729C242.33 118.015 242.167 118.255 241.949 118.45C241.731 118.645 241.481 118.794 241.198 118.899C240.899 119.011 240.606 119.063 240.32 119.056C240.033 119.049 239.767 118.987 239.522 118.87C239.282 118.751 239.066 118.585 238.874 118.373C238.687 118.159 238.538 117.902 238.426 117.603C238.317 117.309 238.263 117.02 238.265 116.736C238.272 116.449 238.33 116.182 238.439 115.933C238.548 115.684 238.706 115.464 238.913 115.274C239.123 115.076 239.378 114.921 239.677 114.81C239.965 114.703 240.256 114.652 240.548 114.657C240.845 114.66 241.13 114.73 241.402 114.869L241.057 115.517ZM242.073 114.6C242.196 114.321 242.376 114.084 242.612 113.889C242.852 113.686 243.114 113.532 243.396 113.427C243.973 113.212 244.439 113.194 244.795 113.37C245.15 113.547 245.431 113.913 245.638 114.467L246.259 116.137C246.3 116.248 246.349 116.362 246.405 116.48C246.46 116.593 246.514 116.695 246.567 116.789L245.944 117.021C245.889 116.94 245.839 116.849 245.794 116.745C245.753 116.635 245.717 116.538 245.686 116.454L245.67 116.461C245.616 116.708 245.505 116.935 245.337 117.143C245.173 117.348 244.942 117.507 244.643 117.618C244.443 117.693 244.246 117.738 244.05 117.754C243.86 117.768 243.68 117.752 243.512 117.708C243.348 117.655 243.2 117.572 243.069 117.456C242.938 117.341 242.837 117.189 242.767 117.001C242.647 116.679 242.637 116.396 242.735 116.152C242.833 115.907 242.988 115.695 243.199 115.516C243.415 115.334 243.66 115.18 243.935 115.053C244.215 114.923 244.474 114.814 244.712 114.726L244.961 114.633L244.918 114.517C244.813 114.234 244.648 114.053 244.422 113.972C244.203 113.89 243.94 113.906 243.635 114.019C243.425 114.097 243.231 114.211 243.052 114.359C242.878 114.5 242.739 114.671 242.638 114.873L242.073 114.6ZM244.517 115.423C244.101 115.577 243.793 115.758 243.593 115.965C243.392 116.172 243.342 116.409 243.44 116.675C243.531 116.919 243.676 117.063 243.876 117.109C244.08 117.147 244.303 117.12 244.547 117.03C244.735 116.959 244.888 116.868 245.003 116.756C245.123 116.636 245.21 116.505 245.265 116.365C245.32 116.225 245.347 116.076 245.345 115.919C245.341 115.756 245.312 115.594 245.258 115.431L245.165 115.182L244.517 115.423ZM246.591 113.403C246.525 113.225 246.457 113.061 246.388 112.91C246.32 112.759 246.262 112.62 246.214 112.492L246.829 112.264C246.868 112.369 246.91 112.473 246.955 112.576C247 112.68 247.043 112.787 247.084 112.897L247.101 112.891C247.11 112.781 247.137 112.666 247.181 112.549C247.232 112.429 247.3 112.316 247.386 112.208C247.47 112.095 247.574 111.993 247.698 111.903C247.82 111.807 247.961 111.729 248.122 111.669C248.166 111.653 248.212 111.639 248.258 111.628C248.305 111.617 248.353 111.612 248.403 111.612L248.606 112.284C248.483 112.292 248.36 112.319 248.239 112.364C247.84 112.512 247.597 112.751 247.511 113.079C247.429 113.4 247.471 113.785 247.638 114.234L248.343 116.129L247.694 116.37L246.591 113.403ZM253.447 113.445L253.43 113.451C253.391 113.718 253.267 113.979 253.059 114.233C252.854 114.479 252.577 114.667 252.228 114.797C251.956 114.898 251.683 114.943 251.408 114.932C251.13 114.915 250.869 114.849 250.623 114.732C250.384 114.613 250.167 114.447 249.975 114.235C249.783 114.023 249.632 113.77 249.522 113.476C249.413 113.182 249.362 112.892 249.369 112.606C249.376 112.319 249.434 112.052 249.544 111.803C249.653 111.554 249.814 111.333 250.026 111.141C250.242 110.941 250.502 110.784 250.807 110.671C251.089 110.566 251.369 110.528 251.645 110.558C251.926 110.585 252.195 110.672 252.45 110.816L252.467 110.81L251.366 107.851L252.015 107.61L254.352 113.894L253.704 114.135L253.447 113.445ZM252.98 112.19C252.904 111.985 252.801 111.809 252.67 111.662C252.543 111.507 252.395 111.389 252.226 111.307C252.055 111.219 251.87 111.171 251.671 111.163C251.476 111.147 251.273 111.178 251.063 111.257C250.852 111.335 250.675 111.445 250.532 111.586C250.393 111.72 250.287 111.876 250.214 112.055C250.14 112.228 250.102 112.415 250.102 112.617C250.105 112.811 250.144 113.011 250.221 113.216C250.297 113.421 250.398 113.601 250.525 113.756C250.656 113.903 250.807 114.02 250.978 114.108C251.147 114.19 251.33 114.239 251.525 114.255C251.723 114.263 251.928 114.228 252.138 114.149C252.349 114.071 252.524 113.965 252.663 113.831C252.806 113.69 252.915 113.532 252.989 113.36C253.062 113.181 253.097 112.995 253.094 112.8C253.094 112.598 253.056 112.395 252.98 112.19Z" fill="white" fill-opacity="0.6"/>
<path d="M70.3039 264.755C70.0765 264.596 69.8193 264.515 69.5324 264.512C69.2501 264.499 68.9722 264.544 68.6989 264.645C68.5363 264.706 68.3843 264.783 68.2429 264.878C68.1089 264.97 67.9942 265.08 67.8988 265.208C67.8108 265.333 67.7546 265.476 67.7302 265.637C67.703 265.79 67.7224 265.955 67.7884 266.132C67.8873 266.398 68.0552 266.567 68.2922 266.639C68.5291 266.71 68.8035 266.747 69.1153 266.749C69.4271 266.751 69.7635 266.739 70.1243 266.714C70.4851 266.689 70.8338 266.711 71.1704 266.779C71.5069 266.848 71.8198 266.988 72.1089 267.2C72.398 267.412 72.6292 267.751 72.8023 268.216C72.9589 268.637 73.0187 269.035 72.9817 269.411C72.942 269.779 72.8276 270.116 72.6386 270.422C72.4569 270.725 72.2117 270.992 71.9029 271.225C71.5941 271.458 71.2476 271.645 70.8635 271.788C70.3758 271.97 69.8764 272.063 69.3653 272.068C68.8541 272.073 68.3646 271.944 67.8966 271.681L68.5702 270.269C68.8363 270.465 69.1336 270.586 69.4619 270.632C69.7948 270.668 70.1165 270.628 70.4268 270.512C70.5893 270.452 70.7436 270.369 70.8897 270.265C71.0358 270.16 71.1588 270.038 71.2588 269.9C71.3588 269.762 71.4247 269.611 71.4565 269.448C71.4856 269.278 71.4672 269.104 71.4012 268.926C71.294 268.638 71.1193 268.451 70.8768 268.364C70.6344 268.278 70.3573 268.234 70.0454 268.232C69.7309 268.223 69.3932 268.231 69.0323 268.256C68.6715 268.281 68.3242 268.263 67.9904 268.202C67.6538 268.133 67.3423 267.997 67.056 267.792C66.7668 267.58 66.5357 267.241 66.3626 266.776C66.2114 266.37 66.1622 265.988 66.2148 265.632C66.2748 265.274 66.4021 264.949 66.5966 264.658C66.7958 264.357 67.0512 264.093 67.3627 263.868C67.6742 263.643 68.011 263.463 68.373 263.328C68.7868 263.175 69.2091 263.089 69.64 263.072C70.0783 263.052 70.5062 263.128 70.9237 263.301L70.3039 264.755ZM74.7335 261.19L75.9415 260.741L82.24 267.33L80.6441 267.923L79.2449 266.4L75.8425 267.666L75.801 269.725L74.2384 270.306L74.7335 261.19ZM78.3121 265.385L75.917 262.642L75.8739 266.291L78.3121 265.385ZM81.2531 260.203L78.8482 261.098L78.3783 259.834L84.5846 257.526L85.0545 258.789L82.6496 259.684L85.098 266.267L83.7016 266.786L81.2531 260.203ZM86.5905 261.284C86.3569 260.656 86.2487 260.048 86.266 259.462C86.2805 258.868 86.4015 258.322 86.6289 257.825C86.8636 257.326 87.1965 256.887 87.6275 256.508C88.0631 256.119 88.5838 255.812 89.1896 255.586C89.8001 255.351 90.396 255.234 90.9772 255.237C91.5557 255.232 92.097 255.342 92.6011 255.566C93.1051 255.791 93.5554 256.12 93.9519 256.553C94.3484 256.985 94.6634 257.516 94.897 258.144C95.1251 258.757 95.2291 259.353 95.2091 259.933C95.1891 260.512 95.0617 261.051 94.8269 261.551C94.5921 262.05 94.2583 262.498 93.8255 262.895C93.3899 263.284 92.8668 263.596 92.2563 263.832C91.6505 264.057 91.0569 264.168 90.4757 264.166C89.8991 264.153 89.3601 264.038 88.8588 263.821C88.3621 263.594 87.9169 263.267 87.5232 262.842C87.1295 262.416 86.8186 261.897 86.5905 261.284ZM88.0204 260.651C88.177 261.072 88.3841 261.437 88.6416 261.745C88.9065 262.05 89.2052 262.288 89.5379 262.458C89.8705 262.629 90.2268 262.728 90.6068 262.755C90.9943 262.779 91.3912 262.715 91.7975 262.564C92.2039 262.413 92.5458 262.202 92.8233 261.93C93.1009 261.659 93.3097 261.35 93.45 261.003C93.5902 260.657 93.6572 260.283 93.6509 259.882C93.652 259.477 93.5742 259.065 93.4176 258.644C93.272 258.252 93.0694 257.911 92.8101 257.621C92.558 257.328 92.2671 257.099 91.9373 256.936C91.6046 256.765 91.246 256.672 90.8613 256.655C90.4739 256.631 90.077 256.694 89.6706 256.845C89.2643 256.997 88.9223 257.208 88.6448 257.479C88.3719 257.741 88.1654 258.045 88.0251 258.391C87.8821 258.73 87.8073 259.094 87.8007 259.484C87.8015 259.87 87.8748 260.259 88.0204 260.651ZM99.2441 253.991C99.0167 253.832 98.7595 253.751 98.4725 253.748C98.1903 253.736 97.9124 253.78 97.6391 253.882C97.4765 253.942 97.3245 254.02 97.1831 254.114C97.0491 254.206 96.9344 254.316 96.839 254.444C96.751 254.57 96.6948 254.712 96.6704 254.873C96.6432 255.026 96.6626 255.191 96.7286 255.368C96.8275 255.634 96.9954 255.803 97.2324 255.875C97.4693 255.947 97.7437 255.983 98.0555 255.985C98.3673 255.987 98.7037 255.975 99.0645 255.95C99.4253 255.926 99.774 255.947 100.111 256.016C100.447 256.084 100.76 256.224 101.049 256.436C101.338 256.648 101.569 256.987 101.742 257.452C101.899 257.873 101.959 258.272 101.922 258.647C101.882 259.015 101.768 259.352 101.579 259.658C101.397 259.961 101.152 260.229 100.843 260.461C100.534 260.694 100.188 260.882 99.8036 261.025C99.316 261.206 98.8166 261.299 98.3055 261.304C97.7943 261.309 97.3048 261.18 96.8368 260.917L97.5104 259.506C97.7765 259.701 98.0737 259.822 98.4021 259.868C98.735 259.904 99.0567 259.864 99.367 259.749C99.5295 259.688 99.6838 259.606 99.8299 259.501C99.976 259.396 100.099 259.275 100.199 259.137C100.299 258.998 100.365 258.848 100.397 258.685C100.426 258.514 100.407 258.34 100.341 258.163C100.234 257.875 100.059 257.687 99.817 257.601C99.5746 257.514 99.2975 257.47 98.9856 257.468C98.6711 257.459 98.3334 257.467 97.9725 257.492C97.6117 257.517 97.2644 257.499 96.9306 257.438C96.594 257.37 96.2825 257.233 95.9962 257.029C95.707 256.817 95.4759 256.478 95.3028 256.012C95.1516 255.606 95.1024 255.225 95.155 254.869C95.215 254.51 95.3423 254.185 95.5368 253.894C95.736 253.593 95.9914 253.33 96.3029 253.105C96.6144 252.879 96.9512 252.699 97.3132 252.565C97.727 252.411 98.1493 252.325 98.5802 252.308C99.0185 252.288 99.4464 252.364 99.8639 252.537L99.2441 253.991ZM101.136 251.37L102.532 250.851L103.695 253.976L107.363 252.612L106.2 249.486L107.597 248.967L110.515 256.814L109.119 257.333L107.833 253.875L104.164 255.24L105.45 258.697L104.054 259.217L101.136 251.37ZM109.317 248.327L110.713 247.808L113.632 255.654L112.235 256.174L109.317 248.327ZM115.714 245.948L117.565 245.26L123.534 249.675L123.556 249.667L121.388 243.838L122.785 243.318L125.703 251.165L123.93 251.824L117.813 247.249L117.791 247.257L120.029 253.275L118.632 253.795L115.714 245.948ZM127.073 241.724L128.281 241.274L134.579 247.864L132.983 248.457L131.584 246.934L128.182 248.199L128.14 250.258L126.577 250.84L127.073 241.724ZM130.651 245.918L128.256 243.176L128.213 246.825L130.651 245.918ZM132.533 239.693L133.929 239.173L135.166 242.498L135.232 242.473L137.243 237.941L139.127 237.24L136.806 242.229L142.289 244.996L140.327 245.726L135.491 243.134L135.413 243.163L136.847 247.02L135.451 247.539L132.533 239.693ZM142.657 235.927L143.865 235.478L150.164 242.067L148.568 242.661L147.169 241.137L143.766 242.403L143.725 244.462L142.162 245.043L142.657 235.927ZM146.236 240.122L143.841 237.379L143.798 241.029L146.236 240.122ZM148.151 233.884L150.279 233.093L154.418 237.81L154.49 231.526L156.596 230.743L159.514 238.59L158.184 239.084L155.76 232.568L155.738 232.576L155.779 239.979L154.804 240.341L149.998 234.711L149.975 234.719L152.399 241.236L151.069 241.73L148.151 233.884ZM159.428 234.193C159.194 233.565 159.086 232.958 159.104 232.371C159.118 231.777 159.239 231.232 159.466 230.735C159.701 230.236 160.034 229.796 160.465 229.418C160.901 229.028 161.421 228.721 162.027 228.496C162.638 228.26 163.234 228.144 163.815 228.146C164.393 228.142 164.935 228.251 165.439 228.476C165.943 228.701 166.393 229.029 166.789 229.462C167.186 229.895 167.501 230.426 167.735 231.054C167.963 231.667 168.067 232.263 168.047 232.842C168.027 233.422 167.899 233.961 167.664 234.461C167.43 234.96 167.096 235.408 166.663 235.804C166.227 236.194 165.704 236.506 165.094 236.741C164.488 236.967 163.894 237.078 163.313 237.076C162.737 237.063 162.198 236.948 161.696 236.731C161.2 236.503 160.754 236.177 160.361 235.752C159.967 235.326 159.656 234.807 159.428 234.193ZM160.858 233.561C161.015 233.982 161.222 234.346 161.479 234.654C161.744 234.959 162.043 235.197 162.375 235.368C162.708 235.539 163.064 235.637 163.444 235.664C163.832 235.688 164.229 235.625 164.635 235.474C165.041 235.323 165.383 235.111 165.661 234.84C165.938 234.569 166.147 234.26 166.288 233.913C166.428 233.566 166.495 233.193 166.488 232.791C166.49 232.387 166.412 231.974 166.255 231.553C166.109 231.162 165.907 230.821 165.648 230.53C165.396 230.237 165.105 230.009 164.775 229.846C164.442 229.675 164.084 229.581 163.699 229.565C163.311 229.541 162.915 229.604 162.508 229.755C162.102 229.906 161.76 230.118 161.482 230.389C161.209 230.65 161.003 230.954 160.863 231.301C160.72 231.64 160.645 232.004 160.638 232.393C160.639 232.78 160.712 233.169 160.858 233.561ZM169.686 227.313L167.281 228.207L166.812 226.944L173.018 224.635L173.488 225.899L171.083 226.793L173.531 233.376L172.135 233.896L169.686 227.313ZM175.024 228.393C174.79 227.765 174.682 227.158 174.699 226.571C174.714 225.977 174.835 225.431 175.062 224.935C175.297 224.435 175.63 223.996 176.061 223.617C176.496 223.228 177.017 222.921 177.623 222.695C178.233 222.46 178.829 222.343 179.41 222.346C179.989 222.341 180.53 222.451 181.034 222.676C181.538 222.9 181.989 223.229 182.385 223.662C182.782 224.095 183.097 224.625 183.33 225.253C183.558 225.866 183.662 226.463 183.642 227.042C183.622 227.621 183.495 228.161 183.26 228.66C183.025 229.16 182.692 229.608 182.259 230.004C181.823 230.393 181.3 230.705 180.69 230.941C180.084 231.166 179.49 231.278 178.909 231.275C178.332 231.262 177.793 231.148 177.292 230.93C176.795 230.703 176.35 230.377 175.956 229.951C175.563 229.526 175.252 229.006 175.024 228.393ZM176.454 227.76C176.61 228.181 176.817 228.546 177.075 228.854C177.34 229.159 177.638 229.397 177.971 229.568C178.304 229.738 178.66 229.837 179.04 229.864C179.427 229.888 179.824 229.824 180.231 229.673C180.637 229.522 180.979 229.311 181.257 229.039C181.534 228.768 181.743 228.459 181.883 228.113C182.023 227.766 182.09 227.392 182.084 226.991C182.085 226.587 182.007 226.174 181.851 225.753C181.705 225.361 181.503 225.02 181.243 224.73C180.991 224.437 180.7 224.209 180.37 224.045C180.038 223.875 179.679 223.781 179.295 223.764C178.907 223.74 178.51 223.804 178.104 223.955C177.697 224.106 177.356 224.317 177.078 224.589C176.805 224.85 176.599 225.154 176.458 225.5C176.315 225.839 176.241 226.204 176.234 226.593C176.235 226.98 176.308 227.369 176.454 227.76Z" fill="white" fill-opacity="0.9"/>
<path d="M77.7115 284.909L78.8419 284.489L79.1634 285.353L78.033 285.773L78.7008 287.569L77.7698 287.915L77.1021 286.12L73.7773 287.356L73.394 286.326L74.6409 280.147L75.7824 279.722L77.7115 284.909ZM75.2555 281.155L75.2333 281.163L74.2537 286.195L76.7806 285.255L75.2555 281.155ZM80.3738 285.735L82.2611 281.753C82.3799 281.507 82.482 281.284 82.5674 281.084C82.6501 280.877 82.7096 280.687 82.7461 280.513C82.7872 280.33 82.801 280.152 82.7876 279.981C82.7743 279.809 82.7318 279.627 82.6604 279.435C82.5835 279.228 82.4778 279.057 82.3435 278.922C82.2091 278.787 82.0549 278.689 81.8807 278.627C81.7111 278.556 81.5266 278.524 81.3273 278.531C81.1327 278.527 80.9356 278.563 80.7361 278.637C80.3371 278.785 80.051 279.022 79.8776 279.347C79.7041 279.672 79.6506 280.037 79.7168 280.442L78.6753 280.728C78.6089 280.391 78.6005 280.075 78.6502 279.779C78.7046 279.472 78.8086 279.198 78.9624 278.956C79.1236 278.711 79.3258 278.497 79.569 278.314C79.8093 278.124 80.0884 277.969 80.4061 277.851C80.7312 277.73 81.0557 277.664 81.3795 277.653C81.7007 277.635 82.0013 277.674 82.2815 277.772C82.5691 277.867 82.8252 278.024 83.0497 278.243C83.2816 278.46 83.4622 278.742 83.5913 279.089C83.7067 279.399 83.7668 279.696 83.7716 279.981C83.7838 280.262 83.7558 280.537 83.6877 280.807C83.6243 281.066 83.5359 281.326 83.4227 281.586C83.3141 281.837 83.1944 282.092 83.0636 282.351L81.4926 285.521L81.5008 285.543L85.5016 284.055L85.8231 284.92L80.7695 286.799L80.3738 285.735ZM85.3355 280.635C85.1706 280.192 85.0358 279.716 84.9311 279.209C84.8264 278.701 84.8009 278.214 84.8548 277.748C84.9059 277.275 85.0546 276.85 85.3011 276.472C85.5521 276.085 85.9473 275.79 86.4867 275.59C87.026 275.389 87.5137 275.355 87.9498 275.487C88.3905 275.609 88.7847 275.833 89.1326 276.157C89.4778 276.475 89.7766 276.86 90.0291 277.313C90.2816 277.765 90.4903 278.213 90.6551 278.657C90.82 279.1 90.9548 279.576 91.0595 280.083C91.1643 280.591 91.1911 281.081 91.14 281.555C91.0862 282.02 90.9337 282.447 90.6826 282.835C90.4362 283.212 90.0433 283.502 89.5039 283.702C88.9646 283.903 88.4746 283.942 88.0339 283.82C87.5978 283.688 87.2073 283.463 86.8621 283.146C86.5143 282.821 86.2141 282.432 85.9616 281.979C85.7091 281.527 85.5004 281.079 85.3355 280.635ZM86.2664 280.289C86.3379 280.481 86.425 280.693 86.5277 280.924C86.6304 281.154 86.7456 281.385 86.8732 281.615C87.0054 281.835 87.1511 282.046 87.3102 282.247C87.4766 282.446 87.6556 282.611 87.8472 282.741C88.0461 282.869 88.2586 282.954 88.4845 282.996C88.7077 283.031 88.9486 283 89.2072 282.904C89.4658 282.808 89.6682 282.674 89.8144 282.502C89.9579 282.322 90.0595 282.12 90.1191 281.896C90.1862 281.67 90.214 281.428 90.2027 281.171C90.1988 280.912 90.1714 280.657 90.1204 280.407C90.074 280.147 90.0143 279.896 89.9411 279.654C89.8679 279.412 89.7956 279.195 89.7242 279.003C89.6527 278.811 89.5657 278.599 89.463 278.368C89.3602 278.137 89.2428 277.912 89.1105 277.692C88.9829 277.462 88.8358 277.248 88.6694 277.049C88.5103 276.847 88.3313 276.682 88.1324 276.555C87.9408 276.424 87.7334 276.341 87.5103 276.307C87.2843 276.264 87.0421 276.292 86.7835 276.388C86.5249 276.484 86.3238 276.622 86.1803 276.801C86.0341 276.973 85.9275 277.173 85.8604 277.4C85.8008 277.624 85.7729 277.865 85.7768 278.125C85.7881 278.381 85.817 278.64 85.8633 278.9C85.9143 279.15 85.9764 279.396 86.0495 279.638C86.1227 279.88 86.195 280.097 86.2664 280.289ZM91.4937 278.345C91.3288 277.902 91.194 277.426 91.0893 276.918C90.9845 276.411 90.9591 275.924 91.0129 275.458C91.064 274.985 91.2128 274.559 91.4592 274.182C91.7103 273.794 92.1055 273.5 92.6449 273.299C93.1842 273.099 93.6719 273.065 94.108 273.197C94.5486 273.319 94.9429 273.542 95.2908 273.867C95.6359 274.184 95.9347 274.569 96.1872 275.022C96.4397 275.475 96.6484 275.923 96.8133 276.366C96.9782 276.81 97.113 277.285 97.2177 277.793C97.3225 278.301 97.3493 278.791 97.2982 279.264C97.2443 279.73 97.0919 280.157 96.8408 280.544C96.5944 280.922 96.2015 281.211 95.6621 281.412C95.1228 281.612 94.6327 281.652 94.1921 281.53C93.756 281.397 93.3654 281.173 93.0203 280.855C92.6724 280.53 92.3722 280.142 92.1197 279.689C91.8672 279.236 91.6586 278.788 91.4937 278.345ZM92.4246 277.999C92.4961 278.191 92.5831 278.402 92.6859 278.633C92.7886 278.864 92.9037 279.095 93.0314 279.325C93.1636 279.545 93.3093 279.755 93.4684 279.957C93.6348 280.156 93.8138 280.32 94.0054 280.451C94.2043 280.579 94.4167 280.664 94.6427 280.706C94.8659 280.741 95.1067 280.71 95.3653 280.614C95.6239 280.518 95.8263 280.383 95.9726 280.211C96.1161 280.032 96.2176 279.83 96.2773 279.606C96.3443 279.379 96.3722 279.138 96.3609 278.881C96.357 278.622 96.3295 278.367 96.2785 278.117C96.2322 277.857 96.1724 277.605 96.0993 277.364C96.0261 277.122 95.9538 276.905 95.8824 276.713C95.8109 276.52 95.7238 276.309 95.6211 276.078C95.5184 275.847 95.4009 275.622 95.2687 275.402C95.1411 275.172 94.994 274.957 94.8276 274.758C94.6685 274.557 94.4895 274.392 94.2905 274.264C94.099 274.134 93.8916 274.051 93.6684 274.016C93.4425 273.974 93.2002 274.001 92.9417 274.097C92.6831 274.193 92.482 274.331 92.3385 274.511C92.1923 274.683 92.0856 274.882 92.0186 275.109C91.959 275.333 91.9311 275.575 91.935 275.834C91.9463 276.091 91.9751 276.349 92.0215 276.609C92.0725 276.86 92.1346 277.106 92.2077 277.348C92.2809 277.589 92.3532 277.806 92.4246 277.999ZM105.764 277.503L104.833 277.849L102.36 271.2L102.338 271.208L101.371 272.917L100.566 272.447L102.037 269.958L102.846 269.657L105.764 277.503ZM108.091 275.427L109.978 271.445C110.097 271.199 110.199 270.976 110.285 270.776C110.367 270.568 110.427 270.378 110.463 270.205C110.504 270.021 110.518 269.843 110.505 269.672C110.491 269.5 110.449 269.318 110.378 269.126C110.301 268.919 110.195 268.748 110.061 268.613C109.926 268.478 109.772 268.38 109.598 268.319C109.428 268.247 109.244 268.215 109.045 268.222C108.85 268.218 108.653 268.254 108.453 268.328C108.054 268.476 107.768 268.713 107.595 269.038C107.421 269.364 107.368 269.728 107.434 270.133L106.393 270.419C106.326 270.082 106.318 269.766 106.367 269.47C106.422 269.164 106.526 268.889 106.68 268.647C106.841 268.402 107.043 268.188 107.286 268.005C107.527 267.815 107.806 267.661 108.123 267.542C108.448 267.422 108.773 267.356 109.097 267.344C109.418 267.326 109.719 267.365 109.999 267.463C110.286 267.558 110.542 267.715 110.767 267.934C110.999 268.151 111.179 268.433 111.309 268.78C111.424 269.09 111.484 269.388 111.489 269.672C111.501 269.953 111.473 270.228 111.405 270.498C111.342 270.757 111.253 271.017 111.14 271.278C111.031 271.528 110.912 271.783 110.781 272.042L109.21 275.212L109.218 275.235L113.219 273.747L113.54 274.611L108.487 276.491L108.091 275.427ZM114.67 269.044L114.958 268.937C115.15 268.865 115.344 268.776 115.54 268.67C115.743 268.56 115.912 268.426 116.046 268.267C116.188 268.105 116.281 267.915 116.326 267.696C116.375 267.467 116.345 267.205 116.235 266.91C116.087 266.511 115.845 266.243 115.508 266.108C115.176 265.962 114.811 265.963 114.412 266.112C114.08 266.236 113.819 266.417 113.63 266.655C113.441 266.893 113.33 267.183 113.297 267.523L112.271 267.514C112.299 266.999 112.474 266.555 112.798 266.182C113.129 265.807 113.546 265.525 114.049 265.339C114.359 265.223 114.671 265.158 114.985 265.142C115.306 265.123 115.605 265.159 115.883 265.249C116.16 265.34 116.41 265.491 116.632 265.703C116.851 265.907 117.023 266.179 117.15 266.519C117.304 266.933 117.317 267.353 117.189 267.779C117.066 268.194 116.829 268.539 116.476 268.813L116.485 268.835C116.752 268.786 117.004 268.785 117.24 268.832C117.484 268.876 117.709 268.961 117.915 269.086C118.119 269.203 118.299 269.359 118.455 269.554C118.611 269.748 118.735 269.967 118.825 270.21C118.966 270.587 119.018 270.942 118.982 271.275C118.946 271.608 118.845 271.915 118.68 272.195C118.515 272.475 118.292 272.722 118.01 272.936C117.735 273.147 117.424 273.318 117.077 273.447C116.479 273.67 115.91 273.734 115.37 273.64C114.831 273.547 114.353 273.245 113.936 272.735L114.763 272.075C115.052 272.446 115.352 272.676 115.662 272.762C115.972 272.849 116.344 272.811 116.78 272.649C117.002 272.567 117.195 272.453 117.36 272.307C117.524 272.162 117.652 271.997 117.743 271.812C117.839 271.616 117.893 271.411 117.905 271.196C117.922 270.971 117.888 270.744 117.803 270.515C117.696 270.227 117.548 270.009 117.358 269.861C117.173 269.702 116.964 269.603 116.73 269.564C116.502 269.515 116.26 269.508 116.004 269.544C115.748 269.58 115.499 269.644 115.255 269.734L114.967 269.842L114.67 269.044ZM123.903 267.729L125.034 267.309L125.355 268.173L124.225 268.593L124.893 270.389L123.962 270.735L123.294 268.94L119.969 270.176L119.586 269.146L120.833 262.967L121.974 262.542L123.903 267.729ZM121.447 263.975L121.425 263.983L120.445 269.015L122.972 268.075L121.447 263.975ZM132.148 259.742L128.945 260.934L129.699 263.063C129.819 262.934 129.964 262.826 130.133 262.737C130.307 262.639 130.475 262.56 130.638 262.499C131.014 262.359 131.379 262.299 131.731 262.32C132.088 262.33 132.422 262.412 132.731 262.566C133.038 262.712 133.31 262.923 133.546 263.196C133.78 263.463 133.965 263.781 134.103 264.15C134.248 264.542 134.311 264.926 134.292 265.303C134.277 265.67 134.19 266.014 134.032 266.334C133.878 266.643 133.658 266.923 133.372 267.172C133.094 267.418 132.762 267.613 132.378 267.756C131.78 267.979 131.248 268.029 130.782 267.908C130.324 267.784 129.907 267.544 129.53 267.188L130.329 266.487C130.572 266.733 130.854 266.902 131.173 266.993C131.498 267.074 131.827 267.053 132.159 266.929C132.395 266.841 132.598 266.72 132.768 266.564C132.941 266.399 133.073 266.211 133.163 266.001C133.258 265.78 133.309 265.543 133.315 265.288C133.321 265.034 133.273 264.77 133.172 264.496C133.065 264.208 132.918 263.972 132.732 263.789C132.554 263.603 132.348 263.469 132.116 263.388C131.888 263.296 131.643 263.257 131.379 263.271C131.112 263.277 130.842 263.332 130.569 263.433C130.303 263.532 130.047 263.682 129.802 263.882C129.554 264.075 129.338 264.286 129.154 264.514L127.715 260.407L131.826 258.878L132.148 259.742ZM136.208 260.97L136.239 260.984C136.356 260.848 136.504 260.725 136.683 260.617C136.868 260.506 137.042 260.42 137.205 260.359C137.545 260.233 137.881 260.175 138.213 260.186C138.552 260.195 138.867 260.271 139.156 260.416C139.45 260.551 139.713 260.747 139.943 261.006C140.174 261.265 140.357 261.576 140.492 261.938C140.635 262.322 140.696 262.69 140.676 263.043C140.655 263.395 140.567 263.722 140.41 264.024C140.25 264.319 140.03 264.586 139.749 264.825C139.473 265.054 139.15 265.238 138.78 265.375C138.411 265.512 138.043 265.586 137.677 265.596C137.315 265.596 136.977 265.537 136.664 265.418C136.348 265.291 136.067 265.101 135.821 264.848C135.576 264.595 135.381 264.276 135.239 263.892C135.071 263.441 134.994 263.019 135.008 262.627C135.022 262.235 135.073 261.829 135.161 261.41L136.012 257.321L137.098 256.917L136.208 260.97ZM137.247 261.252C137.01 261.34 136.804 261.463 136.627 261.621C136.448 261.772 136.308 261.95 136.208 262.156C136.112 262.351 136.059 262.569 136.047 262.809C136.035 263.049 136.076 263.294 136.169 263.545C136.266 263.804 136.397 264.02 136.562 264.194C136.725 264.361 136.908 264.49 137.111 264.583C137.318 264.666 137.54 264.709 137.777 264.714C138.012 264.71 138.247 264.665 138.483 264.577C138.72 264.489 138.928 264.37 139.107 264.219C139.284 264.061 139.42 263.884 139.515 263.689C139.616 263.483 139.673 263.264 139.687 263.032C139.699 262.792 139.657 262.543 139.561 262.284C139.467 262.033 139.338 261.82 139.172 261.646C139.007 261.472 138.82 261.344 138.613 261.261C138.41 261.169 138.191 261.124 137.957 261.127C137.72 261.123 137.483 261.164 137.247 261.252ZM144.531 255.137L143.991 263.285L142.938 263.677L143.533 255.508L139.743 256.918L139.422 256.053L144.209 254.272L144.531 255.137ZM146.603 255.565C146.488 255.254 146.439 254.953 146.456 254.661C146.481 254.365 146.56 254.092 146.694 253.84C146.827 253.589 147.013 253.364 147.25 253.167C147.485 252.962 147.762 252.8 148.079 252.682C148.397 252.564 148.712 252.505 149.024 252.507C149.333 252.502 149.62 252.55 149.885 252.653C150.151 252.757 150.386 252.913 150.59 253.123C150.802 253.33 150.965 253.589 151.081 253.899C151.149 254.084 151.188 254.28 151.198 254.486C151.208 254.693 151.186 254.895 151.133 255.091C151.08 255.287 150.994 255.475 150.875 255.654C150.764 255.83 150.618 255.98 150.438 256.106L150.446 256.129C150.702 256.092 150.949 256.101 151.188 256.155C151.424 256.202 151.642 256.29 151.84 256.417C152.039 256.545 152.218 256.71 152.377 256.912C152.534 257.106 152.657 257.325 152.748 257.569C152.88 257.923 152.933 258.269 152.907 258.607C152.886 258.934 152.798 259.24 152.643 259.525C152.496 259.807 152.286 260.057 152.014 260.276C151.75 260.492 151.444 260.665 151.097 260.794C150.749 260.923 150.401 260.994 150.052 261.006C149.711 261.015 149.389 260.963 149.086 260.848C148.79 260.731 148.523 260.557 148.286 260.326C148.053 260.084 147.871 259.786 147.739 259.432C147.648 259.188 147.598 258.941 147.59 258.692C147.579 258.436 147.606 258.194 147.673 257.967C147.74 257.74 147.848 257.532 147.996 257.343C148.142 257.146 148.323 256.977 148.54 256.838L148.532 256.815C148.313 256.838 148.1 256.82 147.894 256.762C147.695 256.702 147.511 256.615 147.342 256.501C147.174 256.387 147.026 256.249 146.898 256.086C146.77 255.923 146.672 255.749 146.603 255.565ZM147.551 255.263C147.691 255.64 147.924 255.906 148.251 256.062C148.586 256.215 148.949 256.219 149.341 256.073C149.732 255.927 150.001 255.689 150.147 255.357C150.3 255.022 150.306 254.667 150.166 254.29C150.026 253.913 149.789 253.648 149.454 253.495C149.127 253.339 148.768 253.334 148.376 253.48C147.985 253.625 147.712 253.865 147.559 254.2C147.413 254.532 147.41 254.886 147.551 255.263ZM148.645 259.019C148.73 259.248 148.849 259.443 149.002 259.605C149.154 259.767 149.327 259.892 149.52 259.98C149.717 260.058 149.923 260.104 150.138 260.116C150.358 260.119 150.578 260.079 150.8 259.996C151.021 259.914 151.211 259.801 151.368 259.659C151.53 259.506 151.656 259.337 151.747 259.152C151.843 258.956 151.896 258.748 151.905 258.525C151.915 258.303 151.877 258.077 151.792 257.848C151.707 257.619 151.588 257.424 151.435 257.262C151.283 257.1 151.108 256.98 150.911 256.902C150.718 256.814 150.512 256.769 150.292 256.766C150.077 256.754 149.859 256.788 149.637 256.871C149.416 256.953 149.224 257.071 149.062 257.224C148.905 257.366 148.778 257.535 148.683 257.731C148.592 257.916 148.542 258.12 148.532 258.342C148.522 258.564 148.56 258.79 148.645 259.019ZM156.171 254.29C156.006 253.846 155.871 253.371 155.766 252.863C155.662 252.355 155.636 251.869 155.69 251.403C155.741 250.93 155.89 250.504 156.136 250.127C156.387 249.739 156.783 249.445 157.322 249.244C157.861 249.044 158.349 249.009 158.785 249.141C159.226 249.264 159.62 249.487 159.968 249.812C160.313 250.129 160.612 250.514 160.864 250.967C161.117 251.42 161.326 251.868 161.49 252.311C161.655 252.754 161.79 253.23 161.895 253.738C162 254.245 162.026 254.736 161.975 255.209C161.921 255.675 161.769 256.101 161.518 256.489C161.271 256.867 160.879 257.156 160.339 257.357C159.8 257.557 159.31 257.596 158.869 257.474C158.433 257.342 158.043 257.117 157.697 256.8C157.35 256.475 157.049 256.086 156.797 255.634C156.544 255.181 156.336 254.733 156.171 254.29ZM157.102 253.943C157.173 254.135 157.26 254.347 157.363 254.578C157.466 254.809 157.581 255.039 157.708 255.269C157.841 255.489 157.986 255.7 158.145 255.902C158.312 256.1 158.491 256.265 158.682 256.396C158.881 256.524 159.094 256.609 159.32 256.651C159.543 256.686 159.784 256.655 160.042 256.559C160.301 256.462 160.503 256.328 160.65 256.156C160.793 255.977 160.895 255.775 160.954 255.551C161.021 255.324 161.049 255.082 161.038 254.826C161.034 254.567 161.007 254.312 160.956 254.062C160.909 253.801 160.85 253.55 160.776 253.308C160.703 253.066 160.631 252.849 160.559 252.657C160.488 252.465 160.401 252.254 160.298 252.023C160.196 251.792 160.078 251.566 159.946 251.346C159.818 251.116 159.671 250.902 159.505 250.703C159.346 250.502 159.167 250.337 158.968 250.209C158.776 250.078 158.569 249.996 158.346 249.961C158.12 249.919 157.877 249.946 157.619 250.042C157.36 250.138 157.159 250.276 157.016 250.456C156.869 250.628 156.763 250.827 156.696 251.054C156.636 251.278 156.608 251.52 156.612 251.779C156.623 252.035 156.652 252.294 156.699 252.554C156.75 252.804 156.812 253.05 156.885 253.292C156.958 253.534 157.03 253.751 157.102 253.943ZM162.329 251.999C162.164 251.556 162.029 251.08 161.925 250.573C161.82 250.065 161.794 249.578 161.848 249.112C161.899 248.639 162.048 248.214 162.295 247.836C162.546 247.448 162.941 247.154 163.48 246.954C164.02 246.753 164.507 246.719 164.943 246.851C165.384 246.973 165.778 247.197 166.126 247.521C166.471 247.839 166.77 248.224 167.023 248.677C167.275 249.129 167.484 249.577 167.649 250.021C167.813 250.464 167.948 250.939 168.053 251.447C168.158 251.955 168.185 252.445 168.133 252.919C168.08 253.384 167.927 253.811 167.676 254.199C167.43 254.576 167.037 254.866 166.497 255.066C165.958 255.267 165.468 255.306 165.027 255.184C164.591 255.052 164.201 254.827 163.856 254.51C163.508 254.185 163.208 253.796 162.955 253.343C162.703 252.891 162.494 252.442 162.329 251.999ZM163.26 251.653C163.331 251.845 163.418 252.057 163.521 252.287C163.624 252.518 163.739 252.749 163.867 252.979C163.999 253.199 164.145 253.41 164.304 253.611C164.47 253.81 164.649 253.975 164.841 254.105C165.04 254.233 165.252 254.318 165.478 254.36C165.701 254.395 165.942 254.364 166.201 254.268C166.459 254.172 166.662 254.038 166.808 253.866C166.951 253.686 167.053 253.484 167.113 253.26C167.18 253.034 167.208 252.792 167.196 252.535C167.192 252.276 167.165 252.021 167.114 251.771C167.067 251.511 167.008 251.26 166.935 251.018C166.861 250.776 166.789 250.559 166.718 250.367C166.646 250.175 166.559 249.963 166.456 249.732C166.354 249.501 166.236 249.276 166.104 249.056C165.976 248.826 165.829 248.612 165.663 248.413C165.504 248.211 165.325 248.046 165.126 247.919C164.934 247.788 164.727 247.705 164.504 247.671C164.278 247.628 164.036 247.655 163.777 247.752C163.518 247.848 163.317 247.986 163.174 248.165C163.028 248.337 162.921 248.537 162.854 248.764C162.794 248.988 162.766 249.229 162.77 249.489C162.782 249.745 162.81 250.003 162.857 250.264C162.908 250.514 162.97 250.76 163.043 251.002C163.116 251.244 163.188 251.461 163.26 251.653ZM170.084 248.371L170.114 248.385C170.232 248.248 170.38 248.126 170.558 248.018C170.744 247.907 170.918 247.821 171.08 247.76C171.42 247.634 171.756 247.576 172.088 247.587C172.428 247.596 172.742 247.672 173.032 247.817C173.326 247.951 173.588 248.148 173.819 248.407C174.05 248.666 174.232 248.976 174.367 249.339C174.51 249.723 174.571 250.091 174.551 250.443C174.531 250.796 174.442 251.123 174.285 251.425C174.126 251.72 173.906 251.987 173.624 252.226C173.348 252.455 173.025 252.638 172.656 252.776C172.286 252.913 171.918 252.987 171.552 252.997C171.19 252.997 170.853 252.937 170.539 252.818C170.223 252.692 169.942 252.502 169.697 252.249C169.451 251.995 169.257 251.677 169.114 251.292C168.946 250.842 168.87 250.42 168.883 250.028C168.897 249.636 168.948 249.23 169.036 248.811L169.887 244.722L170.973 244.318L170.084 248.371ZM171.122 248.653C170.886 248.741 170.679 248.864 170.503 249.022C170.323 249.173 170.183 249.351 170.083 249.557C169.988 249.752 169.934 249.97 169.922 250.209C169.911 250.449 169.951 250.695 170.045 250.946C170.141 251.205 170.272 251.421 170.438 251.595C170.6 251.761 170.783 251.891 170.986 251.984C171.193 252.066 171.416 252.11 171.653 252.114C171.887 252.111 172.122 252.066 172.359 251.978C172.595 251.89 172.803 251.77 172.983 251.62C173.159 251.461 173.295 251.285 173.391 251.089C173.491 250.884 173.548 250.665 173.563 250.432C173.575 250.193 173.532 249.943 173.436 249.685C173.343 249.434 173.213 249.221 173.048 249.047C172.882 248.873 172.696 248.745 172.488 248.662C172.285 248.569 172.067 248.525 171.833 248.528C171.595 248.523 171.359 248.565 171.122 248.653ZM178.368 246.778L178.338 246.764C178.221 246.9 178.069 247.024 177.883 247.135C177.705 247.244 177.534 247.328 177.372 247.388C177.032 247.515 176.692 247.574 176.353 247.566C176.021 247.554 175.708 247.482 175.414 247.347C175.124 247.202 174.866 247.004 174.637 246.753C174.407 246.494 174.222 246.18 174.085 245.81C173.942 245.426 173.881 245.058 173.901 244.705C173.922 244.353 174.011 244.029 174.171 243.734C174.328 243.432 174.544 243.167 174.821 242.938C175.102 242.699 175.427 242.51 175.797 242.373C176.166 242.236 176.531 242.167 176.893 242.167C177.259 242.157 177.601 242.215 177.917 242.341C178.23 242.46 178.51 242.646 178.755 242.9C179.001 243.153 179.195 243.472 179.338 243.856C179.423 244.085 179.483 244.303 179.518 244.509C179.552 244.715 179.569 244.918 179.569 245.121C179.568 245.323 179.551 245.526 179.519 245.732C179.49 245.928 179.456 246.13 179.416 246.338L178.565 250.427L177.479 250.831L178.368 246.778ZM177.33 246.496C177.566 246.408 177.774 246.288 177.954 246.137C178.13 245.979 178.266 245.802 178.362 245.607C178.462 245.402 178.519 245.183 178.534 244.95C178.546 244.71 178.503 244.461 178.407 244.203C178.314 243.951 178.184 243.739 178.019 243.565C177.853 243.391 177.667 243.263 177.459 243.18C177.256 243.087 177.038 243.042 176.804 243.045C176.567 243.041 176.33 243.083 176.093 243.171C175.857 243.259 175.65 243.382 175.474 243.54C175.294 243.691 175.155 243.869 175.054 244.075C174.959 244.27 174.905 244.487 174.893 244.727C174.882 244.967 174.923 245.213 175.016 245.464C175.112 245.722 175.243 245.939 175.409 246.113C175.571 246.279 175.754 246.409 175.957 246.502C176.164 246.584 176.387 246.628 176.624 246.632C176.858 246.629 177.093 246.584 177.33 246.496Z" fill="white" fill-opacity="0.6"/>
<path d="M95.3125 300.315L94.3816 300.661L91.9084 294.012L91.8863 294.02L90.9198 295.729L90.1143 295.259L91.5852 292.769L92.3942 292.468L95.3125 300.315ZM97.6394 298.238L99.5267 294.256C99.6455 294.01 99.7476 293.787 99.833 293.587C99.9157 293.38 99.9752 293.19 100.012 293.016C100.053 292.833 100.067 292.655 100.053 292.484C100.04 292.312 99.9975 292.13 99.926 291.938C99.8491 291.731 99.7434 291.56 99.6091 291.425C99.4748 291.29 99.3205 291.192 99.1463 291.13C98.9767 291.059 98.7923 291.027 98.593 291.033C98.3983 291.03 98.2012 291.066 98.0017 291.14C97.6028 291.288 97.3166 291.525 97.1432 291.85C96.9698 292.175 96.9162 292.54 96.9825 292.944L95.941 293.231C95.8745 292.894 95.8662 292.577 95.9158 292.281C95.9702 291.975 96.0743 291.701 96.2281 291.459C96.3893 291.214 96.5914 291 96.8346 290.817C97.075 290.627 97.354 290.472 97.6717 290.354C97.9968 290.233 98.3213 290.167 98.6452 290.156C98.9663 290.138 99.2669 290.177 99.5472 290.275C99.8348 290.37 100.091 290.527 100.315 290.746C100.547 290.963 100.728 291.244 100.857 291.592C100.972 291.902 101.032 292.199 101.037 292.483C101.049 292.765 101.021 293.04 100.953 293.309C100.89 293.569 100.802 293.828 100.688 294.089C100.58 294.34 100.46 294.595 100.329 294.854L98.7582 298.024L98.7664 298.046L102.767 296.558L103.089 297.423L98.0351 299.302L97.6394 298.238ZM104.548 297.423L103.747 297.405L103.917 287.653L104.714 287.659L104.548 297.423ZM107.899 294.422L109.787 290.44C109.906 290.194 110.008 289.971 110.093 289.771C110.176 289.564 110.235 289.374 110.272 289.2C110.313 289.017 110.327 288.839 110.313 288.668C110.3 288.496 110.257 288.314 110.186 288.122C110.109 287.915 110.003 287.744 109.869 287.609C109.735 287.474 109.581 287.376 109.406 287.314C109.237 287.243 109.052 287.211 108.853 287.217C108.658 287.214 108.461 287.25 108.262 287.324C107.863 287.472 107.577 287.709 107.403 288.034C107.23 288.359 107.176 288.724 107.242 289.128L106.201 289.415C106.135 289.078 106.126 288.761 106.176 288.465C106.23 288.159 106.334 287.885 106.488 287.643C106.649 287.398 106.851 287.184 107.095 287.001C107.335 286.811 107.614 286.656 107.932 286.538C108.257 286.417 108.581 286.351 108.905 286.34C109.226 286.322 109.527 286.361 109.807 286.459C110.095 286.554 110.351 286.711 110.575 286.93C110.807 287.147 110.988 287.428 111.117 287.776C111.232 288.086 111.292 288.383 111.297 288.667C111.309 288.949 111.281 289.224 111.213 289.493C111.15 289.753 111.062 290.012 110.948 290.273C110.84 290.524 110.72 290.779 110.589 291.038L109.018 294.208L109.026 294.23L113.027 292.742L113.349 293.607L108.295 295.486L107.899 294.422ZM112.536 287.16C112.421 286.849 112.372 286.548 112.389 286.255C112.414 285.96 112.493 285.687 112.627 285.435C112.76 285.184 112.946 284.959 113.183 284.762C113.418 284.556 113.695 284.395 114.012 284.277C114.33 284.159 114.645 284.1 114.957 284.102C115.266 284.096 115.553 284.145 115.818 284.248C116.084 284.351 116.319 284.508 116.523 284.718C116.735 284.925 116.898 285.184 117.014 285.494C117.082 285.679 117.121 285.875 117.131 286.081C117.141 286.288 117.119 286.49 117.066 286.686C117.013 286.882 116.927 287.07 116.808 287.249C116.697 287.425 116.551 287.575 116.371 287.701L116.379 287.724C116.635 287.687 116.882 287.696 117.121 287.75C117.357 287.797 117.575 287.885 117.773 288.012C117.972 288.14 118.151 288.305 118.311 288.506C118.467 288.701 118.59 288.92 118.681 289.163C118.813 289.518 118.866 289.864 118.84 290.202C118.819 290.529 118.731 290.835 118.576 291.12C118.429 291.402 118.219 291.652 117.947 291.871C117.683 292.087 117.377 292.26 117.03 292.389C116.682 292.518 116.334 292.589 115.986 292.601C115.644 292.61 115.322 292.557 115.019 292.443C114.723 292.326 114.456 292.152 114.219 291.921C113.986 291.679 113.804 291.381 113.672 291.027C113.581 290.783 113.531 290.536 113.523 290.287C113.512 290.031 113.539 289.789 113.606 289.562C113.673 289.335 113.781 289.127 113.929 288.938C114.075 288.74 114.256 288.572 114.473 288.432L114.465 288.41C114.246 288.433 114.033 288.415 113.827 288.357C113.628 288.297 113.444 288.21 113.275 288.096C113.107 287.982 112.959 287.843 112.831 287.681C112.703 287.518 112.605 287.344 112.536 287.16ZM113.484 286.858C113.624 287.234 113.857 287.501 114.185 287.657C114.519 287.81 114.882 287.814 115.274 287.668C115.665 287.522 115.934 287.284 116.08 286.952C116.233 286.617 116.239 286.262 116.099 285.885C115.959 285.508 115.722 285.243 115.387 285.09C115.06 284.934 114.701 284.929 114.309 285.075C113.918 285.22 113.645 285.46 113.492 285.795C113.346 286.127 113.344 286.481 113.484 286.858ZM114.578 290.614C114.663 290.843 114.782 291.038 114.935 291.2C115.087 291.362 115.26 291.487 115.453 291.575C115.65 291.653 115.856 291.699 116.071 291.711C116.291 291.714 116.511 291.674 116.733 291.591C116.954 291.509 117.144 291.396 117.301 291.254C117.463 291.101 117.589 290.932 117.68 290.747C117.776 290.551 117.829 290.343 117.838 290.12C117.848 289.898 117.811 289.672 117.725 289.443C117.64 289.214 117.521 289.019 117.368 288.857C117.216 288.695 117.041 288.575 116.844 288.497C116.651 288.409 116.445 288.364 116.225 288.361C116.01 288.349 115.792 288.383 115.57 288.466C115.349 288.548 115.157 288.666 114.995 288.819C114.838 288.961 114.712 289.13 114.616 289.326C114.525 289.511 114.475 289.714 114.465 289.937C114.455 290.159 114.493 290.385 114.578 290.614Z" fill="white" fill-opacity="0.6"/>
<path d="M77.6504 297.314L80.0498 296.422L80.1734 296.754L78.1398 297.51L78.6591 298.907L80.5653 298.198L80.689 298.53L78.7828 299.239L79.3516 300.769L81.4739 299.979L81.5976 300.312L79.1096 301.237L77.6504 297.314ZM82.4311 297.655L80.3976 296.292L80.8298 296.131L82.5538 297.307L83.0741 295.297L83.5118 295.134L82.8744 297.49L85.0984 299.01L84.644 299.179L82.7433 297.867L82.1615 300.102L81.7238 300.265L82.4311 297.655ZM84.0456 294.935L85.176 294.515C85.3127 294.464 85.4611 294.428 85.6212 294.406C85.7837 294.379 85.9403 294.382 86.0911 294.414C86.2455 294.445 86.387 294.515 86.5154 294.622C86.6461 294.725 86.7493 294.878 86.8248 295.081C86.8908 295.259 86.9146 295.424 86.8961 295.578C86.8814 295.731 86.8345 295.87 86.7552 295.997C86.6783 296.118 86.5754 296.225 86.4464 296.32C86.3212 296.412 86.181 296.488 86.0258 296.545L85.178 296.861L85.8705 298.723L85.5048 298.859L84.0456 294.935ZM85.0543 296.528L85.8855 296.219C85.989 296.181 86.0864 296.132 86.1779 296.073C86.2681 296.01 86.3423 295.938 86.4006 295.857C86.4576 295.773 86.4936 295.678 86.5087 295.571C86.5237 295.465 86.5072 295.347 86.4591 295.217C86.4124 295.092 86.3467 294.994 86.262 294.925C86.181 294.854 86.0896 294.806 85.9877 294.781C85.8881 294.751 85.7818 294.742 85.6687 294.754C85.5557 294.767 85.4474 294.793 85.344 294.831L84.535 295.132L85.0543 296.528Z" fill="white" fill-opacity="0.6"/>
<path d="M139.603 278.039C139.509 278.364 139.359 278.628 139.153 278.831C138.946 279.033 138.699 279.188 138.411 279.296C138.112 279.407 137.818 279.459 137.53 279.453C137.244 279.442 136.978 279.378 136.734 279.263C136.488 279.145 136.268 278.978 136.075 278.764C135.881 278.546 135.728 278.288 135.616 277.989C135.505 277.689 135.453 277.396 135.459 277.107C135.465 276.819 135.523 276.551 135.633 276.304C135.742 276.054 135.901 275.831 136.11 275.635C136.323 275.438 136.578 275.284 136.878 275.173C137.144 275.074 137.409 275.03 137.674 275.041C137.941 275.047 138.202 275.128 138.459 275.285L138.252 275.646C138.061 275.506 137.854 275.43 137.631 275.416C137.411 275.402 137.201 275.431 137.001 275.505C136.746 275.6 136.532 275.73 136.358 275.896C136.188 276.06 136.06 276.247 135.973 276.455C135.887 276.664 135.844 276.888 135.845 277.128C135.846 277.367 135.891 277.609 135.982 277.853C136.073 278.096 136.196 278.309 136.352 278.491C136.508 278.673 136.687 278.814 136.888 278.916C137.09 279.017 137.309 279.075 137.545 279.088C137.785 279.099 138.033 279.058 138.287 278.963C138.387 278.926 138.486 278.876 138.585 278.814C138.683 278.749 138.773 278.673 138.854 278.588C138.939 278.498 139.013 278.399 139.078 278.291C139.142 278.179 139.188 278.056 139.219 277.923L139.603 278.039ZM138.351 274.739L138.744 274.592L141.287 277.564L141.282 273.648L141.67 273.504L141.638 277.982L141.273 278.118L138.351 274.739ZM146.512 275.469C146.418 275.794 146.268 276.058 146.062 276.261C145.856 276.464 145.609 276.619 145.32 276.726C145.021 276.837 144.727 276.89 144.439 276.883C144.153 276.872 143.888 276.809 143.643 276.694C143.397 276.575 143.178 276.408 142.984 276.194C142.79 275.977 142.637 275.718 142.526 275.419C142.414 275.12 142.362 274.826 142.368 274.538C142.374 274.249 142.433 273.982 142.543 273.735C142.651 273.484 142.81 273.261 143.019 273.065C143.232 272.869 143.488 272.714 143.787 272.603C144.053 272.504 144.318 272.46 144.583 272.471C144.85 272.477 145.112 272.558 145.368 272.715L145.161 273.076C144.971 272.937 144.764 272.86 144.54 272.847C144.32 272.832 144.11 272.861 143.911 272.936C143.656 273.03 143.441 273.161 143.267 273.326C143.097 273.49 142.969 273.677 142.883 273.886C142.796 274.094 142.753 274.318 142.754 274.558C142.755 274.797 142.801 275.039 142.891 275.283C142.982 275.527 143.105 275.739 143.261 275.921C143.417 276.103 143.596 276.244 143.798 276.346C143.999 276.448 144.218 276.505 144.455 276.518C144.694 276.53 144.942 276.488 145.197 276.393C145.296 276.356 145.396 276.307 145.495 276.245C145.592 276.179 145.682 276.104 145.764 276.018C145.848 275.928 145.922 275.829 145.987 275.721C146.051 275.609 146.098 275.486 146.128 275.353L146.512 275.469Z" fill="white" fill-opacity="0.6"/>
<path d="M153.852 275.513L154.983 275.093L155.304 275.957L154.174 276.378L154.841 278.173L153.91 278.52L153.243 276.724L149.918 277.961L149.535 276.93L150.782 270.751L151.923 270.327L153.852 275.513ZM151.396 271.759L151.374 271.767L150.394 276.8L152.921 275.86L151.396 271.759ZM156.514 276.34L158.402 272.358C158.52 272.112 158.623 271.889 158.708 271.689C158.791 271.482 158.85 271.291 158.887 271.118C158.928 270.934 158.942 270.757 158.928 270.585C158.915 270.414 158.872 270.232 158.801 270.04C158.724 269.833 158.618 269.662 158.484 269.527C158.35 269.392 158.195 269.293 158.021 269.232C157.852 269.16 157.667 269.128 157.468 269.135C157.273 269.132 157.076 269.167 156.877 269.241C156.478 269.39 156.192 269.627 156.018 269.952C155.845 270.277 155.791 270.642 155.857 271.046L154.816 271.332C154.75 270.996 154.741 270.679 154.791 270.383C154.845 270.077 154.949 269.803 155.103 269.56C155.264 269.315 155.466 269.101 155.71 268.919C155.95 268.728 156.229 268.574 156.547 268.456C156.872 268.335 157.196 268.269 157.52 268.258C157.841 268.239 158.142 268.279 158.422 268.376C158.71 268.471 158.966 268.628 159.19 268.848C159.422 269.064 159.603 269.346 159.732 269.693C159.847 270.004 159.907 270.301 159.912 270.585C159.924 270.866 159.896 271.142 159.828 271.411C159.765 271.67 159.677 271.93 159.563 272.191C159.455 272.441 159.335 272.696 159.204 272.955L157.633 276.126L157.641 276.148L161.642 274.66L161.964 275.524L156.91 277.404L156.514 276.34ZM161.476 271.24C161.311 270.796 161.176 270.321 161.072 269.813C160.967 269.305 160.942 268.819 160.995 268.353C161.046 267.88 161.195 267.454 161.442 267.077C161.693 266.689 162.088 266.395 162.627 266.194C163.167 265.994 163.654 265.959 164.09 266.092C164.531 266.214 164.925 266.437 165.273 266.762C165.618 267.079 165.917 267.464 166.17 267.917C166.422 268.37 166.631 268.818 166.796 269.261C166.961 269.704 167.095 270.18 167.2 270.688C167.305 271.195 167.332 271.686 167.281 272.159C167.227 272.625 167.074 273.052 166.823 273.439C166.577 273.817 166.184 274.106 165.645 274.307C165.105 274.507 164.615 274.547 164.175 274.424C163.738 274.292 163.348 274.068 163.003 273.75C162.655 273.425 162.355 273.037 162.102 272.584C161.85 272.131 161.641 271.683 161.476 271.24ZM162.407 270.893C162.479 271.086 162.566 271.297 162.668 271.528C162.771 271.759 162.886 271.989 163.014 272.22C163.146 272.439 163.292 272.65 163.451 272.852C163.617 273.051 163.796 273.215 163.988 273.346C164.187 273.474 164.399 273.559 164.625 273.601C164.848 273.636 165.089 273.605 165.348 273.509C165.606 273.413 165.809 273.278 165.955 273.106C166.099 272.927 166.2 272.725 166.26 272.501C166.327 272.274 166.355 272.032 166.343 271.776C166.339 271.517 166.312 271.262 166.261 271.012C166.215 270.751 166.155 270.5 166.082 270.258C166.009 270.017 165.936 269.8 165.865 269.607C165.793 269.415 165.706 269.204 165.604 268.973C165.501 268.742 165.383 268.517 165.251 268.297C165.123 268.066 164.976 267.852 164.81 267.653C164.651 267.452 164.472 267.287 164.273 267.159C164.081 267.029 163.874 266.946 163.651 266.911C163.425 266.869 163.183 266.896 162.924 266.992C162.666 267.088 162.464 267.226 162.321 267.406C162.175 267.578 162.068 267.777 162.001 268.004C161.941 268.228 161.914 268.47 161.917 268.729C161.929 268.986 161.958 269.244 162.004 269.504C162.055 269.754 162.117 270.001 162.19 270.242C162.263 270.484 162.336 270.701 162.407 270.893Z" fill="white" fill-opacity="0.6"/>
<g opacity="0.4">
<circle cx="252.511" cy="227.98" r="17.4593" transform="rotate(-20.4016 252.511 227.98)" fill="white"/>
<circle cx="274.328" cy="219.865" r="17.4593" transform="rotate(-20.4016 274.328 219.865)" fill="#939598"/>
<path d="M267.956 236.119C270.19 231.878 270.677 226.74 268.875 221.894C267.072 217.047 263.346 213.476 258.883 211.725C256.65 215.967 256.163 221.105 257.965 225.951C259.768 230.798 263.494 234.368 267.956 236.119Z" fill="#BBBBBF"/>
</g>
</g>
<rect x="19.9281" y="176.244" width="252.437" height="158.628" rx="11.3232" transform="rotate(-20.4016 19.9281 176.244)" stroke="url(#paint0_linear_812_16857)"/>
<defs>
<linearGradient id="paint0_linear_812_16857" x1="27.7842" y1="178.098" x2="76.6458" y2="220.276" gradientUnits="userSpaceOnUse">
<stop stop-color="#ACACAC"/>
<stop offset="0.610061" stop-color="#464646"/>
<stop offset="1" stop-color="#464646" stop-opacity="0.4"/>
</linearGradient>
<clipPath id="clip0_812_16857">
<rect x="19.2852" y="175.949" width="253.437" height="159.628" rx="11.8232" transform="rotate(-20.4016 19.2852 175.949)" fill="white"/>
</clipPath>
</defs>
</svg>
