<svg width="88" height="88" viewBox="0 0 88 88" fill="none" xmlns="http://www.w3.org/2000/svg">
<g clip-path="url(#clip0_581_715)">
<g clip-path="url(#clip1_581_715)">
<g clip-path="url(#clip2_581_715)">
<path d="M65.9997 0.499512H21.9999C10.1258 0.499512 0.5 10.1253 0.5 21.9994V65.9992C0.5 77.8733 10.1258 87.4991 21.9999 87.4991H65.9997C77.8738 87.4991 87.4996 77.8733 87.4996 65.9992V21.9994C87.4996 10.1253 77.8738 0.499512 65.9997 0.499512Z" stroke="#F0F1F3" stroke-opacity="0.2"/>
<ellipse cx="44.5461" cy="43.5433" rx="17.2026" ry="13.0697" fill="#202022"/>
<path d="M25.7495 35.5947C25.7495 33.9786 26.3915 32.4286 27.5343 31.2858C28.6771 30.143 30.2271 29.501 31.8433 29.501H57.1558C57.956 29.501 58.7484 29.6586 59.4877 29.9648C60.2271 30.2711 60.8988 30.7199 61.4647 31.2858C62.0306 31.8517 62.4794 32.5234 62.7857 33.2627C63.0919 34.0021 63.2495 34.7945 63.2495 35.5947V53.4072C63.2495 54.2075 63.0919 54.9999 62.7857 55.7392C62.4794 56.4785 62.0306 57.1503 61.4647 57.7162C60.8988 58.282 60.2271 58.7309 59.4877 59.0371C58.7484 59.3434 57.956 59.501 57.1558 59.501H31.8433C30.2271 59.501 28.6771 58.859 27.5343 57.7162C26.3915 56.5734 25.7495 55.0234 25.7495 53.4072V35.5947ZM51.9995 44.501C52.9941 44.501 53.9479 44.1059 54.6512 43.4026C55.3544 42.6994 55.7495 41.7455 55.7495 40.751C55.7495 39.7564 55.3544 38.8026 54.6512 38.0993C53.9479 37.3961 52.9941 37.001 51.9995 37.001C51.0049 37.001 50.0511 37.3961 49.3479 38.0993C48.6446 38.8026 48.2495 39.7564 48.2495 40.751C48.2495 41.7455 48.6446 42.6994 49.3479 43.4026C50.0511 44.1059 51.0049 44.501 51.9995 44.501ZM31.3745 37.001V44.501C31.3745 44.9983 31.5721 45.4752 31.9237 45.8268C32.2753 46.1784 32.7522 46.376 33.2495 46.376H42.6245C43.1218 46.376 43.5987 46.1784 43.9503 45.8268C44.302 45.4752 44.4995 44.9983 44.4995 44.501V37.001C44.4995 36.5037 44.302 36.0268 43.9503 35.6752C43.5987 35.3235 43.1218 35.126 42.6245 35.126H33.2495C32.7522 35.126 32.2753 35.3235 31.9237 35.6752C31.5721 36.0268 31.3745 36.5037 31.3745 37.001ZM48.2495 46.376C47.7522 46.376 47.2753 46.5735 46.9237 46.9252C46.5721 47.2768 46.3745 47.7537 46.3745 48.251V48.7197C46.3745 50.0872 46.9178 51.3988 47.8847 52.3657C48.8517 53.3327 50.1632 53.876 51.5308 53.876H52.4683C53.8358 53.876 55.1473 53.3327 56.1143 52.3657C57.0813 51.3988 57.6245 50.0872 57.6245 48.7197V48.251C57.6245 47.7537 57.427 47.2768 57.0753 46.9252C56.7237 46.5735 56.2468 46.376 55.7495 46.376H48.2495Z" fill="#717173"/>
</g>
</g>
</g>
<defs>
<clipPath id="clip0_581_715">
<rect width="88" height="88" fill="white"/>
</clipPath>
<clipPath id="clip1_581_715">
<rect width="88" height="88" fill="white"/>
</clipPath>
<clipPath id="clip2_581_715">
<rect width="88" height="88" fill="white"/>
</clipPath>
</defs>
</svg>
