<svg width="88" height="88" viewBox="0 0 88 88" fill="none" xmlns="http://www.w3.org/2000/svg">
<g clip-path="url(#clip0_581_722)">
<g clip-path="url(#clip1_581_722)">
<g clip-path="url(#clip2_581_722)">
<path d="M65.9997 0.499512H21.9999C10.1258 0.499512 0.5 10.1253 0.5 21.9994V65.9992C0.5 77.8733 10.1258 87.4991 21.9999 87.4991H65.9997C77.8738 87.4991 87.4996 77.8733 87.4996 65.9992V21.9994C87.4996 10.1253 77.8738 0.499512 65.9997 0.499512Z" stroke="#F0F1F3" stroke-opacity="0.2"/>
<ellipse cx="53.6413" cy="54.5541" rx="4.04471" ry="2.90164" transform="rotate(-43.4131 53.6413 54.5541)" fill="#202022"/>
<path d="M47.5828 47.6617V47.5846H32.5562C32.1006 47.5844 31.6494 47.674 31.2285 47.8482C30.8075 48.0225 30.4251 48.278 30.1029 48.6001C29.7808 48.9222 29.5253 49.3047 29.351 49.7257C29.1768 50.1466 29.0872 50.5977 29.0874 51.0533V52.4701C29.0874 53.352 29.3649 54.2122 29.8752 54.9306C32.2524 58.2668 36.1436 59.9179 41.4161 59.9179C42.5184 59.9179 43.559 59.847 44.5395 59.7021C44.5129 59.5183 44.4995 59.3328 44.4994 59.1471V51.4387C44.4993 50.5502 44.8061 49.689 45.3679 49.0007C45.9298 48.3124 46.7122 47.8394 47.5828 47.6617ZM41.4161 29.0923C42.4284 29.0923 43.4307 29.2917 44.366 29.679C45.3012 30.0664 46.1509 30.6342 46.8667 31.35C47.5825 32.0658 48.1503 32.9155 48.5377 33.8508C48.9251 34.786 49.1244 35.7883 49.1244 36.8006C49.1244 37.8129 48.9251 38.8153 48.5377 39.7505C48.1503 40.6857 47.5825 41.5354 46.8667 42.2512C46.1509 42.967 45.3012 43.5348 44.366 43.9222C43.4307 44.3096 42.4284 44.509 41.4161 44.509C39.3717 44.509 37.4111 43.6968 35.9655 42.2512C34.5199 40.8056 33.7078 38.845 33.7078 36.8006C33.7078 34.7562 34.5199 32.7956 35.9655 31.35C37.4111 29.9044 39.3717 29.0923 41.4161 29.0923ZM49.1244 49.1262V47.5846C49.1244 46.5624 49.5305 45.5821 50.2533 44.8593C50.9761 44.1365 51.9564 43.7304 52.9786 43.7304C54.0008 43.7304 54.9811 44.1365 55.7039 44.8593C56.4267 45.5821 56.8328 46.5624 56.8328 47.5846V49.1262H57.6036C58.2169 49.1262 58.8051 49.3699 59.2388 49.8036C59.6725 50.2372 59.9161 50.8254 59.9161 51.4387V59.1471C59.9161 59.7604 59.6725 60.3486 59.2388 60.7823C58.8051 61.2159 58.2169 61.4596 57.6036 61.4596H48.3536C47.7403 61.4596 47.1521 61.2159 46.7184 60.7823C46.2847 60.3486 46.0411 59.7604 46.0411 59.1471V51.4387C46.0411 50.8254 46.2847 50.2372 46.7184 49.8036C47.1521 49.3699 47.7403 49.1262 48.3536 49.1262H49.1244ZM51.4369 47.5846V49.1262H54.5203V47.5846C54.5203 47.1757 54.3579 46.7836 54.0687 46.4945C53.7796 46.2053 53.3875 46.0429 52.9786 46.0429C52.5697 46.0429 52.1776 46.2053 51.8885 46.4945C51.5994 46.7836 51.4369 47.1757 51.4369 47.5846ZM54.5203 55.2929C54.5203 54.884 54.3579 54.4919 54.0687 54.2028C53.7796 53.9137 53.3875 53.7512 52.9786 53.7512C52.5697 53.7512 52.1776 53.9137 51.8885 54.2028C51.5994 54.4919 51.4369 54.884 51.4369 55.2929C51.4369 55.7018 51.5994 56.0939 51.8885 56.383C52.1776 56.6722 52.5697 56.8346 52.9786 56.8346C53.3875 56.8346 53.7796 56.6722 54.0687 56.383C54.3579 56.0939 54.5203 55.7018 54.5203 55.2929Z" fill="#717173"/>
</g>
</g>
</g>
<defs>
<clipPath id="clip0_581_722">
<rect width="88" height="88" fill="white"/>
</clipPath>
<clipPath id="clip1_581_722">
<rect width="88" height="88" fill="white"/>
</clipPath>
<clipPath id="clip2_581_722">
<rect width="88" height="88" fill="white"/>
</clipPath>
</defs>
</svg>
