<svg width="32" height="32" viewBox="0 0 32 32" fill="none" xmlns="http://www.w3.org/2000/svg">
<g clip-path="url(#clip0_589_6513)">
<g clip-path="url(#clip1_589_6513)">
<g clip-path="url(#clip2_589_6513)">
<path d="M32 16C32 7.16344 24.8366 0 16 0C7.16344 0 0 7.16344 0 16C0 24.8366 7.16344 32 16 32C24.8366 32 32 24.8366 32 16Z" fill="white" fill-opacity="0.16"/>
<path fill-rule="evenodd" clip-rule="evenodd" d="M20.554 23.644C20.8089 23.8149 21.1375 23.8577 21.4303 23.7527C21.7233 23.647 21.9386 23.4099 22.0035 23.1228C22.6915 20.0597 24.3603 12.3069 24.9864 9.52069C25.0339 9.31069 24.9548 9.09243 24.7807 8.95219C24.6064 8.81193 24.365 8.77143 24.1497 8.84718C20.8303 10.0112 10.6077 13.6449 6.4294 15.1097C6.16419 15.2027 5.99161 15.4442 6.00031 15.7089C6.00982 15.9744 6.19823 16.2047 6.46977 16.282C8.3436 16.8129 10.8033 17.5517 10.8033 17.5517C10.8033 17.5517 11.9527 20.8404 12.552 22.5129C12.6272 22.723 12.8006 22.888 13.0294 22.945C13.2574 23.0013 13.5012 22.942 13.6714 22.7897C14.634 21.9287 16.1223 20.5975 16.1223 20.5975C16.1223 20.5975 18.9501 22.5617 20.554 23.644ZM11.8379 17.1362L13.1671 21.2897L13.4624 18.6595C13.4624 18.6595 18.5978 14.2712 21.5254 11.7699C21.6109 11.6964 21.6227 11.5734 21.5515 11.4872C21.4811 11.4009 21.3513 11.3807 21.2538 11.4392C17.8608 13.4919 11.8379 17.1362 11.8379 17.1362Z" fill="white" fill-opacity="0.88"/>
</g>
</g>
</g>
<defs>
<clipPath id="clip0_589_6513">
<rect width="32" height="32" fill="white"/>
</clipPath>
<clipPath id="clip1_589_6513">
<rect width="32" height="32" fill="white"/>
</clipPath>
<clipPath id="clip2_589_6513">
<rect width="32" height="32" fill="white"/>
</clipPath>
</defs>
</svg>
