<svg width="88" height="88" viewBox="0 0 88 88" fill="none" xmlns="http://www.w3.org/2000/svg">
<g clip-path="url(#clip0_581_729)">
<g clip-path="url(#clip1_581_729)">
<g clip-path="url(#clip2_581_729)">
<path d="M65.9997 0.499512H21.9999C10.1258 0.499512 0.5 10.1253 0.5 21.9994V65.9992C0.5 77.8733 10.1258 87.4991 21.9999 87.4991H65.9997C77.8738 87.4991 87.4996 77.8733 87.4996 65.9992V21.9994C87.4996 10.1253 77.8738 0.499512 65.9997 0.499512Z" stroke="#F0F1F3" stroke-opacity="0.2"/>
<ellipse cx="44.5" cy="33.4848" rx="3.20747" ry="4.2787" fill="#202022"/>
<path d="M42.6495 26.1652C43.1863 25.7732 43.8338 25.562 44.4985 25.562C45.1632 25.562 45.8107 25.7732 46.3475 26.1652L59.6435 35.8689C61.3939 37.1464 60.4927 39.9145 58.3284 39.9181H30.6669C28.5025 39.9145 27.6031 37.1464 29.3518 35.8689L42.6477 26.1652H42.6495ZM46.2902 33.1993C46.2902 32.7241 46.1014 32.2684 45.7654 31.9324C45.4294 31.5964 44.9737 31.4076 44.4985 31.4076C44.0234 31.4076 43.5676 31.5964 43.2316 31.9324C42.8956 32.2684 42.7069 32.7241 42.7069 33.1993C42.7069 33.6745 42.8956 34.1302 43.2316 34.4662C43.5676 34.8022 44.0234 34.991 44.4985 34.991C44.9737 34.991 45.4294 34.8022 45.7654 34.4662C46.1014 34.1302 46.2902 33.6745 46.2902 33.1993ZM43.1548 50.6681H39.5715V41.7097H43.1548V50.6681ZM45.8423 49.8923C46.8832 49.0418 48.1114 48.451 49.4256 48.1687V41.7097H45.8423V49.8923ZM52.1131 47.9806H56.1444V41.7097H52.1131V47.9806ZM42.7069 56.491C42.7069 55.0326 43.0742 53.6601 43.721 52.4597H32.4048C31.3356 52.4597 30.3103 52.8844 29.5543 53.6405C28.7983 54.3965 28.3735 55.4218 28.3735 56.491V57.3868C28.3735 58.1286 28.9755 58.7306 29.7173 58.7306H43.0043C42.8061 58.0006 42.7061 57.2474 42.7069 56.491ZM36.884 50.6681H32.8527V41.7097H36.884V50.6681ZM64.2069 56.491C64.2069 54.7091 63.499 53.0001 62.239 51.7401C60.979 50.4801 59.27 49.7722 57.4881 49.7722L57.3054 49.7848C56.9681 49.8312 56.661 50.0039 56.4461 50.268C56.2313 50.5321 56.1247 50.8679 56.1479 51.2076C56.1711 51.5472 56.3224 51.8654 56.5712 52.0979C56.8199 52.3303 57.1477 52.4596 57.4881 52.4597L57.764 52.4687C58.8082 52.5384 59.7844 53.0114 60.4862 53.7878C61.1879 54.5642 61.5603 55.5831 61.5244 56.629C61.4886 57.6749 61.0474 58.6659 60.2942 59.3925C59.5409 60.119 58.5347 60.5242 57.4881 60.5222L57.4827 60.5312L57.3 60.5437C56.9617 60.5902 56.6538 60.7637 56.4389 61.029C56.2239 61.2942 56.118 61.6314 56.1426 61.9719C56.1672 62.3125 56.3206 62.6309 56.5715 62.8625C56.8224 63.094 57.1521 63.2214 57.4935 63.2187V63.2097L57.8518 63.2008C59.5684 63.1077 61.184 62.3602 62.3662 61.112C63.5483 59.8639 64.2071 58.2101 64.2069 56.491ZM52.561 51.116C52.561 50.7596 52.4195 50.4178 52.1675 50.1658C51.9155 49.9138 51.5737 49.7722 51.2173 49.7722L50.859 49.7812C49.1084 49.8716 47.4625 50.6426 46.2724 51.9297C45.0824 53.2167 44.4425 54.9179 44.4892 56.6702C44.536 58.4225 45.2657 60.0871 46.5227 61.3089C47.7797 62.5306 49.4644 63.2128 51.2173 63.2097L51.4 63.1972C51.7373 63.1508 52.0444 62.9781 52.2593 62.714C52.4741 62.4499 52.5807 62.1141 52.5575 61.7744C52.5343 61.4347 52.383 61.1165 52.1342 60.8841C51.8855 60.6517 51.5577 60.5223 51.2173 60.5222L50.9414 60.5133C49.8972 60.4436 48.921 59.9705 48.2192 59.1941C47.5175 58.4177 47.1451 57.3989 47.181 56.3529C47.2168 55.307 47.658 54.316 48.4112 53.5895C49.1645 52.8629 50.1707 52.4578 51.2173 52.4597L51.4 52.4472C51.7217 52.403 52.0166 52.2439 52.23 51.9991C52.4434 51.7544 52.561 51.4407 52.561 51.116ZM58.8319 56.491C58.8319 56.1346 58.6903 55.7928 58.4383 55.5408C58.1863 55.2888 57.8445 55.1472 57.4881 55.1472H51.2173L51.0345 55.1598C50.6973 55.2062 50.3902 55.3789 50.1753 55.643C49.9605 55.9071 49.8539 56.2429 49.8771 56.5826C49.9003 56.9222 50.0516 57.2404 50.3003 57.4729C50.5491 57.7053 50.8768 57.8346 51.2173 57.8347H57.4881L57.6709 57.8222C57.9926 57.778 58.2874 57.6189 58.5008 57.3741C58.7143 57.1294 58.8319 56.8157 58.8319 56.491Z" fill="#717173"/>
</g>
</g>
</g>
<defs>
<clipPath id="clip0_581_729">
<rect width="88" height="88" fill="white"/>
</clipPath>
<clipPath id="clip1_581_729">
<rect width="88" height="88" fill="white"/>
</clipPath>
<clipPath id="clip2_581_729">
<rect width="88" height="88" fill="white"/>
</clipPath>
</defs>
</svg>
