<svg width="23" height="34" viewBox="0 0 23 34" fill="none" xmlns="http://www.w3.org/2000/svg">
<path d="M14.3905 20.8914C14.2995 20.7542 14.2958 20.5768 14.3816 20.4362L21.3436 8.99668C21.6018 8.57255 21.2965 8.02935 20.8001 8.02935L14.589 8.02581C14.3669 8.02568 14.162 8.13939 14.0464 8.32913C12.4985 10.8706 10.9698 13.4247 9.39801 15.9514C8.94719 16.6763 7.82896 16.3557 7.82896 15.5023V1.29522C7.82896 0.943735 7.54596 0.662598 7.19443 0.662598H1.46497C1.11344 0.662598 0.82959 0.94242 0.82959 1.29391V32.6894C0.82959 33.0409 1.1145 33.3146 1.46603 33.3146H7.19252C7.54384 33.3146 7.82896 33.0297 7.82896 32.6781V25.4267C7.82896 24.5722 8.95037 24.2533 9.40564 24.9763C11.1213 27.7016 12.9651 30.3519 14.7469 33.0341C14.8648 33.2117 15.0638 33.3184 15.277 33.3184H21.4548C21.9624 33.3184 22.2658 32.753 21.9851 32.33C19.4544 28.5166 16.9224 24.7041 14.3905 20.8914Z" fill="white"/>
</svg>
