<svg width="22" height="26" viewBox="0 0 22 26" fill="none" xmlns="http://www.w3.org/2000/svg">
<path d="M5.06256 0.0327148C2.71939 0.0327148 0.819611 1.93235 0.819611 4.27566V24.6779C0.819611 25.0295 1.10452 25.3144 1.45605 25.3144H7.18254C7.53407 25.3144 7.81898 25.0295 7.81898 24.6779V8.11604C7.81898 7.5303 8.29398 7.05538 8.87972 7.05538H13.7506C14.3364 7.05538 14.8114 7.5303 14.8114 8.11604V24.6779C14.8114 25.0295 15.0963 25.3144 15.4478 25.3144H21.1743C21.5258 25.3144 21.8107 25.0295 21.8107 24.6779V4.27566C21.8107 1.93235 19.9112 0.0327148 17.5678 0.0327148H5.06256Z" fill="white"/>
</svg>
