<svg width="32" height="32" viewBox="0 0 32 32" fill="none" xmlns="http://www.w3.org/2000/svg">
<g clip-path="url(#clip0_589_6496)">
<g clip-path="url(#clip1_589_6496)">
<g clip-path="url(#clip2_589_6496)">
<path d="M32 16C32 7.16344 24.8366 0 16 0C7.16344 0 0 7.16344 0 16C0 24.8366 7.16344 32 16 32C24.8366 32 32 24.8366 32 16Z" fill="white" fill-opacity="0.16"/>
<mask id="mask0_589_6496" style="mask-type:luminance" maskUnits="userSpaceOnUse" x="9" y="9" width="14" height="14">
<path d="M23 9H9V23H23V9Z" fill="white"/>
</mask>
<g mask="url(#mask0_589_6496)">
<path d="M17.3319 14.925L22.5437 9H21.3087L16.7833 14.1446L13.1688 9H9L14.4657 16.7795L9 22.9928H10.2351L15.0141 17.5599L18.8312 22.9928H23L17.3319 14.925ZM15.6403 16.8481L15.0865 16.0734L10.6801 9.90931H12.5772L16.1331 14.8839L16.6869 15.6586L21.3093 22.1249H19.4122L15.6403 16.8481Z" fill="white"/>
</g>
</g>
</g>
</g>
<defs>
<clipPath id="clip0_589_6496">
<rect width="32" height="32" fill="white"/>
</clipPath>
<clipPath id="clip1_589_6496">
<rect width="32" height="32" fill="white"/>
</clipPath>
<clipPath id="clip2_589_6496">
<rect width="32" height="32" fill="white"/>
</clipPath>
</defs>
</svg>
